<svg width="138" height="54" viewBox="0 0 138 54" fill="none" xmlns="http://www.w3.org/2000/svg">
<path fill-rule="evenodd" clip-rule="evenodd" d="M81.035 37.7479C75.2456 42.0286 66.8245 44.3093 59.5613 44.3093C49.3859 44.3093 40.2631 40.5549 33.3157 34.3093C32.7894 33.8181 33.2456 33.1514 33.9122 33.5374C41.3859 37.8883 50.614 40.4848 60.1578 40.4848C66.5789 40.4848 73.6666 39.1514 80.1929 36.3795C81.1754 35.9935 81.9824 37.0462 81.035 37.7479Z" fill="white"/>
<path fill-rule="evenodd" clip-rule="evenodd" d="M83.4561 34.9763C82.7193 34.029 78.5438 34.5202 76.6842 34.7658C76.1228 34.836 76.0175 34.3448 76.5438 33.9939C79.8771 31.643 85.3157 32.3448 85.9473 33.1167C86.5789 33.8886 85.7719 39.3623 82.6491 41.9588C82.1578 42.3448 81.7017 42.1342 81.9122 41.6079C82.614 39.8535 84.1929 35.9588 83.4561 34.9763Z" fill="white"/>
<path fill-rule="evenodd" clip-rule="evenodd" d="M76.7895 17.5023V15.2216C76.7895 14.8708 77.0351 14.6602 77.3509 14.6602H87.5263C87.8421 14.6602 88.1228 14.9059 88.1228 15.2216V17.1515C88.1228 17.4673 87.8421 17.8883 87.3509 18.5901L82.0877 26.0988C84.0526 26.0637 86.1228 26.3445 87.8772 27.3269C88.2632 27.5374 88.3684 27.8883 88.4035 28.2041V30.6252C88.4035 30.976 88.0526 31.362 87.6667 31.1515C84.5439 29.5023 80.3684 29.3269 76.9298 31.1866C76.5789 31.362 76.193 31.0111 76.193 30.6602V28.3444C76.193 27.9936 76.193 27.362 76.5789 26.8006L82.6842 18.0638H77.386C77.0702 18.0638 76.7895 17.8181 76.7895 17.5023ZM39.7018 31.6427H36.614C36.3333 31.6076 36.0877 31.3971 36.0526 31.1164V15.2567C36.0526 14.9409 36.3333 14.6953 36.6491 14.6953H39.5263C39.8421 14.6953 40.0526 14.9409 40.0877 15.2216V17.2918H40.1579C40.8947 15.2918 42.3333 14.3445 44.2281 14.3445C46.1579 14.3445 47.386 15.2918 48.2281 17.2918C48.9649 15.2918 50.6842 14.3445 52.5088 14.3445C53.807 14.3445 55.2105 14.8708 56.0877 16.0988C57.0702 17.4322 56.8596 19.362 56.8596 21.0813V31.1164C56.8596 31.4322 56.579 31.6778 56.2632 31.6778H53.2105C52.8947 31.6427 52.6491 31.3971 52.6491 31.1164V22.6953C52.6491 22.0287 52.7193 20.3444 52.579 19.7129C52.3333 18.6602 51.6667 18.3444 50.7544 18.3444C50.0175 18.3444 49.2105 18.8357 48.8947 19.6427C48.5789 20.4497 48.614 21.783 48.614 22.6953V31.1164C48.614 31.4322 48.3333 31.6778 48.0175 31.6778H44.9298C44.614 31.6427 44.3684 31.3971 44.3684 31.1164V22.6953C44.3684 20.9409 44.6491 18.3094 42.4737 18.3094C40.2632 18.3094 40.3333 20.8357 40.3333 22.6953V31.1164C40.2982 31.3971 40.0526 31.6427 39.7018 31.6427ZM96.8947 14.3445C101.491 14.3445 103.982 18.2743 103.982 23.2918C103.982 28.1339 101.246 31.9936 96.8947 31.9936C92.4035 31.9936 89.9474 28.0638 89.9474 23.1515C89.9123 18.2041 92.4035 14.3445 96.8947 14.3445ZM96.8947 17.6076C94.614 17.6076 94.4737 20.7304 94.4737 22.6602C94.4737 24.5901 94.4386 28.7304 96.8596 28.7304C99.2456 28.7304 99.386 25.3971 99.386 23.362C99.386 22.0287 99.3158 20.4146 98.9298 19.1515C98.5789 18.0287 97.8772 17.6076 96.8947 17.6076ZM109.912 31.6427H106.825C106.509 31.6076 106.263 31.362 106.263 31.0813V15.1866C106.298 14.9059 106.544 14.6602 106.86 14.6602H109.737C110.018 14.6602 110.228 14.8708 110.298 15.1164V17.5374H110.368C111.246 15.362 112.439 14.3445 114.579 14.3445C115.947 14.3445 117.316 14.8357 118.193 16.2041C119 17.4673 119 19.6076 119 21.1515V31.1515C118.965 31.4322 118.719 31.6427 118.404 31.6427H115.316C115.035 31.6076 114.789 31.3971 114.754 31.1515V22.5199C114.754 20.7655 114.965 18.2392 112.825 18.2392C112.088 18.2392 111.386 18.7304 111.035 19.5023C110.614 20.4848 110.544 21.4322 110.544 22.5199V31.0813C110.509 31.3971 110.228 31.6427 109.912 31.6427ZM68.6842 24.0638C68.6842 25.2567 68.7193 26.2743 68.1228 27.362C67.6316 28.2392 66.8596 28.7655 65.9825 28.7655C64.7895 28.7655 64.0877 27.8532 64.0877 26.5199C64.0877 23.8883 66.4386 23.3971 68.6842 23.3971V24.0638ZM71.807 31.6076C71.5965 31.7831 71.3158 31.8181 71.0702 31.6778C70.0526 30.8357 69.8421 30.4146 69.2807 29.6076C67.5965 31.3269 66.3684 31.8532 64.193 31.8532C61.5965 31.8532 59.5614 30.2392 59.5614 27.0462C59.5614 24.5199 60.9298 22.8357 62.8596 21.9936C64.5439 21.2567 66.8947 21.1164 68.6842 20.9059V20.5199C68.6842 19.783 68.7544 18.9059 68.2982 18.2743C67.9123 17.7129 67.2105 17.4673 66.5789 17.4673C65.386 17.4673 64.3333 18.0638 64.0877 19.3269C64.0175 19.6076 63.8421 19.8883 63.5614 19.8883L60.5789 19.5725C60.3333 19.5023 60.0526 19.3269 60.1228 18.9409C60.8246 15.2918 64.0877 14.2041 67.0351 14.2041C68.5439 14.2041 70.5088 14.5901 71.7018 15.748C73.2105 17.1515 73.0702 19.0462 73.0702 21.0813V25.8883C73.0702 27.3269 73.6667 27.9585 74.2281 28.7655C74.4386 29.0462 74.4737 29.3971 74.2281 29.5725C73.5614 30.0988 72.4386 31.0813 71.807 31.6076ZM28.1579 24.0638C28.1579 25.2567 28.193 26.2743 27.5965 27.362C27.1053 28.2392 26.3333 28.7655 25.4561 28.7655C24.2632 28.7655 23.5614 27.8532 23.5614 26.5199C23.5614 23.8883 25.9123 23.3971 28.1579 23.3971V24.0638ZM31.2456 31.6076C31.0351 31.7831 30.7544 31.8181 30.5088 31.6778C29.4912 30.8357 29.2807 30.4146 28.7193 29.6076C27.0351 31.3269 25.807 31.8532 23.6316 31.8532C21.0351 31.8532 19 30.2392 19 27.0462C19 24.5199 20.3684 22.8357 22.2982 21.9936C23.9825 21.2567 26.3333 21.1164 28.1228 20.9059V20.5199C28.1228 19.783 28.193 18.9059 27.7368 18.2743C27.3509 17.7129 26.6491 17.4673 26.0175 17.4673C24.8246 17.4673 23.7719 18.0638 23.5263 19.3269C23.4561 19.6076 23.2807 19.8883 23 19.8883L20.0175 19.5725C19.7719 19.5023 19.4912 19.3269 19.5614 18.9409C20.2632 15.2918 23.5263 14.2041 26.4737 14.2041C27.9825 14.2041 29.9474 14.5901 31.1404 15.748C32.6491 17.1515 32.5088 19.0462 32.5088 21.0813V25.8883C32.5088 27.3269 33.1053 27.9585 33.6667 28.7655C33.8772 29.0462 33.9123 29.3971 33.6667 29.5725C33 30.0988 31.8772 31.0813 31.2456 31.6076Z" fill="white"/>
</svg>
