<svg width="462" height="464" viewBox="0 0 462 464" fill="none" xmlns="http://www.w3.org/2000/svg">
<path d="M231.17 462.921C358.229 462.921 461.23 359.919 461.23 232.861C461.23 105.802 358.229 2.80078 231.17 2.80078C104.112 2.80078 1.11035 105.802 1.11035 232.861C1.11035 359.919 104.112 462.921 231.17 462.921Z" stroke="white" stroke-miterlimit="10"/>
<path d="M61.23 389.87C62.3015 389.87 63.17 389.002 63.17 387.93C63.17 386.859 62.3015 385.99 61.23 385.99C60.1586 385.99 59.29 386.859 59.29 387.93C59.29 389.002 60.1586 389.87 61.23 389.87Z" fill="white"/>
<path d="M262.64 9.04922C265.015 9.04922 266.94 7.12404 266.94 4.74922C266.94 2.37439 265.015 0.449219 262.64 0.449219C260.265 0.449219 258.34 2.37439 258.34 4.74922C258.34 7.12404 260.265 9.04922 262.64 9.04922Z" fill="white"/>
<path d="M387.32 405.5C388.999 405.5 390.36 404.139 390.36 402.46C390.36 400.781 388.999 399.42 387.32 399.42C385.641 399.42 384.28 400.781 384.28 402.46C384.28 404.139 385.641 405.5 387.32 405.5Z" fill="white"/>
</svg>
