<svg width="585" height="582" viewBox="0 0 585 582" fill="none" xmlns="http://www.w3.org/2000/svg">
<path d="M291.18 580.86C451.442 580.86 581.36 450.942 581.36 290.68C581.36 130.418 451.442 0.5 291.18 0.5C130.918 0.5 1 130.418 1 290.68C1 450.942 130.918 580.86 291.18 580.86Z" stroke="white" stroke-miterlimit="10"/>
<path d="M95.5799 78.7809C96.933 78.7809 98.0299 77.684 98.0299 76.3309C98.0299 74.9778 96.933 73.8809 95.5799 73.8809C94.2268 73.8809 93.1299 74.9778 93.1299 76.3309C93.1299 77.684 94.2268 78.7809 95.5799 78.7809Z" fill="white"/>
<path d="M578.92 335.801C581.913 335.801 584.34 333.374 584.34 330.381C584.34 327.388 581.913 324.961 578.92 324.961C575.927 324.961 573.5 327.388 573.5 330.381C573.5 333.374 575.927 335.801 578.92 335.801Z" fill="white"/>
<path d="M77.2597 491.48C79.3749 491.48 81.0897 489.766 81.0897 487.65C81.0897 485.535 79.3749 483.82 77.2597 483.82C75.1444 483.82 73.4297 485.535 73.4297 487.65C73.4297 489.766 75.1444 491.48 77.2597 491.48Z" fill="white"/>
</svg>
