<svg width="136" height="40" viewBox="0 0 136 40" fill="none" xmlns="http://www.w3.org/2000/svg">
<rect x="0.5" y="0.5" width="134.845" height="39" rx="6.5" fill="white"/>
<path d="M68.163 21.2802C65.811 21.2802 63.894 23.0692 63.894 25.5332C63.894 27.9822 65.811 29.7862 68.163 29.7862C70.516 29.7862 72.433 27.9822 72.433 25.5332C72.432 23.0692 70.515 21.2802 68.163 21.2802ZM68.163 28.1122C66.874 28.1122 65.763 27.0492 65.763 25.5342C65.763 24.0032 66.875 22.9562 68.163 22.9562C69.452 22.9562 70.563 24.0032 70.563 25.5342C70.563 27.0482 69.452 28.1122 68.163 28.1122ZM58.849 21.2802C56.497 21.2802 54.58 23.0692 54.58 25.5332C54.58 27.9822 56.497 29.7862 58.849 29.7862C61.202 29.7862 63.119 27.9822 63.119 25.5332C63.119 23.0692 61.202 21.2802 58.849 21.2802ZM58.849 28.1122C57.56 28.1122 56.449 27.0492 56.449 25.5342C56.449 24.0032 57.561 22.9562 58.849 22.9562C60.138 22.9562 61.249 24.0032 61.249 25.5342C61.25 27.0482 60.138 28.1122 58.849 28.1122ZM47.771 22.5862V24.3902H52.089C51.96 25.4052 51.622 26.1462 51.106 26.6612C50.478 27.2892 49.495 27.9822 47.771 27.9822C45.113 27.9822 43.035 25.8392 43.035 23.1812C43.035 20.5232 45.113 18.3802 47.771 18.3802C49.205 18.3802 50.252 18.9442 51.025 19.6692L52.298 18.3962C51.218 17.3652 49.785 16.5762 47.771 16.5762C44.13 16.5762 41.069 19.5402 41.069 23.1812C41.069 26.8222 44.13 29.7862 47.771 29.7862C49.736 29.7862 51.219 29.1412 52.378 27.9332C53.57 26.7412 53.941 25.0652 53.941 23.7122C53.941 23.2942 53.909 22.9072 53.844 22.5852H47.771V22.5862ZM93.079 23.9872C92.725 23.0372 91.645 21.2802 89.438 21.2802C87.247 21.2802 85.426 23.0042 85.426 25.5332C85.426 27.9172 87.231 29.7862 89.647 29.7862C91.596 29.7862 92.724 28.5942 93.192 27.9012L91.742 26.9342C91.259 27.6432 90.598 28.1102 89.647 28.1102C88.697 28.1102 88.02 27.6752 87.585 26.8212L93.272 24.4692L93.079 23.9872ZM87.279 25.4052C87.231 23.7612 88.552 22.9242 89.503 22.9242C90.244 22.9242 90.872 23.2952 91.082 23.8262L87.279 25.4052ZM82.656 29.5292H84.524V17.0282H82.656V29.5292ZM79.594 22.2312H79.53C79.111 21.7312 78.305 21.2802 77.291 21.2802C75.164 21.2802 73.215 23.1492 73.215 25.5502C73.215 27.9342 75.164 29.7872 77.291 29.7872C78.306 29.7872 79.111 29.3362 79.53 28.8212H79.594V29.4332C79.594 31.0602 78.724 31.9302 77.323 31.9302C76.179 31.9302 75.47 31.1092 75.18 30.4162L73.553 31.0932C74.02 32.2202 75.26 33.6062 77.323 33.6062C79.514 33.6062 81.367 32.3172 81.367 29.1752V21.5392H79.595V22.2312H79.594ZM77.452 28.1122C76.163 28.1122 75.084 27.0322 75.084 25.5502C75.084 24.0512 76.163 22.9562 77.452 22.9562C78.724 22.9562 79.723 24.0512 79.723 25.5502C79.723 27.0322 78.724 28.1122 77.452 28.1122ZM101.833 17.0282H97.362V29.5292H99.227V24.7932H101.832C103.9 24.7932 105.934 23.2962 105.934 20.9112C105.934 18.5262 103.901 17.0282 101.833 17.0282ZM101.881 23.0532H99.227V18.7682H101.881C103.276 18.7682 104.068 19.9232 104.068 20.9112C104.068 21.8792 103.276 23.0532 101.881 23.0532ZM113.413 21.2582C112.062 21.2582 110.663 21.8532 110.084 23.1722L111.74 23.8632C112.094 23.1722 112.754 22.9462 113.445 22.9462C114.41 22.9462 115.391 23.5252 115.407 24.5542V24.6832C115.069 24.4902 114.345 24.2012 113.461 24.2012C111.676 24.2012 109.858 25.1822 109.858 27.0152C109.858 28.6882 111.322 29.7652 112.962 29.7652C114.216 29.7652 114.908 29.2022 115.342 28.5422H115.406V29.5072H117.208V24.7142C117.209 22.4962 115.551 21.2582 113.413 21.2582ZM113.187 28.1092C112.577 28.1092 111.724 27.8032 111.724 27.0472C111.724 26.0822 112.786 25.7122 113.703 25.7122C114.522 25.7122 114.909 25.8892 115.407 26.1302C115.262 27.2892 114.265 28.1092 113.187 28.1092ZM123.77 21.5312L121.631 26.9512H121.567L119.347 21.5312H117.337L120.666 29.1062L118.768 33.3202H120.714L125.845 21.5312H123.77ZM106.964 29.5292H108.829V17.0282H106.964V29.5292Z" fill="black"/>
<path d="M47.4451 9.772C47.4451 10.61 47.1971 11.277 46.7001 11.775C46.1361 12.367 45.4001 12.663 44.4961 12.663C43.6301 12.663 42.8931 12.363 42.2881 11.763C41.6821 11.162 41.3791 10.418 41.3791 9.53C41.3791 8.641 41.6821 7.897 42.2881 7.297C42.8931 6.696 43.6301 6.396 44.4961 6.396C44.9261 6.396 45.3371 6.48 45.7271 6.647C46.1181 6.815 46.4311 7.038 46.6651 7.317L46.1381 7.845C45.7411 7.37 45.1941 7.133 44.4951 7.133C43.8631 7.133 43.3171 7.355 42.8561 7.799C42.3951 8.243 42.1651 8.82 42.1651 9.529C42.1651 10.238 42.3951 10.815 42.8561 11.259C43.3171 11.703 43.8631 11.925 44.4951 11.925C45.1651 11.925 45.7241 11.702 46.1711 11.255C46.4611 10.964 46.6291 10.559 46.6741 10.04H44.4951V9.319H47.4021C47.4321 9.476 47.4451 9.627 47.4451 9.772Z" fill="black"/>
<path d="M52.0552 7.26605H49.3232V9.16805H51.7872V9.88905H49.3232V11.7911H52.0552V12.5291H48.5522V6.52905H52.0552V7.26605Z" fill="black"/>
<path d="M55.306 12.5291H54.535V7.26605H52.859V6.52905H56.982V7.26605H55.306V12.5291Z" fill="black"/>
<path d="M59.965 12.5291V6.52905H60.736V12.5291H59.965Z" fill="black"/>
<path d="M64.1552 12.5291H63.3842V7.26605H61.7082V6.52905H65.8312V7.26605H64.1552V12.5291Z" fill="black"/>
<path d="M73.6359 11.754C73.0459 12.36 72.3129 12.663 71.4359 12.663C70.5589 12.663 69.8259 12.36 69.2369 11.754C68.6469 11.148 68.3529 10.406 68.3529 9.52904C68.3529 8.65204 68.6469 7.91004 69.2369 7.30404C69.8259 6.69804 70.5589 6.39404 71.4359 6.39404C72.3079 6.39404 73.0399 6.69904 73.6319 7.30804C74.2239 7.91704 74.5199 8.65704 74.5199 9.52904C74.5199 10.406 74.2249 11.148 73.6359 11.754ZM69.8059 11.251C70.2499 11.701 70.7929 11.925 71.4359 11.925C72.0789 11.925 72.6229 11.7 73.0659 11.251C73.5099 10.801 73.7329 10.227 73.7329 9.52904C73.7329 8.83104 73.5099 8.25704 73.0659 7.80704C72.6229 7.35704 72.0789 7.13304 71.4359 7.13304C70.7929 7.13304 70.2499 7.35804 69.8059 7.80704C69.3629 8.25704 69.1399 8.83104 69.1399 9.52904C69.1399 10.227 69.3629 10.801 69.8059 11.251Z" fill="black"/>
<path d="M75.602 12.5291V6.52905H76.54L79.456 11.1961H79.489L79.456 10.0401V6.52905H80.227V12.5291H79.422L76.371 7.63505H76.338L76.371 8.79105V12.5291H75.602Z" fill="black"/>
<path d="M47.4451 9.772C47.4451 10.61 47.1971 11.277 46.7001 11.775C46.1361 12.367 45.4001 12.663 44.4961 12.663C43.6301 12.663 42.8931 12.363 42.2881 11.763C41.6821 11.162 41.3791 10.418 41.3791 9.53C41.3791 8.641 41.6821 7.897 42.2881 7.297C42.8931 6.696 43.6301 6.396 44.4961 6.396C44.9261 6.396 45.3371 6.48 45.7271 6.647C46.1181 6.815 46.4311 7.038 46.6651 7.317L46.1381 7.845C45.7411 7.37 45.1941 7.133 44.4951 7.133C43.8631 7.133 43.3171 7.355 42.8561 7.799C42.3951 8.243 42.1651 8.82 42.1651 9.529C42.1651 10.238 42.3951 10.815 42.8561 11.259C43.3171 11.703 43.8631 11.925 44.4951 11.925C45.1651 11.925 45.7241 11.702 46.1711 11.255C46.4611 10.964 46.6291 10.559 46.6741 10.04H44.4951V9.319H47.4021C47.4321 9.476 47.4451 9.627 47.4451 9.772Z" stroke="black" stroke-width="0.2" stroke-miterlimit="10"/>
<path d="M52.0552 7.26605H49.3232V9.16805H51.7872V9.88905H49.3232V11.7911H52.0552V12.5291H48.5522V6.52905H52.0552V7.26605Z" stroke="black" stroke-width="0.2" stroke-miterlimit="10"/>
<path d="M55.306 12.5291H54.535V7.26605H52.859V6.52905H56.982V7.26605H55.306V12.5291Z" stroke="black" stroke-width="0.2" stroke-miterlimit="10"/>
<path d="M59.965 12.5291V6.52905H60.736V12.5291H59.965Z" stroke="black" stroke-width="0.2" stroke-miterlimit="10"/>
<path d="M64.1552 12.5291H63.3842V7.26605H61.7082V6.52905H65.8312V7.26605H64.1552V12.5291Z" stroke="black" stroke-width="0.2" stroke-miterlimit="10"/>
<path d="M73.6359 11.754C73.0459 12.36 72.3129 12.663 71.4359 12.663C70.5589 12.663 69.8259 12.36 69.2369 11.754C68.6469 11.148 68.3529 10.406 68.3529 9.52904C68.3529 8.65204 68.6469 7.91004 69.2369 7.30404C69.8259 6.69804 70.5589 6.39404 71.4359 6.39404C72.3079 6.39404 73.0399 6.69904 73.6319 7.30804C74.2239 7.91704 74.5199 8.65704 74.5199 9.52904C74.5199 10.406 74.2249 11.148 73.6359 11.754ZM69.8059 11.251C70.2499 11.701 70.7929 11.925 71.4359 11.925C72.0789 11.925 72.6229 11.7 73.0659 11.251C73.5099 10.801 73.7329 10.227 73.7329 9.52904C73.7329 8.83104 73.5099 8.25704 73.0659 7.80704C72.6229 7.35704 72.0789 7.13304 71.4359 7.13304C70.7929 7.13304 70.2499 7.35804 69.8059 7.80704C69.3629 8.25704 69.1399 8.83104 69.1399 9.52904C69.1399 10.227 69.3629 10.801 69.8059 11.251Z" stroke="black" stroke-width="0.2" stroke-miterlimit="10"/>
<path d="M75.602 12.5291V6.52905H76.54L79.456 11.1961H79.489L79.456 10.0401V6.52905H80.227V12.5291H79.422L76.371 7.63505H76.338L76.371 8.79105V12.5291H75.602Z" stroke="black" stroke-width="0.2" stroke-miterlimit="10"/>
<path fill-rule="evenodd" clip-rule="evenodd" d="M10.1834 7.49547C10.0652 7.76297 10 8.09074 10 8.47199V30.588C10 30.9701 10.0653 31.2979 10.1836 31.5653L22.2175 19.5296L10.1834 7.49547ZM10.8786 32.2845C11.3246 32.4753 11.9065 32.4148 12.541 32.055L26.6981 24.0102L22.9246 20.2367L10.8786 32.2845ZM27.6005 23.4984L32.042 20.975C33.439 20.18 33.439 18.881 32.042 18.087L27.5986 15.5621L23.6317 19.5296L27.6005 23.4984ZM26.6968 15.0497L12.541 7.006C11.9065 6.64542 11.3246 6.58526 10.8785 6.77639L22.9246 18.8225L26.6968 15.0497Z" fill="black"/>
<rect x="0.5" y="0.5" width="134.845" height="39" rx="6.5" stroke="black"/>
</svg>
