<svg width="138" height="54" viewBox="0 0 138 54" fill="none" xmlns="http://www.w3.org/2000/svg">
<g clip-path="url(#clip0_3154_114994)">
<path d="M53.1591 32.687C51.9761 32.687 51.5395 32.1693 51.5395 31.3437C51.5395 30.3922 52.0747 29.9025 53.469 29.9025H55.314V30.4482C55.314 31.9034 54.4126 32.687 53.1591 32.687ZM49.9481 31.4976C49.9481 32.631 50.61 33.8484 52.6803 33.8484C53.8774 33.8484 54.7084 33.3866 55.2858 32.659L55.483 33.6665H56.7787V28.2374C56.7787 25.9147 55.3844 25.5089 53.7225 25.5089C52.469 25.5089 50.8212 25.8727 50.4269 27.7477H52.0184C52.2155 27.0481 52.6944 26.6423 53.7084 26.6423C54.5394 26.6423 55.328 26.9361 55.328 28.2514V28.8251H53.5817C51.455 28.8251 49.9481 29.5247 49.9481 31.4976ZM45.7229 33.6665H47.2158V28.6852C47.2158 27.5238 47.9341 27.0061 48.8495 27.0061C49.1594 27.0061 49.4833 27.0201 49.8072 27.0761V25.6348C49.5255 25.5369 49.272 25.5229 49.0185 25.5229C48.1876 25.5229 47.5397 26.0126 47.2158 26.6983L47.0327 25.7328H45.7229V33.6665ZM98.6778 33.6665H100.171V28.6852C100.171 27.5238 100.889 27.0061 101.804 27.0061C102.114 27.0061 102.438 27.0201 102.762 27.0761V25.6348C102.48 25.5369 102.227 25.5229 101.973 25.5229C101.142 25.5229 100.495 26.0126 100.171 26.6983L99.9876 25.7328H98.6778V33.6665V33.6665ZM70.6089 27.0061V25.7048H68.9752V23.438L67.4401 23.6759V25.7048H66.2852V27.0061H67.4401V32.0573C67.4401 33.1907 67.8626 33.8763 69.5386 33.8763C69.9047 33.8763 70.454 33.8064 70.792 33.7084V32.5751C70.4399 32.673 70.116 32.687 69.8766 32.687C69.1724 32.687 68.9752 32.3512 68.9752 31.6236V27.0061H70.6089V27.0061ZM115.663 27.0061V25.7048H114.015V23.438L112.48 23.6759V25.7048H111.325V27.0061H112.48V32.0573C112.48 33.1907 112.902 33.8763 114.578 33.8763C114.945 33.8763 115.494 33.8064 115.832 33.7084V32.5751C115.48 32.673 115.156 32.687 114.916 32.687C114.212 32.687 114.015 32.3512 114.015 31.6236V27.0061H115.663V27.0061ZM93.4105 32.631C91.974 32.631 91.0444 31.6376 91.0444 29.6646C91.0444 27.7757 92.0021 26.7122 93.4246 26.7122C94.8611 26.7122 95.7062 27.7617 95.7062 29.7486C95.7062 31.6795 94.833 32.631 93.4105 32.631ZM120.113 32.631C118.677 32.631 117.747 31.6376 117.747 29.6646C117.747 27.7757 118.705 26.7122 120.127 26.7122C121.564 26.7122 122.409 27.7617 122.409 29.7486C122.423 31.6795 121.536 32.631 120.113 32.631ZM103.804 33.6665H105.269V29.077C105.269 27.7617 105.846 26.8382 107.227 26.8382C108.522 26.8382 108.917 27.3839 108.917 28.7272V33.6525H110.41V28.3074C110.41 26.4744 109.635 25.5229 107.889 25.5229C106.691 25.5229 105.804 25.9567 105.269 26.7122L105.086 25.7048H103.818V33.6665H103.804V33.6665ZM58.7081 33.6665H60.1588V29.077C60.1588 27.7617 60.7362 26.8382 62.1164 26.8382C63.4121 26.8382 63.8065 27.3839 63.8065 28.7272V33.6525H65.2993V28.3074C65.2993 26.4744 64.5247 25.5229 62.7784 25.5229C61.5812 25.5229 60.694 25.9567 60.1588 26.7122L59.9757 25.7048H58.7081V33.6665ZM125.409 33.6665H126.859V29.077C126.859 27.7617 127.437 26.8382 128.817 26.8382C130.113 26.8382 130.507 27.3839 130.507 28.7272V33.6525H132V28.3074C132 26.4744 131.225 25.5229 129.479 25.5229C128.282 25.5229 127.395 25.9567 126.859 26.7122L126.676 25.7048H125.409V33.6665ZM80.8196 22.9763V21.689H72.299V22.9763H75.7777V33.6525H77.3832V22.9763H80.8196ZM81.5943 33.6665H83.0449V29.077C83.0449 27.7617 83.6082 26.8382 85.0025 26.8382C86.2982 26.8382 86.6926 27.3839 86.6926 28.7272V33.6525H88.1854V28.3074C88.1854 26.4744 87.4108 25.5229 85.6645 25.5229C84.4673 25.5229 83.5801 25.9567 83.0449 26.7122V21.689H81.5943V33.6665ZM39.7373 28.923H42.5822V31.5816C41.7091 32.3372 40.3852 32.631 39.3148 32.631C36.6389 32.631 35.1179 30.91 35.1179 27.8876C35.1179 24.6834 36.7516 22.9063 39.2867 22.9063C40.7936 22.9063 41.9203 23.438 42.9907 24.4455L43.9343 23.3821C42.9766 22.3326 41.3288 21.563 39.4557 21.563C35.6812 21.563 33.4419 24.1796 33.4419 27.8456C33.4419 31.4417 35.3009 33.9323 39.343 33.9323C41.5682 33.9323 43.3005 32.9668 44.1596 32.0433V27.7057H39.7514V28.923H39.7373V28.923ZM93.5232 25.5089C90.8754 25.5089 89.4812 27.3279 89.4812 29.7206C89.4812 32.1973 90.8614 33.8344 93.3401 33.8344C95.8048 33.8344 97.3399 32.2252 97.3399 29.6786C97.3399 27.0621 95.9174 25.5089 93.5232 25.5089ZM120.226 25.5089C117.564 25.5089 116.184 27.3279 116.184 29.7206C116.184 32.1973 117.564 33.8344 120.043 33.8344C122.508 33.8344 124.043 32.2252 124.043 29.6786C124.043 27.0621 122.62 25.5089 120.226 25.5089Z" fill="white"/>
<path d="M17.6151 22.5521C19.4449 23.1355 20.8923 24.4786 21.8755 26.405C22.012 26.6628 22.0803 27.0426 21.9984 27.2733C22.0257 27.1783 22.0667 27.0969 22.094 27.0019C24.4426 19.676 16.1267 14.7514 11.9073 16.9627C11.8254 17.0034 11.7434 17.0441 11.6615 17.0984C6.24043 20.3001 4.41065 27.2326 7.4967 32.6727C5.28458 28.4807 10.2277 20.2187 17.6151 22.5521Z" fill="url(#paint0_radial_3154_114994)"/>
<path d="M13.1363 27.0019C13.7234 25.184 15.0753 23.746 17.0143 22.7692C17.2737 22.6335 17.6561 22.5657 17.8882 22.6471C17.7926 22.62 17.7107 22.5793 17.6151 22.5521C10.2414 20.2187 5.28459 28.4807 7.49671 32.6727C7.53768 32.7541 7.57865 32.8355 7.63327 32.9169C10.8695 38.3164 17.8336 40.1343 23.3093 37.0547C19.1035 39.2525 10.7876 34.3278 13.1363 27.0019Z" fill="url(#paint1_radial_3154_114994)"/>
<path d="M17.6151 31.4517C15.7854 30.8684 14.3379 29.5253 13.3548 27.5988C13.2182 27.3411 13.1499 26.9612 13.2319 26.7306C13.2045 26.8256 13.1636 26.907 13.1363 27.0019C10.7876 34.3278 19.1035 39.2524 23.323 37.0547C23.4049 37.014 23.4868 36.9733 23.5687 36.919C29.0035 33.7038 30.8332 26.7849 27.7335 21.3447C29.932 25.5232 24.9889 33.7852 17.6151 31.4517Z" fill="url(#paint2_radial_3154_114994)"/>
<path d="M22.094 27.0019C21.5069 28.8198 20.155 30.2579 18.216 31.2347C17.9565 31.3703 17.5742 31.4382 17.3421 31.3568C17.4376 31.3839 17.5196 31.4246 17.6152 31.4517C24.9889 33.7852 29.9457 25.5232 27.7199 21.3311C27.6789 21.2497 27.638 21.1683 27.5834 21.0869C24.3471 15.6875 17.383 13.8696 11.9073 16.9492C16.1268 14.7514 24.4427 19.676 22.094 27.0019Z" fill="url(#paint3_radial_3154_114994)"/>
</g>
<defs>
<radialGradient id="paint0_radial_3154_114994" cx="0" cy="0" r="1" gradientUnits="userSpaceOnUse" gradientTransform="translate(14.2521 24.5512) rotate(90) scale(8.12153 8.2522)">
<stop stop-color="white" stop-opacity="0"/>
<stop offset="1" stop-color="white"/>
</radialGradient>
<radialGradient id="paint1_radial_3154_114994" cx="0" cy="0" r="1" gradientUnits="userSpaceOnUse" gradientTransform="translate(15.1376 30.3476) rotate(90) scale(8.20316 8.17173)">
<stop stop-color="white" stop-opacity="0"/>
<stop offset="1" stop-color="white"/>
</radialGradient>
<radialGradient id="paint2_radial_3154_114994" cx="0" cy="0" r="1" gradientUnits="userSpaceOnUse" gradientTransform="translate(20.9827 29.4634) rotate(90) scale(8.11872 8.25672)">
<stop stop-color="white" stop-opacity="0"/>
<stop offset="1" stop-color="white"/>
</radialGradient>
<radialGradient id="paint3_radial_3154_114994" cx="0" cy="0" r="1" gradientUnits="userSpaceOnUse" gradientTransform="translate(20.0819 23.6562) rotate(90) scale(8.20316 8.17456)">
<stop stop-color="white" stop-opacity="0"/>
<stop offset="1" stop-color="white"/>
</radialGradient>
<clipPath id="clip0_3154_114994">
<rect width="138" height="54" fill="white"/>
</clipPath>
</defs>
</svg>
