<svg width="138" height="54" viewBox="0 0 138 54" fill="none" xmlns="http://www.w3.org/2000/svg">
<mask id="mask0_2924_87932" style="mask-type:luminance" maskUnits="userSpaceOnUse" x="13" y="6" width="113" height="42">
<path d="M125.881 6H13V48H125.881V6Z" fill="white"/>
</mask>
<g mask="url(#mask0_2924_87932)">
<path d="M20.7646 44.8232H13V29.2939H20.7646V44.8232Z" fill="white"/>
<path d="M20.7646 21.5292H13V6H20.7646V21.5292Z" fill="white"/>
</g>
<path d="M13 21.5293V29.2939H28.5292V44.8231H36.2938V29.2939V21.5293H13Z" fill="white"/>
<path d="M44.1919 21.5513H45.4693V25.6557H45.5027C45.9248 24.7226 47.0189 24.3339 47.952 24.3339C49.9959 24.3339 50.6291 25.5058 50.6291 27.1776V32.2706H49.3516V27.0054C49.3667 26.7949 49.3361 26.5836 49.262 26.386C49.1879 26.1884 49.072 26.0091 48.9222 25.8604C48.7725 25.7117 48.5924 25.5971 48.3943 25.5244C48.1961 25.4517 47.9847 25.4226 47.7743 25.4391C46.2247 25.4391 45.4749 26.4777 45.4749 27.8774V32.2706H44.1974V21.5513H44.1919Z" fill="white"/>
<path d="M57.2051 28.2551C56.7108 28.6161 55.7444 28.6328 54.889 28.7827C54.0337 28.9327 53.3228 29.2326 53.3228 30.1824C53.3228 31.0266 54.0448 31.3265 54.8279 31.3265C56.4942 31.3265 57.2051 30.2712 57.2051 29.5659V28.2551ZM59.2823 32.2429C59.0022 32.3967 58.685 32.4697 58.3659 32.454C57.705 32.454 57.2828 32.093 57.2828 31.2488C56.946 31.642 56.525 31.9545 56.051 32.1631C55.577 32.3718 55.0622 32.4712 54.5447 32.454C53.1284 32.454 51.9731 31.8208 51.9731 30.2712C51.9731 28.5106 53.2839 28.1329 54.6058 27.8774C56.0221 27.6053 57.2218 27.6941 57.2218 26.7333C57.2218 25.6225 56.3053 25.4392 55.4944 25.4392C54.3836 25.4392 53.6116 25.7724 53.5561 26.911H52.2786C52.3564 24.9838 53.8449 24.3062 55.5722 24.3062C56.9718 24.3062 58.4881 24.6227 58.4881 26.4445V30.4379C58.4881 31.0377 58.4881 31.3098 58.8935 31.3098C59.0264 31.3092 59.1581 31.2848 59.2823 31.2376V32.2318V32.2429Z" fill="white"/>
<path d="M63.5866 32.2708H62.2148L59.3267 24.4951H60.7541L62.9368 30.9767H62.9701L65.0862 24.4951H66.4248L63.5866 32.2708Z" fill="white"/>
<path d="M72.0233 28.2551C71.529 28.6161 70.5626 28.6328 69.7073 28.7827C68.8519 28.9327 68.141 29.2326 68.141 30.1824C68.141 31.0266 68.8631 31.3265 69.6462 31.3265C71.3124 31.3265 72.0233 30.2712 72.0233 29.5659V28.2551ZM74.095 32.2429C73.815 32.397 73.4977 32.47 73.1786 32.454C72.5176 32.454 72.0678 32.093 72.0678 31.2488C71.7311 31.6423 71.3102 31.9551 70.8362 32.1637C70.3621 32.3723 69.8472 32.4716 69.3296 32.454C67.9133 32.454 66.7581 31.8208 66.7581 30.2712C66.7581 28.5106 68.0688 28.1329 69.3907 27.8774C70.807 27.6053 72.0067 27.6941 72.0067 26.7333C72.0067 25.6225 71.0902 25.4392 70.2738 25.4392C69.1907 25.4392 68.391 25.7724 68.3354 26.911H67.058C67.1357 24.9838 68.6242 24.3062 70.3515 24.3062C71.7512 24.3062 73.2674 24.6227 73.2674 26.4445V30.4379C73.2674 31.0377 73.2674 31.3098 73.6729 31.3098C73.8076 31.3099 73.9412 31.2854 74.0672 31.2376V32.2318L74.095 32.2429Z" fill="white"/>
<path d="M75.9778 29.8159C76.0222 30.9601 77.0164 31.3211 78.0661 31.3211C78.8659 31.3211 79.9489 31.1433 79.9489 30.1603C79.9489 29.1772 78.6881 28.9995 77.4052 28.7162C76.1222 28.433 74.8614 28.0108 74.8614 26.4946C74.8614 24.9783 76.411 24.2729 77.7662 24.2729C79.4824 24.2729 80.8487 24.8284 80.9542 26.7112H79.6768C79.5879 25.717 78.7159 25.4004 77.8717 25.4004C77.0275 25.4004 76.2055 25.6115 76.2055 26.3946C76.2055 27.311 77.5607 27.461 78.7492 27.7498C80.0267 28.0331 81.293 28.4552 81.293 29.9714C81.293 31.8209 79.5601 32.4208 77.9606 32.4208C76.2166 32.4208 74.7392 31.7154 74.667 29.7882L75.9778 29.8159Z" fill="white"/>
<path d="M55.1334 44.834H53.8504V39.7132C53.8504 38.7468 53.595 37.9803 52.3397 37.9803C52.0703 37.9584 51.7993 37.9945 51.545 38.0864C51.2908 38.1782 51.0592 38.3235 50.866 38.5125C50.6727 38.7016 50.5223 38.9299 50.4249 39.1821C50.3275 39.4342 50.2854 39.7044 50.3014 39.9742V44.834H49.0239V39.7132C49.0239 38.7023 48.7074 37.9803 47.5577 37.9803C47.022 37.9852 46.5083 38.1942 46.1213 38.5647C45.7343 38.9351 45.5031 39.4392 45.4749 39.9742V44.834H44.1919V37.0583H45.3971V38.208H45.4249C45.6937 37.7869 46.0676 37.443 46.5098 37.2102C46.9519 36.9774 47.4471 36.8638 47.9465 36.8806C48.4002 36.8342 48.8566 36.9392 49.2444 37.1793C49.6322 37.4195 49.9296 37.7812 50.0903 38.208C50.353 37.799 50.7147 37.4628 51.1419 37.2308C51.5691 36.9988 52.048 36.8783 52.5341 36.8806C54.0893 36.8806 55.1279 37.5304 55.1279 39.1467V44.8674" fill="white"/>
<path d="M60.3875 45.0119C57.8993 45.0119 56.7218 43.2901 56.644 40.9074C56.5663 38.5247 58.1825 36.8474 60.3097 36.8474C63.0868 36.8474 63.9143 39.4301 63.8421 41.2907H57.9881C57.9437 42.6514 58.7102 43.8567 60.4208 43.8567C60.8817 43.8974 61.3413 43.767 61.7122 43.4904C62.083 43.2138 62.339 42.8104 62.4314 42.3571H63.6977C63.577 43.1372 63.1673 43.8433 62.5499 44.3352C61.9325 44.827 61.1526 45.0686 60.3653 45.0119M60.2098 37.9804C59.6206 37.9804 59.0555 38.2145 58.6388 38.6311C58.2222 39.0478 57.9881 39.6129 57.9881 40.2021H62.4703C62.4703 39.6129 62.2362 39.0478 61.8196 38.6311C61.4029 38.2145 60.8379 37.9804 60.2486 37.9804" fill="white"/>
<path d="M68.3408 45.0117C65.9414 45.0117 64.7473 43.1122 64.7473 40.9072C64.7473 38.7022 65.9248 36.8472 68.3075 36.8472C68.7956 36.8292 69.2808 36.9312 69.7204 37.1442C70.16 37.3573 70.5406 37.6748 70.829 38.0691H70.8624V34.0535H72.1453V44.8284H70.8624V43.7676H70.829C70.4069 44.6284 69.4127 45.0061 68.3408 45.0061M68.4463 37.9746C66.6968 37.9746 66.1081 39.4687 66.1081 40.9905C66.1081 42.5123 66.8745 43.8786 68.5408 43.8786C70.207 43.8786 70.9235 42.4013 70.9235 40.935C70.9235 39.4687 70.2292 37.9746 68.463 37.9746" fill="white"/>
<path d="M75.4781 44.8339H74.1951V37.0582H75.4781V44.8339ZM75.4781 35.6253H74.1951V34.0535H75.4781V35.6253Z" fill="white"/>
<path d="M83.4592 45.0118C82.7927 45.0118 82.3483 44.6508 82.3483 43.8066C82.0154 44.1944 81.6006 44.5036 81.1339 44.712C80.6672 44.9204 80.1601 45.0228 79.6491 45.0118C78.2328 45.0118 77.0664 44.3787 77.0664 42.8235C77.0664 41.0573 78.3772 40.6797 79.7102 40.4242C81.1264 40.152 82.3372 40.2409 82.3372 39.2745C82.3372 38.1637 81.4153 37.9748 80.6044 37.9748C79.4935 37.9748 78.716 38.3081 78.6549 39.4522H77.3719C77.4496 37.5194 78.9437 36.8418 80.7043 36.8418C82.1095 36.8418 83.6313 37.1584 83.6313 38.9857V43.0013C83.6313 43.6067 83.6313 43.8788 84.0368 43.8788C84.1719 43.8771 84.3055 43.8507 84.4311 43.8011V44.7952C84.1494 44.95 83.8301 45.0231 83.5091 45.0063M82.3483 40.7963C81.8485 41.1573 80.8821 41.174 80.0267 41.3517C79.1714 41.5294 78.4549 41.8016 78.4549 42.7569C78.4549 43.6011 79.177 43.9066 79.9656 43.9066C81.6319 43.9066 82.3483 42.8513 82.3483 42.1404V40.8019" fill="white"/>
<path d="M91.0846 47.9999C89.6184 47.9999 87.9299 47.4112 87.8522 45.7061H89.1352C89.1963 46.6391 90.3126 46.9724 91.1568 46.9724C92.8231 46.9724 93.4951 45.7672 93.4951 44.0121V43.5011H93.4673C93.2411 43.9449 92.892 44.3144 92.4617 44.5655C92.0314 44.8166 91.538 44.9387 91.0402 44.9174C88.713 44.9174 87.5522 43.0901 87.5522 40.9629C87.5522 39.1189 88.4576 36.8417 91.1568 36.8417C91.626 36.8236 92.091 36.9354 92.5006 37.1647C92.9103 37.394 93.2487 37.732 93.4784 38.1414V37.0306H94.6837V44.1676C94.6837 46.7058 93.5229 47.9999 91.0624 47.9999M91.1957 38.0026C89.5295 38.0026 88.8852 39.3466 88.8852 40.8407C88.8852 42.2459 89.3962 43.8121 91.1069 43.8121C92.8175 43.8121 93.4285 42.257 93.4285 40.7907C93.4285 39.4188 92.8231 38.0137 91.2068 38.0137" fill="white"/>
<path d="M97.8719 44.8342H96.5889V37.0585H97.7941V38.7248H97.8219C98.4217 37.514 99.2437 36.8975 100.549 36.8975H100.688V38.2138C98.6217 38.2138 97.8663 39.3912 97.8663 41.3685V44.8398" fill="white"/>
<path d="M104.753 45.0119C102.276 45.0119 100.966 43.2179 100.966 40.9352C100.966 38.6525 102.276 36.8474 104.753 36.8474C107.231 36.8474 108.53 38.6414 108.53 40.9352C108.53 43.2291 107.219 45.0119 104.742 45.0119M104.742 37.9804C103.398 37.9804 102.315 39.0357 102.315 40.9408C102.315 42.8458 103.426 43.8844 104.748 43.8844C106.07 43.8844 107.181 42.8292 107.181 40.9408C107.181 39.0524 106.07 37.9804 104.748 37.9804" fill="white"/>
<path d="M112.74 45.012C110.685 45.012 110.052 43.8345 110.052 42.1572V37.0308H111.307V42.3127C111.292 42.5239 111.323 42.7359 111.397 42.9342C111.472 43.1325 111.588 43.3123 111.738 43.4616C111.889 43.6108 112.069 43.7258 112.268 43.7988C112.467 43.8718 112.679 43.901 112.89 43.8845C114.445 43.8845 115.201 42.8459 115.201 41.4407V37.0308H116.484V44.8065H115.306V43.5957H115.278C115.033 44.048 114.664 44.4212 114.215 44.672C113.765 44.9227 113.254 45.0406 112.74 45.012Z" fill="white"/>
<path d="M119.772 47.8167H118.489V37.0307H119.772V38.086H119.799C120.221 37.2251 121.216 36.8474 122.288 36.8474C124.687 36.8474 125.881 38.7469 125.881 40.9519C125.881 43.1568 124.704 45.0119 122.321 45.0119C121.833 45.0299 121.348 44.9279 120.908 44.7148C120.468 44.5018 120.088 44.1843 119.799 43.79H119.772V47.8167ZM122.11 37.9749C120.388 37.9749 119.727 39.4523 119.727 40.9186C119.727 42.3848 120.421 43.8789 122.188 43.8789C123.954 43.8789 124.526 42.3848 124.526 40.863C124.526 39.3412 123.77 37.9804 122.11 37.9804" fill="white"/>
</svg>
