<svg width="48" height="48" viewBox="0 0 48 48" fill="none" xmlns="http://www.w3.org/2000/svg">
<path d="M0 21.3333C0 11.2767 0 6.24839 3.12419 3.12419C6.24839 0 11.2767 0 21.3333 0H26.6667C36.7233 0 41.7516 0 44.8758 3.12419C48 6.24839 48 11.2767 48 21.3333V26.6667C48 36.7233 48 41.7516 44.8758 44.8758C41.7516 48 36.7233 48 26.6667 48H21.3333C11.2767 48 6.24839 48 3.12419 44.8758C0 41.7516 0 36.7233 0 26.6667V21.3333Z" fill="url(#paint0_radial_2767_86902)"/>
<path d="M24.7743 4H22.4927V10.8043H24.7743V4Z" fill="#18FFC3"/>
<path d="M12.6134 10.0122L11 11.616L15.5424 16.1315L17.1558 14.5277L12.6134 10.0122Z" fill="#18FFC3"/>
<path d="M36.3105 11.6654L34.6972 10.0616L30.1548 14.5772L31.7681 16.181L36.3105 11.6654Z" fill="#18FFC3"/>
<path fill-rule="evenodd" clip-rule="evenodd" d="M26.72 18.4634H23.6556H20.5912L13.4409 25.7103L16.5053 28.8161L21.6127 23.6397V44H23.6556H25.6985V23.6397L30.8058 28.8161L33.8702 25.7103L26.72 18.4634Z" fill="white"/>
<defs>
<radialGradient id="paint0_radial_2767_86902" cx="0" cy="0" r="1" gradientUnits="userSpaceOnUse" gradientTransform="translate(66.5 -10.5) rotate(135.679) scale(89.4553)">
<stop stop-color="#491D8B"/>
<stop offset="1" stop-color="#8A3FFC"/>
</radialGradient>
</defs>
</svg>
