<svg width="138" height="54" viewBox="0 0 138 54" fill="none" xmlns="http://www.w3.org/2000/svg">
<path d="M118.435 20.6082C116.531 20.6049 114.803 22.1411 112.654 23.9297C110.681 25.5684 106.646 29.7115 102.965 32.0715C103.991 30.4598 106.464 26.9773 106.836 25.343C107.227 23.6299 105.971 22.9649 104.244 24.0243C102.361 25.1852 100.566 30.7642 97.9072 30.7642C97.4226 30.7642 97.0845 30.5275 97.089 29.9865C97.1003 28.3523 99.6305 25.0951 104.173 23.3031C104.877 23.0213 105.147 22.5671 105.151 22.176C105.151 22.0521 105.131 21.2247 103.735 21.2247C99.2496 21.2247 93.195 26.46 92.3464 30.4734C91.4729 31.3525 89.9007 32.6554 87.908 33.5052C90.1576 30.319 92.0939 27.7572 93.1094 25.0973C94.2815 21.9979 92.6135 21.5922 90.9003 22.4983C89.2323 23.3797 88.0601 25.8265 87.5642 26.7586C87.0796 27.6828 86.6626 28.8662 85.1974 30.0439C83.7323 31.2217 82.2108 31.0245 83.2837 28.7253C84.2451 26.6718 86.4056 24.518 88.2653 23.5262C88.7048 23.2896 89.0914 23.1497 89.0768 22.5569C89.0542 21.6158 87.9655 20.9633 86.4135 21.6327C84.3059 22.5456 83.2939 23.1543 81.5075 23.1543C80.0896 23.1543 79.3548 22.7711 78.7496 22.5198C77.9381 22.1749 77.3408 22.2943 77.0252 22.3957C76.7412 22.4927 76.2926 22.7677 75.9173 23.1791C75.6197 23.5059 75.3684 24.0413 75.3087 24.385C74.8917 26.8983 72.6917 31.4066 71.0755 31.4066C70.5176 31.4066 69.9033 31.2488 70.0611 29.9639C70.3203 27.8609 72.8562 25.0184 73.4423 24.4526C74.0283 23.8823 75.1329 23.4947 75.2118 22.8635C75.2794 22.3338 74.957 21.7421 73.9156 21.7421C70.4973 21.7421 65.9293 26.4802 65.474 30.736C64.9443 31.2319 64.3064 31.7165 63.5772 31.7165C61.9993 31.7165 61.5507 30.2401 61.6634 29.068C65.8155 25.3216 73.6914 16.969 73.9292 11.0238C73.9855 9.60371 73.2935 8.89365 72.1304 8.89365C69.2 8.89365 65.093 13.1764 62.5391 16.4787C59.3969 20.5451 57.4629 25.4557 56.7799 29.1784C54.4807 31.1733 53.5475 31.3062 52.5467 31.3062C51.1559 31.3062 50.6701 30.2998 50.7141 29.5086C54.5911 25.9855 61.331 17.5911 61.4662 13.4425C61.5068 12.214 60.8125 11.6347 59.5693 11.6347C56.9264 11.6347 53.1835 14.4241 50.4921 18.0972C47.8041 21.7714 46.0605 26.0925 45.5668 30.0102C43.555 31.818 42.0504 32.1854 40.8107 32.1854C40.0612 32.1854 39.5112 31.6579 39.3793 31.437C41.16 30.4091 45.2174 27.8305 45.2174 23.9872C45.2174 22.078 43.9292 21.2259 42.6478 21.2259C39.3883 21.2259 34.2625 25.2878 34.2963 30.8938C34.2963 30.993 34.3121 31.3378 34.3301 31.4629C32.8536 31.9701 31.837 32.4886 32.0715 33.5502C32.2856 34.5127 33.4803 34.4632 35.0356 33.9143C35.394 34.5792 36.9178 35.6759 39.0705 35.6759C41.985 35.6759 44.2098 34.293 45.968 32.7906C46.7063 34.5206 48.5265 35.4279 50.4312 35.4279C52.7417 35.4279 55.0296 33.8613 56.8329 32.4412C57.0425 33.7678 58.3916 35.8337 60.7257 35.8337C62.8558 35.8337 64.4833 34.5939 65.7693 33.2527C66.1074 34.6052 67.3472 35.6759 68.9634 35.6759C74.3541 35.6759 77.3768 28.0457 78.0734 25.3069C78.1635 24.9575 78.4971 24.8786 78.7271 24.9609C79.7301 25.3103 80.2215 25.4839 81.4883 25.3396C79.4371 26.9513 77.6293 29.7013 77.6293 31.7109C77.6293 33.717 79.3683 34.6491 80.6385 34.6491C81.9121 34.6491 83.5959 33.8264 84.7038 32.7895C84.4108 33.3801 84.0163 34.2828 83.3852 34.9196C82.2243 35.2385 78.8206 36.4671 76.6566 37.7823C74.6054 39.0334 72.6217 41.0215 72.6217 43.3094C72.6217 44.5334 73.6249 45.9692 75.9838 45.9692C79.9488 45.9692 82.7236 43.3771 86.4654 36.5696C89.5648 35.2701 91.4244 34.0563 92.6416 33.025C93.1758 33.956 94.2038 34.3888 95.2339 34.3888C96.7554 34.3888 97.6683 33.9492 98.8968 33.0667C98.7278 33.4837 98.4573 34.1104 98.0403 34.6671C95.8245 35.589 93.1635 36.8085 91.8009 37.6313C88.1661 39.8223 87.3603 41.7867 87.3603 43.3342C87.3603 44.2809 88.1718 45.9265 90.6208 45.9265C95.918 45.9265 99.1977 39.3388 101.335 35.6139C102.901 34.7832 105.14 33.2426 107.44 31.4776C107.361 31.7594 107.324 32.0524 107.324 32.3849C107.324 34.0383 108.823 35.5936 111.28 35.5936C116.134 35.5936 117.644 32.0163 117.585 28.155C117.562 26.8927 117.376 25.8874 117.359 25.4388C117.314 24.2599 117.706 23.6243 118.779 23.6243C119.861 23.6243 120.594 23.4327 120.594 22.5085C120.594 21.2293 119.681 20.6488 118.441 20.6488M69.5269 13.7964C69.6655 13.7964 69.723 13.9203 69.7185 14.1119C69.6768 15.6334 65.7625 21.7815 62.1413 25.3599C64.321 18.9526 68.667 13.7964 69.5235 13.7964M38.5723 29.219C38.7301 26.4881 40.8941 24.3839 41.7484 24.3839C42.0639 24.3839 42.2105 24.5642 42.2105 24.9395C42.2105 25.9133 40.9031 27.9488 38.578 29.219M56.9715 16.055C57.1349 16.055 57.2048 16.1823 57.1992 16.3897C57.171 17.5145 54.3533 22.6787 50.7366 26.2571C52.6368 20.4527 55.7294 16.0572 56.9692 16.0572M76.7569 42.4979C76.4797 42.4979 76.3399 42.3176 76.3399 42.0516C76.3399 40.3914 80.0254 38.4293 81.9583 37.7204C81.1242 39.0706 78.0632 42.4991 76.7535 42.4991M91.5067 42.5892C91.2362 42.5892 91.1348 42.4269 91.1348 42.161C91.1348 40.6958 94.4754 38.4259 96.406 37.7181C95.4029 39.4538 92.6135 42.587 91.5034 42.587M111.638 32.0378C111.406 32.0378 111.052 31.9814 111.052 31.2003C111.052 30.6323 110.782 30.0034 109.792 30.0034C109.657 30.0034 109.51 30.0147 109.343 30.0428C111.462 28.3635 113.119 26.5152 114.663 25.2641C114.348 29.0849 113.435 32.0378 111.631 32.0378" fill="white"/>
<path d="M109.776 19.9006C109.705 20.5712 108.958 20.8722 108.893 21.4718C108.855 21.8212 109.102 22.0522 109.537 22.0465C110.649 22.0353 113.629 20.3154 113.888 17.6398C114.018 16.2907 113.175 15.1197 111.705 15.1197C110.217 15.1197 108.871 16.515 108.746 17.6871C108.626 18.8333 109.845 19.2481 109.776 19.9006ZM32.3284 38.7698C31.3738 38.7202 30.9264 37.5808 30.9264 36.2001C30.9264 34.682 31.9069 31.3933 32.2957 29.8368C32.6902 28.2668 32.8593 25.7275 31.4392 24.2713C36.8378 22.0995 44.8286 14.7027 45.8542 13.0876C46.8798 11.4703 47.0827 9.41341 45.6626 8.38553C44.2538 7.35766 41.9433 8.69888 40.5796 10.6622C36.8265 16.0743 34.5611 18.7161 32.0027 20.9409C30.0078 22.6766 29.0385 22.7048 28.0805 22.8378C28.0805 22.8378 31.766 16.8046 33.141 14.9934C34.7922 12.8272 32.7578 12.018 30.7855 13.3863C28.4443 14.9941 26.0077 16.4582 23.4889 17.7705C16.7604 21.2419 15.1408 22.8422 15.1408 24.925C15.1408 25.8492 15.7832 27.0123 17.1357 27.0123C19.773 27.0123 22.381 22.299 23.658 21.1258C24.1539 20.6637 25.3069 19.6606 25.7543 19.6606C25.9008 19.6606 26.0023 19.7507 26.0023 20.0325C26.0023 20.9341 24.252 23.4925 21.5391 26.4229C17.6035 30.6719 14.3823 32.385 14.3823 35.1012C14.3823 36.8707 15.7122 37.8287 17.1504 37.8287C20.1821 37.8287 22.2109 33.7825 23.4236 31.7764C23.9082 30.9762 26.5827 25.9913 27.1462 24.9127C27.7323 25.2249 28.0929 25.8752 27.9013 27.1961C27.5407 29.5742 25.4218 32.4549 25.4218 36.4717C25.4218 39.7514 28.4536 40.7805 29.6708 40.7827C30.7956 40.7827 32.2833 40.3488 32.653 39.2229C32.6981 39.0538 32.6417 38.7686 32.3419 38.7495M121.963 20.1193C122.594 20.1193 123 20.525 123 21.1596C123 21.7907 122.594 22.1964 121.963 22.1964C121.326 22.1964 120.923 21.7907 120.923 21.1596C120.923 20.5216 121.324 20.1137 121.962 20.1137M121.962 21.9395C122.441 21.9395 122.744 21.6318 122.744 21.1505C122.744 20.6693 122.44 20.3661 121.962 20.3661C121.48 20.3661 121.176 20.6704 121.176 21.1483C121.176 21.6261 121.481 21.9372 121.959 21.9372M122.026 20.6186C122.187 20.6186 122.369 20.6975 122.369 20.9319C122.369 21.0875 122.267 21.1798 122.155 21.2249C122.227 21.3263 122.283 21.4706 122.369 21.4706H122.429C122.44 21.4819 122.451 21.5044 122.451 21.5495C122.451 21.6217 122.398 21.6735 122.293 21.6735C122.09 21.6735 122.068 21.4323 121.933 21.2565H121.812V21.651C121.79 21.6668 121.733 21.6735 121.688 21.6735C121.62 21.6735 121.564 21.6622 121.564 21.5608V20.6321C121.587 20.6209 121.632 20.6163 121.686 20.6163H122.024L122.026 20.6186ZM121.815 20.8102V21.0694H121.97C122.078 21.0694 122.139 21.0187 122.139 20.9341C122.139 20.8552 122.083 20.8102 121.992 20.8102H121.817H121.815Z" fill="white"/>
</svg>
