<svg width="569" height="1146" viewBox="0 0 569 1146" fill="none" xmlns="http://www.w3.org/2000/svg">
  <path d="M25.139 21.141c7.358 4.492 15.456 8.798 24.11 10.048 7.867 1.111 16.66-.926 21.704-7.084 5.044-6.159 4.674-16.715-1.99-21.068-6.34-4.167-15.688-.88-19.621 5.603-3.934 6.482-3.286 15.048-.14 21.947 10.83 23.845 40.725 42.088 62.012 55.33 25.36 15.79 52.479 28.477 79.412 41.21 103.384 48.941 207.97 101.725 287.104 184.328 32.024 33.43 59.606 71.814 75.756 115.199 22.075 59.359 19.529 123.256-14.531 177.152-30.358 48.061-74.182 87.649-125.319 112.513-9.625 4.677-19.714 8.89-30.358 9.585-10.643.694-22.074-2.732-28.738-11.066-6.664-8.335-6.941-21.947 1.111-28.985 8.422-7.409 22.676-4.723 29.941 3.797 7.266 8.519 8.377 20.974 5.6 31.809-2.823 10.835-9.024 20.419-15.225 29.772a1461.714 1461.714 0 0 1-47.712 67.37c-15.688 20.882-30.589 38.662-37.022 64.591-11.43 45.978 1.759 109.874 27.072 149.738 44.658 70.34 150.448 101.82 229.258 97.56" stroke="url(#line)" stroke-width="3" stroke-miterlimit="10"/>
  <path d="M556.054 1119.81c3.115 2.71 5.252 6.45 5.802 10.35.55 3.9-.489 7.96-2.871 10.49-2.382 2.54-6.107 3.53-9.487 4.18-3.38.67-6.413.99-9.671.45-3.237-.53-6.698-1.94-8.734-4.59-2.036-2.63-2.646-6.51-1.567-9.68 1.058-3.15 3.787-5.62 6.596-8.37 2.83-2.75 5.741-5.8 9.243-6.48 3.502-.69 7.574.97 10.689 3.65Z" fill="#6929C4"/>
  <path d="M538.851 1131.07c.125-.34.208-.57.292-.83.501.05.752-.3 1.016-.54a78.357 78.357 0 0 0 3.021-2.91c.292-.29.487-.65.738-.99.626-.85 1.364-1.63 2.283-2.32.25-.18.459-.39.682-.58.32.08.626.15.919.23.431.13.64.44.863.72.195.25.348.53.501.79.139.24-.181.69-.613.77-.682.13-1.044.52-1.392.92-.306.35-.626.72-.932 1.06-.724.86-1.448 1.72-2.186 2.58-.153.18-.32.34-.501.5-.446.39-.891.78-1.364 1.2.306.29.57.53.835.77l.626.63c.71.71 1.406 1.42 2.144 2.12 1.337 1.26 2.534 2.59 3.453 4.04.208.33.334.7.445 1.06.028.1-.056.28-.167.32-.125.04-.334-.01-.473-.05-.153-.06-.265-.17-.418-.24-.404-.22-.807-.45-1.225-.66-.835-.42-1.462-1-1.963-1.63-.779-.98-1.656-1.89-2.575-2.8-.668-.65-1.295-1.32-1.949-1.98-.418-.42-.891-.81-1.309-1.23-.292-.35-.543-.7-.751-.95Z" fill="#fff"/>
  <path d="M541.428 358.199c3.732.922 6.598 5.331 8.614 9.758 2.031 4.394 3.225 8.773 2.734 13.016-.49 4.243-2.652 8.315-5.866 11.668-3.205 3.378-7.463 6.037-12.291 6.721-4.803.675-10.161-.66-13.428-3.957-3.267-3.296-4.418-8.565-5.329-13.786-.911-5.22-1.582-10.393.584-13.594 2.142-3.193 7.146-4.423 11.918-6.324 4.796-1.91 9.356-4.432 13.064-3.502Z" fill="#6929C4"/>
  <path d="M535.977 388.598c-1.126.577-2.319.39-3.011-.416a8.799 8.799 0 0 1-1.403-2.253c-.563-1.26-1.15-2.532-1.68-3.806-.193-.452-.248-.937-.409-1.401-.468-1.358-.962-2.686-1.43-4.045-.194-.552-.316-1.113-.454-1.667-.183-.719-.317-1.457-.516-2.17a35.003 35.003 0 0 0-.712-2.236c-.256-.711.149-1.334.571-1.963.17-.248.481-.327.821-.236.748.217 1.533.38 2.282.596 1.268.381 2.526.786 3.801 1.184.426.119.859.256 1.321.32 1.097.184 2.076.554 3.052.967.797.34 1.613.632 2.452.936.549.192 1.185 1.344.947 1.861a.837.837 0 0 1-.404.379c-1.362.507-2.102 1.542-2.979 2.468-.686.731-1.396 1.451-2.089 2.165-.105.121-.233.232-.338.353-.588.693-1.091 1.455-1.785 2.067-.583.509-.481 1.017-.434 1.484.085.858.359 1.664.804 2.424.551.982 1.045 1.965 1.593 2.989Zm-3.318-8.338c1.161-1.42 2.183-2.707 3.253-3.971.525-.608 1.12-1.182 1.684-1.785.174-.189.302-.4.469-.606-.217-.119-.34-.193-.48-.26-.957-.461-2.119-.518-3.168-.821-.961-.277-1.943-.505-2.77-.975-.434-.237-.933-.348-1.607-.371.896 2.955 1.74 5.828 2.619 8.789Z" fill="#fff"/>
  <path d="M26.052 8.312c2.515 1.944 3.987 5.21 4.764 8.695.777 3.506.858 7.252-.86 9.837-1.696 2.584-5.192 3.987-8.79 5.41-3.619 1.422-7.32 2.824-10.1 1.802-2.78-1.021-4.64-4.487-6.808-7.913C2.07 22.737-.444 19.37.067 16.546c.511-2.845 4.048-5.148 7.299-6.971 3.25-1.824 6.174-3.126 9.425-3.486 3.23-.341 6.767.28 9.261 2.223Z" fill="#6929C4"/>
  <path d="M23.227 26.153c-.563-.394-1.103-.692-1.52-1.076-.417-.384-.482-.921-.585-1.435a27.52 27.52 0 0 1-.316-1.83c-.05-.409-.262-.71-.696-.915-1.442-.673-2.874-1.363-4.286-2.029a1.18 1.18 0 0 0-.664.544c-.245.433-.551.85-.81 1.287a4.102 4.102 0 0 0-.403.934c-.174.62-.32 1.234-.165 1.852.24.933.376 1.903.62 2.85.175.642.09 1.271-.298 1.896-1.078-.204-1.807-.764-2.01-1.589-.198-.81-.343-1.634-.556-2.442-.243-1.005-.445-2.018-.824-2.992-.409-1.039-.698-2.12-1.039-3.174-.115-.38-.162-.776-.24-1.18-.129-.754-.203-1.521-.373-2.266-.116-.511-.239-1.05-.802-1.385.269-.265.549-.546.818-.811a.848.848 0 0 1 .147-.106c.53-.252 1.645-.012 1.906.379a.862.862 0 0 0 .354.296c.343.125.65.273.827.552a.593.593 0 0 0 .2.187c.764.523 1.517 1.063 2.28 1.585.054.046.142.055.3.12.187-.375.393-.727.498-1.085.159-.559.476-1.052.882-1.537.28-.34.5-.694.806-1.112.425-.083.672-.444.818-.81.064-.16.148-.296.29-.3.518.013 1.067-.155 1.57.035.265.1.436.22.448.464.04.615.203 1.202.46 1.768.15.343.089.764.225 1.11.353.921.369 1.934.681 2.864.18.54.36 1.08.513 1.625.178.657.333 1.333.51 1.99.16.573.377 1.147.523 1.724.203.767.41 1.547.558 2.326.056.307-.028.63-.258.944-.139.206-.22.413-.39.742Zm-4.47-12.642-.145-.01c-.177.229-.388.437-.52.67-.322.538-.614 1.083-.935 1.621-.217.369-.26.683.118.96.522.404 1.006.83 1.648 1.135.387.187.728.429 1.208.712-.271-.94-.515-1.756-.73-2.578-.244-.815-.438-1.671-.644-2.51Zm-4.745 4.13c-.335-.272-.68-.528-.986-.806a3.552 3.552 0 0 0-1.133-.7c.24 1.31.653 2.493 1.115 3.767a93.27 93.27 0 0 0 1.004-2.261Z" fill="#fff"/>
  <defs>
    <linearGradient id="line" x1="-390" y1="-1168" x2="476" y2="1341" gradientUnits="userSpaceOnUse">
      <stop offset="0%" stop-color="#BE95FF">
        <animate attributeName="stop-color" values="#001141; #01FF89; #6929C4" dur="4s" repeatCount="indefinite"/>
      </stop>
      <stop offset="50%" stop-color="#001141">
        <animate attributeName="stop-color" values="#001141; #BE95FF; #001141" dur="4s" repeatCount="indefinite"/>
      </stop>
      <stop offset="100%" stop-color="#001141">
        <animate attributeName="stop-color" values="#BE95FF; #001141; #BE95FF" dur="4s" repeatCount="indefinite"/>
      </stop>
    </linearGradient>
  </defs>
</svg>
