<svg width="175" height="48" viewBox="0 0 175 48" fill="none" xmlns="http://www.w3.org/2000/svg">
<path d="M79.3116 16.9058H70.6402V39H64.3842V16.9058H55.7524V10.9269H79.3116V16.9058Z" fill="#1C0F30"/>
<path d="M87.144 39H81.1255V19.3211H87.144V39ZM81.6403 15.7972C80.954 15.1108 80.6108 14.2793 80.6108 13.3027C80.6108 12.326 80.954 11.4945 81.6403 10.8082C82.3266 10.1218 83.1449 9.77869 84.0952 9.77869C85.0719 9.77869 85.9034 10.1218 86.5897 10.8082C87.3024 11.4945 87.6588 12.326 87.6588 13.3027C87.6588 14.2793 87.3024 15.1108 86.5897 15.7972C85.9034 16.4835 85.0719 16.8266 84.0952 16.8266C83.1449 16.8266 82.3266 16.4835 81.6403 15.7972Z" fill="#1C0F30"/>
<path d="M95.8612 39H89.8427V19.3211H95.584V21.5781C96.0591 20.7334 96.8378 20.047 97.9201 19.5191C99.0288 18.9912 100.137 18.7272 101.246 18.7272C104.071 18.7272 106.011 19.7567 107.067 21.8156C108.492 19.7567 110.525 18.7272 113.164 18.7272C115.223 18.7272 116.952 19.3607 118.351 20.6278C119.75 21.8684 120.45 23.7426 120.45 26.2503V39H114.629V27.5965C114.629 26.6199 114.365 25.8279 113.837 25.2208C113.309 24.5873 112.531 24.2705 111.501 24.2705C110.472 24.2705 109.667 24.6005 109.086 25.2604C108.505 25.9203 108.215 26.7122 108.215 27.6361V39H102.276V27.5965C102.276 26.6199 101.998 25.8279 101.444 25.2208C100.916 24.5873 100.137 24.2705 99.108 24.2705C98.1049 24.2705 97.313 24.6005 96.7323 25.2604C96.1515 25.9203 95.8612 26.7254 95.8612 27.6757V39Z" fill="#1C0F30"/>
<path d="M128.502 26.8046H136.382C136.329 25.9071 135.972 25.1284 135.313 24.4685C134.679 23.8086 133.716 23.4786 132.422 23.4786C131.261 23.4786 130.337 23.8218 129.65 24.5081C128.964 25.1944 128.581 25.9599 128.502 26.8046ZM136.817 31.9124L141.846 33.3378C141.344 35.1592 140.302 36.6638 138.718 37.8517C137.134 39.0132 135.154 39.5939 132.778 39.5939C129.928 39.5939 127.499 38.6436 125.493 36.743C123.513 34.8425 122.523 32.2952 122.523 29.1012C122.523 26.0391 123.487 23.5446 125.414 21.6177C127.367 19.6907 129.677 18.7272 132.343 18.7272C135.405 18.7272 137.807 19.6247 139.549 21.4197C141.318 23.1883 142.202 25.6564 142.202 28.824C142.202 29.8271 142.162 30.4474 142.083 30.685H128.383C128.436 31.7672 128.898 32.6779 129.769 33.417C130.64 34.1297 131.67 34.4861 132.858 34.4861C134.89 34.4861 136.21 33.6282 136.817 31.9124Z" fill="#1C0F30"/>
<path d="M150.501 39H144.483V10.333H150.501V39Z" fill="#1C0F30"/>
<path d="M161.949 46.5626H155.614L160.088 36.3471L151.813 19.3211H158.544L163.335 29.8535L167.691 19.3211H174.065L161.949 46.5626Z" fill="#1C0F30"/>
<path d="M0 21.3333C0 11.2767 0 6.24839 3.12419 3.12419C6.24839 0 11.2767 0 21.3333 0H26.6667C36.7233 0 41.7516 0 44.8758 3.12419C48 6.24839 48 11.2767 48 21.3333V26.6667C48 36.7233 48 41.7516 44.8758 44.8758C41.7516 48 36.7233 48 26.6667 48H21.3333C11.2767 48 6.24839 48 3.12419 44.8758C0 41.7516 0 36.7233 0 26.6667V21.3333Z" fill="url(#paint0_radial_32_212)"/>
<path d="M25.1192 4H22.8376V10.8043H25.1192V4Z" fill="#18FFC3"/>
<path d="M12.9581 10.0122L11.3447 11.616L15.8871 16.1315L17.5005 14.5277L12.9581 10.0122Z" fill="#18FFC3"/>
<path d="M36.6553 11.6654L35.042 10.0616L30.4996 14.5772L32.1129 16.181L36.6553 11.6654Z" fill="#18FFC3"/>
<path fill-rule="evenodd" clip-rule="evenodd" d="M27.0647 18.4634H24.0003H20.9359L13.7856 25.7103L16.85 28.8161L21.9574 23.6397V44H24.0003H26.0432V23.6397L31.1505 28.8161L34.2149 25.7103L27.0647 18.4634Z" fill="white"/>
<defs>
<radialGradient id="paint0_radial_32_212" cx="0" cy="0" r="1" gradientUnits="userSpaceOnUse" gradientTransform="translate(66.5 -10.5) rotate(135.679) scale(89.4553)">
<stop stop-color="#491D8B"/>
<stop offset="1" stop-color="#8A3FFC"/>
</radialGradient>
</defs>
</svg>
