<svg width="183" height="48" viewBox="0 0 183 48" fill="none" xmlns="http://www.w3.org/2000/svg">
<path d="M87.5592 16.9058H78.8878V39H72.6318V16.9058H64V10.9269H87.5592V16.9058Z" fill="white"/>
<path d="M95.3916 39H89.3731V19.3211H95.3916V39ZM89.8878 15.7972C89.2015 15.1108 88.8584 14.2793 88.8584 13.3027C88.8584 12.326 89.2015 11.4945 89.8878 10.8082C90.5742 10.1218 91.3925 9.77869 92.3427 9.77869C93.3194 9.77869 94.1509 10.1218 94.8372 10.8082C95.55 11.4945 95.9063 12.326 95.9063 13.3027C95.9063 14.2793 95.55 15.1108 94.8372 15.7972C94.1509 16.4835 93.3194 16.8266 92.3427 16.8266C91.3925 16.8266 90.5742 16.4835 89.8878 15.7972Z" fill="white"/>
<path d="M104.109 39H98.0902V19.3211H103.832V21.5781C104.307 20.7334 105.085 20.047 106.168 19.5191C107.276 18.9912 108.385 18.7272 109.494 18.7272C112.318 18.7272 114.258 19.7567 115.314 21.8156C116.74 19.7567 118.772 18.7272 121.412 18.7272C123.471 18.7272 125.2 19.3607 126.599 20.6278C127.998 21.8684 128.697 23.7426 128.697 26.2503V39H122.877V27.5965C122.877 26.6199 122.613 25.8279 122.085 25.2208C121.557 24.5873 120.778 24.2705 119.749 24.2705C118.719 24.2705 117.914 24.6005 117.334 25.2604C116.753 25.9203 116.462 26.7122 116.462 27.6361V39H110.523V27.5965C110.523 26.6199 110.246 25.8279 109.692 25.2208C109.164 24.5873 108.385 24.2705 107.356 24.2705C106.352 24.2705 105.561 24.6005 104.98 25.2604C104.399 25.9203 104.109 26.7254 104.109 27.6757V39Z" fill="white"/>
<path d="M136.75 26.8046H144.629C144.576 25.9071 144.22 25.1284 143.56 24.4685C142.927 23.8086 141.963 23.4786 140.67 23.4786C139.508 23.4786 138.584 23.8218 137.898 24.5081C137.212 25.1944 136.829 25.9599 136.75 26.8046ZM145.065 31.9124L150.093 33.3378C149.592 35.1592 148.549 36.6638 146.965 37.8517C145.381 39.0132 143.402 39.5939 141.026 39.5939C138.175 39.5939 135.747 38.6436 133.74 36.743C131.761 34.8425 130.771 32.2952 130.771 29.1012C130.771 26.0391 131.734 23.5446 133.661 21.6177C135.615 19.6907 137.924 18.7272 140.59 18.7272C143.652 18.7272 146.055 19.6247 147.797 21.4197C149.565 23.1883 150.45 25.6564 150.45 28.824C150.45 29.8271 150.41 30.4474 150.331 30.685H136.631C136.684 31.7672 137.146 32.6779 138.017 33.417C138.888 34.1297 139.917 34.4861 141.105 34.4861C143.138 34.4861 144.458 33.6282 145.065 31.9124Z" fill="white"/>
<path d="M158.749 39H152.73V10.333H158.749V39Z" fill="white"/>
<path d="M170.197 46.5626H163.862L168.336 36.3471L160.06 19.3211H166.792L171.583 29.8535L175.938 19.3211H182.313L170.197 46.5626Z" fill="white"/>
<path d="M0 21.3333C0 11.2767 0 6.24839 3.12419 3.12419C6.24839 0 11.2767 0 21.3333 0H26.6667C36.7233 0 41.7516 0 44.8758 3.12419C48 6.24839 48 11.2767 48 21.3333V26.6667C48 36.7233 48 41.7516 44.8758 44.8758C41.7516 48 36.7233 48 26.6667 48H21.3333C11.2767 48 6.24839 48 3.12419 44.8758C0 41.7516 0 36.7233 0 26.6667V21.3333Z" fill="url(#paint0_radial_32_212)" fill-opacity="0.2"/>
<path d="M25.1192 4H22.8376V10.8043H25.1192V4Z" fill="#18FFC3"/>
<path d="M12.9581 10.0122L11.3447 11.616L15.8871 16.1315L17.5005 14.5277L12.9581 10.0122Z" fill="#18FFC3"/>
<path d="M36.6553 11.6654L35.042 10.0616L30.4996 14.5772L32.1129 16.181L36.6553 11.6654Z" fill="#18FFC3"/>
<path fill-rule="evenodd" clip-rule="evenodd" d="M27.0647 18.4634H24.0003H20.9359L13.7856 25.7103L16.85 28.8161L21.9574 23.6397V44H24.0003H26.0432V23.6397L31.1505 28.8161L34.2149 25.7103L27.0647 18.4634Z" fill="white"/>
<defs>
<radialGradient id="paint0_radial_32_212" cx="0" cy="0" r="1" gradientUnits="userSpaceOnUse" gradientTransform="translate(66.5 -10.5) rotate(135.679) scale(89.4553)">
<stop stop-color="white"/>
<stop offset="1" stop-color="#F7F1FF"/>
</radialGradient>
</defs>
</svg>
