<svg width="138" height="54" viewBox="0 0 138 54" fill="none" xmlns="http://www.w3.org/2000/svg">
<path d="M36.562 13.8551L47.4695 37.2483C47.4706 37.2507 47.4711 37.2533 47.4709 37.2559C47.4707 37.2585 47.4698 37.2611 47.4684 37.2632C47.467 37.2654 47.4651 37.2672 47.4628 37.2685C47.4605 37.2697 47.4579 37.2704 47.4553 37.2703H41.2023C41.1923 37.2703 41.1826 37.2675 41.1743 37.2622C41.166 37.257 41.1594 37.2495 41.1553 37.2406L36.8765 28.0606C36.8638 28.0333 36.851 28.0333 36.8381 28.0606L35.2892 31.3818C35.2832 31.3945 35.2802 31.4084 35.2802 31.4224C35.2802 31.4364 35.2832 31.4502 35.2892 31.4629L37.9837 37.244C37.985 37.2469 37.9856 37.25 37.9853 37.2531C37.9851 37.2562 37.9841 37.2592 37.9825 37.2618C37.9808 37.2644 37.9785 37.2666 37.9758 37.2681C37.973 37.2695 37.97 37.2703 37.9669 37.2703H31.7182C31.7091 37.2703 31.7003 37.2678 31.6926 37.263C31.685 37.2582 31.6789 37.2513 31.675 37.2432L27.3911 28.0606C27.3787 28.0338 27.3663 28.0338 27.354 28.0606C26.6339 29.6105 25.9116 31.1581 25.187 32.7034C25.1858 32.7063 25.1137 32.8632 24.9705 33.174C24.4695 34.2612 23.8815 35.27 23.2063 36.2002C22.8308 36.7172 22.3838 37.2048 21.8653 37.6628C20.9043 38.5117 19.7952 39.0059 18.538 39.1453C18.2766 39.1744 17.9897 39.185 17.6771 39.1773C16.4041 39.1456 15.1784 38.8793 14 38.3784C14 38.3712 14 38.364 14 38.3569C14.8 36.6566 15.5949 34.9524 16.3848 33.2443C16.3896 33.2341 16.3979 33.226 16.4083 33.2217C16.4187 33.2174 16.4303 33.2172 16.4409 33.221C17.167 33.4835 17.9136 33.6053 18.6808 33.5863C18.9919 33.5786 19.2782 33.5533 19.5396 33.5104C20.3128 33.3845 20.9959 33.0734 21.5888 32.577C22.0377 32.2012 22.446 31.7365 22.8138 31.183C23.376 30.3373 23.8708 29.4535 24.2984 28.5316C24.8442 27.3543 25.3906 26.1793 25.9375 25.0063C25.9423 24.9961 25.9448 24.9849 25.9448 24.9735C25.9448 24.9622 25.9423 24.951 25.9375 24.9408L21.899 16.2766C21.8975 16.2737 21.8967 16.2705 21.8966 16.2672C21.8964 16.264 21.8969 16.2607 21.8979 16.2577C21.899 16.2546 21.9007 16.2518 21.9029 16.2495C21.905 16.2471 21.9077 16.2452 21.9106 16.2439L27.0378 13.8504C27.0418 13.8485 27.0461 13.8475 27.0504 13.8473C27.0548 13.8471 27.0592 13.8478 27.0633 13.8493C27.0674 13.8509 27.0712 13.8532 27.0745 13.8562C27.0777 13.8592 27.0804 13.8628 27.0822 13.8668L33.8399 28.3625C33.8474 28.3783 33.8548 28.3783 33.8623 28.3625L35.4272 25.005C35.4306 24.998 35.4324 24.9903 35.4324 24.9825C35.4325 24.9747 35.4309 24.9669 35.4276 24.9597L31.3852 16.2831C31.3833 16.279 31.3822 16.2745 31.382 16.2699C31.3818 16.2654 31.3826 16.2609 31.3841 16.2566C31.3857 16.2524 31.3881 16.2485 31.3911 16.2452C31.3942 16.2419 31.3979 16.2392 31.402 16.2374L36.5331 13.8448C36.5384 13.8424 36.5444 13.8421 36.5498 13.8441C36.5552 13.846 36.5596 13.85 36.562 13.8551Z" fill="white"/>
<path d="M112.095 15.7114V21.0284C112.095 21.0347 112.098 21.0407 112.102 21.0452C112.107 21.0496 112.113 21.0521 112.119 21.0521H114.355C114.365 21.0521 114.374 21.0561 114.381 21.0631C114.388 21.0702 114.392 21.0797 114.392 21.0897V23.8644C114.392 23.8675 114.392 23.8706 114.39 23.8735C114.389 23.8764 114.387 23.879 114.385 23.8812C114.383 23.8834 114.38 23.8851 114.377 23.8863C114.375 23.8875 114.372 23.8881 114.368 23.8881H112.117C112.114 23.8881 112.111 23.8887 112.109 23.8898C112.106 23.8909 112.104 23.8925 112.102 23.8945C112.1 23.8965 112.098 23.8988 112.097 23.9014C112.096 23.9041 112.095 23.9069 112.095 23.9097V37.2551C112.095 37.2591 112.094 37.2629 112.091 37.2657C112.088 37.2686 112.084 37.2702 112.08 37.2702H107.584C107.581 37.2702 107.577 37.2694 107.573 37.268C107.57 37.2665 107.567 37.2644 107.564 37.2617C107.559 37.2563 107.556 37.2489 107.556 37.2413V23.9119C107.556 23.9056 107.553 23.8995 107.549 23.8951C107.544 23.8906 107.538 23.8881 107.532 23.8881H106.134C106.131 23.8881 106.128 23.8875 106.125 23.8863C106.122 23.8851 106.12 23.8834 106.118 23.8812C106.115 23.879 106.114 23.8764 106.112 23.8735C106.111 23.8706 106.111 23.8675 106.111 23.8644V21.0897C106.111 21.0847 106.112 21.0799 106.113 21.0753C106.115 21.0708 106.118 21.0666 106.122 21.0631C106.125 21.0596 106.129 21.0569 106.134 21.055C106.138 21.0531 106.143 21.0521 106.148 21.0521L107.531 21.0496C107.537 21.0496 107.543 21.0472 107.547 21.0431C107.551 21.039 107.553 21.0334 107.553 21.0276L107.556 17.8357C107.556 17.828 107.558 17.8204 107.562 17.8139C107.566 17.8074 107.572 17.8023 107.579 17.799L112.075 15.6989C112.078 15.6979 112.08 15.6974 112.082 15.6975C112.085 15.6977 112.087 15.6984 112.089 15.6996C112.091 15.7009 112.092 15.7026 112.094 15.7047C112.095 15.7067 112.095 15.7091 112.095 15.7114Z" fill="white"/>
<path d="M121.703 15.7115V21.0285C121.703 21.0348 121.706 21.0408 121.71 21.0453C121.715 21.0497 121.721 21.0522 121.727 21.0522H123.978C123.984 21.0522 123.99 21.0545 123.994 21.0586C123.998 21.0626 124 21.0681 124 21.0738V23.8645C124 23.8676 123.999 23.8707 123.998 23.8736C123.997 23.8765 123.995 23.8791 123.993 23.8813C123.991 23.8835 123.988 23.8852 123.985 23.8864C123.983 23.8876 123.979 23.8882 123.976 23.8882H121.725C121.722 23.8882 121.719 23.8888 121.717 23.8899C121.714 23.891 121.712 23.8925 121.71 23.8946C121.708 23.8966 121.706 23.8989 121.705 23.9015C121.704 23.9042 121.703 23.907 121.703 23.9098V37.2552C121.703 37.2592 121.702 37.263 121.699 37.2658C121.696 37.2687 121.692 37.2703 121.688 37.2703H117.192C117.189 37.2703 117.185 37.2695 117.181 37.2681C117.178 37.2666 117.175 37.2645 117.172 37.2618C117.167 37.2564 117.163 37.249 117.163 37.2414V23.912C117.163 23.9057 117.161 23.8996 117.157 23.8952C117.152 23.8907 117.146 23.8882 117.14 23.8882H115.742C115.739 23.8882 115.736 23.8876 115.733 23.8864C115.73 23.8852 115.728 23.8835 115.725 23.8813C115.723 23.8791 115.721 23.8765 115.72 23.8736C115.719 23.8707 115.719 23.8676 115.719 23.8645V21.0738C115.719 21.071 115.719 21.0682 115.72 21.0656C115.721 21.0629 115.723 21.0606 115.725 21.0586C115.727 21.0566 115.729 21.055 115.732 21.0539C115.734 21.0528 115.737 21.0522 115.74 21.0522L117.139 21.0496C117.145 21.0496 117.151 21.0473 117.155 21.0432C117.159 21.0391 117.161 21.0335 117.161 21.0277L117.163 17.8298C117.163 17.8224 117.166 17.8152 117.17 17.8089C117.174 17.8027 117.179 17.7976 117.186 17.7944L121.681 15.6977C121.684 15.6966 121.686 15.6962 121.689 15.6963C121.691 15.6965 121.694 15.6973 121.696 15.6987C121.698 15.7 121.7 15.7019 121.701 15.7042C121.702 15.7064 121.703 15.7089 121.703 15.7115Z" fill="white"/>
<path d="M55.6877 20.7349C56.3672 20.7791 57.0292 20.9087 57.6736 21.1235C57.9712 21.2227 58.2358 21.3344 58.4672 21.4586C59.6704 22.1053 60.3908 23.1351 60.6286 24.5478C60.6994 24.9676 60.7347 25.4811 60.7347 26.0881C60.7347 29.8047 60.7347 33.5242 60.7347 37.2466C60.7347 37.2529 60.7322 37.2589 60.7278 37.2634C60.7233 37.2678 60.7173 37.2703 60.711 37.2703H56.6052C56.5961 37.2703 56.5873 37.2671 56.5804 37.2611C56.5735 37.2552 56.569 37.247 56.5677 37.238L56.3209 35.63C56.3175 35.6073 56.3078 35.6044 56.292 35.6214C56.1186 35.8068 55.9368 35.9868 55.7464 36.1614C55.5425 36.3486 55.3437 36.5089 55.1499 36.6423C54.0074 37.4279 52.7419 37.7415 51.3533 37.583C50.3474 37.4683 49.5003 37.0446 48.8119 36.3119C48.6141 36.1014 48.4398 35.8733 48.2891 35.6274C47.9999 35.1549 47.8001 34.6421 47.69 34.0888C47.5853 33.5629 47.5556 33.0095 47.6007 32.4287C47.6761 31.4584 47.9681 30.5811 48.4768 29.7967C48.6283 29.5635 48.8046 29.3372 49.0056 29.1178C49.3659 28.725 49.7666 28.3828 50.2077 28.0912C50.7724 27.7174 51.3802 27.4075 52.0309 27.1617C52.5471 26.9664 53.0736 26.8044 53.6105 26.6756C54.4406 26.4766 55.2922 26.3335 56.1652 26.2464C56.1734 26.2455 56.181 26.2417 56.1865 26.2355C56.192 26.2294 56.195 26.2214 56.195 26.2132C56.195 26.0401 56.1927 25.8798 56.1881 25.7323C56.1777 25.4016 56.0758 25.1032 55.8823 24.8372C55.6945 24.5793 55.4384 24.3761 55.1141 24.2278C54.79 24.0797 54.4809 23.9854 54.1867 23.9448C53.8448 23.8979 53.5617 23.8755 53.3374 23.8775C52.4354 23.8856 51.55 24.0745 50.6813 24.4443C50.1332 24.6775 49.6222 24.9612 49.1483 25.2953C49.123 25.3134 49.1104 25.307 49.1104 25.2759L49.113 22.0081C49.113 21.9927 49.1175 21.9775 49.1259 21.9645C49.1343 21.9514 49.1463 21.941 49.1604 21.9344C50.9806 21.1028 52.8691 20.694 54.8259 20.7081C55.1667 20.7107 55.454 20.7196 55.6877 20.7349ZM52.7849 33.7037C52.9775 33.8837 53.1977 34.009 53.4453 34.0798C53.6626 34.1419 53.9086 34.1581 54.1833 34.1285C54.7914 34.0627 55.2712 33.7902 55.6226 33.3112C55.7762 33.1021 55.9018 32.8452 55.9996 32.5404C56.1022 32.22 56.1649 31.8916 56.1877 31.5552C56.1925 31.4836 56.195 31.1962 56.195 30.693C56.195 30.2792 56.195 29.865 56.195 29.4503C56.195 29.4423 56.1918 29.4346 56.1861 29.429C56.1805 29.4233 56.1728 29.4201 56.1648 29.4201C55.3343 29.4198 54.5365 29.5753 53.7713 29.8864C53.4996 29.9971 53.2305 30.1668 52.9639 30.3954C52.3799 30.8966 52.1087 31.5384 52.1504 32.3208C52.1803 32.8758 52.3918 33.3367 52.7849 33.7037Z" fill="white"/>
<path d="M71.5718 20.7201C71.9554 20.7489 72.3331 20.8238 72.7049 20.9448C72.7109 20.9467 72.7161 20.9504 72.7199 20.9554C72.7236 20.9605 72.7256 20.9666 72.7256 20.9729V24.8018C72.7256 24.8057 72.7245 24.8095 72.7226 24.8129C72.7207 24.8163 72.718 24.8191 72.7146 24.8212C72.7113 24.8232 72.7075 24.8244 72.7036 24.8245C72.6997 24.8247 72.6958 24.8238 72.6924 24.822C72.1265 24.5316 71.5337 24.3539 70.914 24.2889C70.4352 24.2386 69.9976 24.2892 69.601 24.4408C68.9676 24.6834 68.4508 25.0962 68.0508 25.6791C68.0334 25.7044 68.0241 25.7343 68.0241 25.7649V37.2487C68.0241 37.2544 68.0218 37.2599 68.0178 37.2639C68.0137 37.268 68.0082 37.2702 68.0025 37.2702H63.5326C63.5227 37.2702 63.5131 37.2663 63.5061 37.2592C63.4991 37.2522 63.4951 37.2427 63.4951 37.2327V21.0897C63.4951 21.0798 63.4991 21.0703 63.5061 21.0632C63.5131 21.0562 63.5227 21.0522 63.5326 21.0522L67.6229 21.0548C67.6289 21.0548 67.6346 21.057 67.6391 21.0609C67.6436 21.0647 67.6466 21.0701 67.6475 21.0759L67.8964 22.7042C67.9007 22.7312 67.9101 22.7333 67.9244 22.7103C68.2816 22.1349 68.7381 21.6664 69.2939 21.305C69.5478 21.1402 69.8042 21.0117 70.063 20.9194C70.5443 20.7474 71.0473 20.681 71.5718 20.7201Z" fill="white"/>
<path d="M83.463 20.9794L83.4656 24.8027C83.4656 24.8065 83.4646 24.8102 83.4627 24.8135C83.4608 24.8168 83.4581 24.8195 83.4549 24.8215C83.4517 24.8235 83.448 24.8246 83.4442 24.8248C83.4404 24.825 83.4367 24.8242 83.4333 24.8225C82.838 24.5166 82.2051 24.3377 81.5345 24.2859C81.0742 24.2503 80.6548 24.3091 80.2764 24.4623C79.6515 24.716 79.1522 25.1263 78.7783 25.6934C78.7691 25.7074 78.7641 25.7241 78.7641 25.7412V37.2552C78.7641 37.2592 78.7625 37.263 78.7597 37.2658C78.7569 37.2687 78.753 37.2703 78.749 37.2703H74.2459C74.2402 37.2703 74.2347 37.268 74.2307 37.264C74.2266 37.2599 74.2244 37.2544 74.2244 37.2487V21.0738C74.2244 21.0681 74.2266 21.0626 74.2307 21.0586C74.2347 21.0545 74.2402 21.0523 74.2459 21.0523H78.3492C78.3587 21.0522 78.3678 21.0556 78.375 21.0618C78.3822 21.068 78.387 21.0765 78.3884 21.0859L78.6339 22.6986C78.6382 22.7257 78.6477 22.7277 78.6623 22.7047C78.9643 22.2351 79.3261 21.8325 79.748 21.497C80.0744 21.2376 80.442 21.0385 80.8509 20.8996C81.1206 20.8081 81.4013 20.75 81.6929 20.7253C82.2866 20.6756 82.8698 20.7508 83.4423 20.9509C83.4484 20.9529 83.4536 20.9567 83.4573 20.9618C83.4611 20.9669 83.463 20.9731 83.463 20.9794Z" fill="white"/>
<path d="M99.6085 20.7718C100.34 20.8523 101.012 21.0365 101.622 21.3243C102.827 21.8923 103.717 22.7926 104.292 24.0253C104.582 24.6459 104.785 25.2939 104.903 25.9693C104.991 26.4789 105.042 26.9354 105.054 27.3388C105.067 27.7713 105.071 28.5681 105.066 29.7293C105.066 29.7307 105.067 29.9272 105.069 30.3189C105.073 31.0015 105.028 31.6221 104.935 32.1805C104.855 32.6647 104.736 33.1391 104.578 33.6035C104.355 34.2591 104.036 34.8588 103.62 35.4025C103.442 35.6363 103.25 35.8494 103.043 36.0418C102.413 36.6287 101.678 37.0481 100.837 37.3C100.203 37.49 99.4984 37.5951 98.7243 37.6153C97.7618 37.6403 96.855 37.5094 96.0039 37.2228C95.7134 37.125 95.449 37.0133 95.2106 36.8876C94.7854 36.6636 94.396 36.3855 94.0426 36.0534C93.4376 35.4852 92.9764 34.8168 92.6589 34.0482C92.4202 33.4696 92.2511 32.8712 92.1516 32.253C92.0614 31.6896 92.0129 31.1227 92.0063 30.5522C92.0063 30.5522 92.0061 29.6932 92.0059 27.975C92.0059 27.5716 92.0234 27.169 92.0585 26.7673C92.1269 25.9875 92.3 25.2321 92.5778 24.5011C93.2248 22.8002 94.3852 21.6609 96.0591 21.0832C96.3216 20.9924 96.5991 20.919 96.8915 20.8633C97.7559 20.6982 98.6616 20.6677 99.6085 20.7718ZM97.416 34.0602C97.6084 34.2264 97.8229 34.3389 98.0596 34.3975C98.2784 34.4519 98.5142 34.4661 98.767 34.4402C99.263 34.3891 99.6613 34.1454 99.9617 33.7091C100.041 33.5935 100.115 33.4417 100.181 33.2537C100.316 32.8721 100.406 32.4816 100.451 32.0822C100.471 31.9067 100.483 31.6198 100.486 31.2212C100.495 30.1788 100.497 29.1363 100.493 28.0936C100.503 27.4139 100.496 26.8855 100.471 26.5085C100.445 26.0987 100.376 25.6965 100.264 25.3016C100.201 25.0805 100.111 24.8739 99.9932 24.6818C99.8676 24.4762 99.719 24.3116 99.5477 24.1879C99.3185 24.0226 99.0621 23.9243 98.7786 23.8929C98.5325 23.8659 98.2957 23.879 98.0682 23.9322C97.8247 23.9888 97.6084 24.1 97.4195 24.2656C97.18 24.4755 97.0012 24.7455 96.8833 25.0756C96.7335 25.496 96.6427 25.9413 96.6107 26.4115C96.5903 26.7125 96.58 26.9605 96.5797 27.1555C96.5788 28.4964 96.5782 29.8371 96.578 31.1777C96.578 31.6116 96.6103 32.0429 96.675 32.4716C96.7302 32.84 96.8396 33.1911 97.0033 33.525C97.1045 33.7317 97.2421 33.9101 97.416 34.0602Z" fill="white"/>
<path d="M89.6485 21.052C89.6561 21.052 89.6633 21.055 89.6687 21.0605C89.674 21.0659 89.677 21.0732 89.677 21.0809V37.2485C89.677 37.2542 89.6747 37.2597 89.6707 37.2637C89.6666 37.2677 89.6612 37.27 89.6554 37.27L85.1726 37.2674C85.1668 37.2674 85.1612 37.2651 85.1571 37.261C85.1529 37.2569 85.1506 37.2513 85.1506 37.2454L85.1562 21.0818C85.1562 21.0759 85.1585 21.0703 85.1626 21.0662C85.1666 21.0621 85.1721 21.0598 85.1778 21.0598L89.6485 21.052Z" fill="white"/>
</svg>
