<svg width="1157" height="3" viewBox="0 0 1157 3" fill="none" xmlns="http://www.w3.org/2000/svg">
<path d="M0.0200195 0.5C5.74002 0.5 5.74002 2.5 11.47 2.5C17.2 2.5 17.19 0.5 22.92 0.5C28.65 0.5 28.64 2.5 34.37 2.5C40.1 2.5 40.09 0.5 45.82 0.5C51.55 0.5 51.54 2.5 57.27 2.5C63 2.5 62.99 0.5 68.72 0.5C74.45 0.5 74.44 2.5 80.17 2.5C85.9 2.5 85.9 0.5 91.62 0.5C97.34 0.5 97.35 2.5 103.07 2.5C108.79 2.5 108.8 0.5 114.52 0.5C120.24 0.5 120.24 2.5 125.97 2.5C131.7 2.5 131.69 0.5 137.42 0.5C143.15 0.5 143.15 2.5 148.87 2.5C154.59 2.5 154.6 0.5 160.32 0.5C166.04 0.5 166.05 2.5 171.77 2.5C177.49 2.5 177.5 0.5 183.22 0.5C188.94 0.5 188.95 2.5 194.67 2.5C200.39 2.5 200.4 0.5 206.12 0.5C211.84 0.5 211.85 2.5 217.58 2.5C223.31 2.5 223.3 0.5 229.03 0.5C234.76 0.5 234.75 2.5 240.48 2.5C246.21 2.5 246.2 0.5 251.93 0.5C257.66 0.5 257.65 2.5 263.38 2.5C269.11 2.5 269.1 0.5 274.83 0.5C280.56 0.5 280.55 2.5 286.28 2.5C292.01 2.5 292.01 0.5 297.73 0.5C303.45 0.5 303.46 2.5 309.18 2.5C314.9 2.5 314.91 0.5 320.63 0.5C326.35 0.5 326.36 2.5 332.08 2.5C337.8 2.5 337.81 0.5 343.53 0.5C349.25 0.5 349.26 2.5 354.99 2.5C360.72 2.5 360.71 0.5 366.44 0.5C372.17 0.5 372.16 2.5 377.89 2.5C383.62 2.5 383.61 0.5 389.34 0.5C395.07 0.5 395.07 2.5 400.79 2.5C406.51 2.5 406.51 0.5 412.24 0.5C417.97 0.5 417.96 2.5 423.69 2.5C429.42 2.5 429.41 0.5 435.14 0.5C440.87 0.5 440.86 2.5 446.59 2.5C452.32 2.5 452.31 0.5 458.03 0.5C463.75 0.5 463.76 2.5 469.48 2.5C475.2 2.5 475.2 0.5 480.93 0.5C486.66 0.5 486.65 2.5 492.38 2.5C498.11 2.5 498.1 0.5 503.83 0.5C509.56 0.5 509.55 2.5 515.28 2.5C521.01 2.5 521 0.5 526.73 0.5C532.46 0.5 532.45 2.5 538.17 2.5C543.89 2.5 543.9 0.5 549.62 0.5C555.34 0.5 555.35 2.5 561.07 2.5C566.79 2.5 566.8 0.5 572.52 0.5C578.24 0.5 578.25 2.5 583.97 2.5C589.69 2.5 589.7 0.5 595.42 0.5C601.14 0.5 601.15 2.5 606.87 2.5C612.59 2.5 612.6 0.5 618.32 0.5C624.04 0.5 624.05 2.5 629.78 2.5C635.51 2.5 635.5 0.5 641.22 0.5C646.94 0.5 646.95 2.5 652.67 2.5C658.39 2.5 658.4 0.5 664.13 0.5C669.86 0.5 669.85 2.5 675.58 2.5C681.31 2.5 681.3 0.5 687.03 0.5C692.76 0.5 692.76 2.5 698.48 2.5C704.2 2.5 704.21 0.5 709.93 0.5C715.65 0.5 715.66 2.5 721.38 2.5C727.1 2.5 727.11 0.5 732.84 0.5C738.57 0.5 738.56 2.5 744.29 2.5C750.02 2.5 750.01 0.5 755.74 0.5C761.47 0.5 761.47 2.5 767.19 2.5C772.91 2.5 772.92 0.5 778.65 0.5C784.38 0.5 784.37 2.5 790.1 2.5C795.83 2.5 795.82 0.5 801.55 0.5C807.28 0.5 807.28 2.5 813 2.5C818.72 2.5 818.73 0.5 824.46 0.5C830.19 0.5 830.18 2.5 835.91 2.5C841.64 2.5 841.64 0.5 847.37 0.5C853.1 0.5 853.09 2.5 858.82 2.5C864.55 2.5 864.54 0.5 870.27 0.5C876 0.5 876 2.5 881.73 2.5C887.46 2.5 887.45 0.5 893.18 0.5C898.91 0.5 898.91 2.5 904.63 2.5C910.35 2.5 910.36 0.5 916.09 0.5C921.82 0.5 921.82 2.5 927.54 2.5C933.26 2.5 933.27 0.5 939 0.5C944.73 0.5 944.72 2.5 950.45 2.5C956.18 2.5 956.17 0.5 961.9 0.5C967.63 0.5 967.63 2.5 973.35 2.5C979.07 2.5 979.08 0.5 984.8 0.5C990.52 0.5 990.53 2.5 996.26 2.5C1001.99 2.5 1001.99 0.5 1007.71 0.5C1013.43 0.5 1013.44 2.5 1019.17 2.5C1024.9 2.5 1024.9 0.5 1030.62 0.5C1036.34 0.5 1036.35 2.5 1042.08 2.5C1047.81 2.5 1047.81 0.5 1053.54 0.5C1059.27 0.5 1059.26 2.5 1064.99 2.5C1070.72 2.5 1070.72 0.5 1076.45 0.5C1082.18 0.5 1082.18 2.5 1087.91 2.5C1093.64 2.5 1093.63 0.5 1099.36 0.5C1105.09 0.5 1105.09 2.5 1110.81 2.5C1116.53 2.5 1116.54 0.5 1122.27 0.5C1128 0.5 1128 2.5 1133.73 2.5C1139.46 2.5 1139.46 0.5 1145.2 0.5C1150.94 0.5 1150.93 2.5 1156.66 2.5" stroke="#383144" stroke-miterlimit="10"/>
</svg>
