<svg width="138" height="54" viewBox="0 0 138 54" fill="none" xmlns="http://www.w3.org/2000/svg">
<path d="M38.3401 31.1405H41.2562C42.394 31.1405 42.8267 31.5331 42.8267 32.4948C42.8267 33.4207 42.3938 33.8129 41.2562 33.8129H38.3401V31.1405ZM33.8225 40.8667H38.3404V36.9117H43.1795C46.3834 36.9117 47.5369 35.0244 47.5369 32.5843C47.5369 29.7517 46.3507 28.1489 43.1468 28.1489H33.8225V40.8667Z" fill="white"/>
<path d="M49.0266 28.1489H61.1859V31.2476H53.5445V32.9576H60.642V36.0576H53.5445V37.7674H61.1859V40.8667H49.0266V28.1489Z" fill="white"/>
<path d="M67.5947 31.1405H70.5106C71.6482 31.1405 72.0811 31.5331 72.0811 32.4948C72.0811 33.4207 71.6482 33.8129 70.5106 33.8129H67.5947V31.1405ZM63.0769 40.8667H67.5947V36.9117H72.433C75.6377 36.9117 76.7915 35.0244 76.7915 32.5843C76.7915 29.7517 75.6054 28.1489 72.4008 28.1489H63.0769V40.8667Z" fill="white"/>
<path d="M81.1646 35.4696C78.9541 35.0949 78.0415 33.67 78.0415 31.8892C78.0415 28.5934 80.9414 27.7036 84.6574 27.7036C89.7514 27.7036 91.8506 29.1815 92.011 31.8715H86.7559C86.7559 31.3548 86.4834 31.0336 86.0676 30.8556C85.6669 30.6602 85.1546 30.5891 84.6574 30.5891C83.3117 30.5891 82.8475 30.9627 82.8475 31.4975C82.8475 31.8531 82.9911 32.0856 83.4397 32.1565L88.8386 33.0467C91.114 33.4207 92.524 34.5964 92.524 36.7511C92.524 39.8515 90.2489 41.3121 85.1699 41.3121C81.6936 41.3121 77.8964 40.7779 77.8806 37.0371H83.3277C83.343 37.4641 83.4879 37.7491 83.8087 37.9451C84.1442 38.1235 84.6412 38.2128 85.3459 38.2128C86.7554 38.2128 87.1406 37.7849 87.1406 37.1792C87.1406 36.8052 86.9318 36.4314 86.3243 36.325L81.1646 35.4696Z" fill="white"/>
<path d="M93.9971 28.1489H98.5147V40.8667H93.9971V28.1489Z" fill="white"/>
<path d="M115.258 35.9146C114.969 37.589 114.456 38.9428 113.334 39.8687C112.23 40.7951 110.499 41.3118 107.744 41.3118C105.004 41.3118 99.9255 41.0976 99.9255 34.5079C99.9255 27.9169 105.004 27.7031 107.744 27.7031C110.467 27.7031 114.665 28.0946 115.258 33.1362H110.163C110.035 32.2269 109.489 30.909 107.744 30.909C105.9 30.909 104.731 31.9242 104.731 34.5077C104.731 37.0905 105.869 38.1051 107.519 38.1051C108.945 38.1051 109.794 37.4461 110.163 35.9144H115.258V35.9146Z" fill="white"/>
<path d="M121.169 34.5084C121.169 31.9247 122.339 30.9097 124.182 30.9097C126.024 30.9097 127.194 31.9249 127.194 34.5084C127.194 37.0912 126.024 38.1058 124.182 38.1058C122.339 38.1055 121.169 37.091 121.169 34.5084ZM116.362 34.5084C116.362 41.0978 121.441 41.3123 124.181 41.3123C126.921 41.3123 132 41.098 132 34.5084C132 27.9174 126.921 27.7036 124.181 27.7036C121.441 27.7036 116.362 27.9172 116.362 34.5084Z" fill="white"/>
<path d="M26.9956 28.2748C27.2874 22.1732 22.0254 15.3019 14.8519 14.4525L14.8642 14.3691C21.9362 14.3691 27.3576 20.9161 27.3576 26.0811C27.3508 27.1563 27.2659 27.8224 27.1145 28.3061L26.9956 28.2748ZM26.5671 29.0504C26.0966 29.6253 25.5049 30.2041 24.8116 30.7537C23.5361 23.4182 18.1458 17.0038 14.3348 15.1316L14.2532 15.1885C18.0858 18.334 22.657 24.443 24.4347 31.0414C23.5843 31.6682 22.6012 32.2451 21.5151 32.7134C17.8985 28.5891 14.5267 20.6349 13.4401 15.5875L13.3296 15.6207C13.3541 20.5202 16.8327 28.8377 21.0748 32.8961C20.1333 33.2675 19.1209 33.5571 18.0578 33.7297C13.9914 32.1188 11.097 26.9593 11.097 21.674C11.097 18.2237 12.149 16.0893 12.3525 15.6524L12.2658 15.6181C12.0196 15.9906 10.4785 18.1239 10.4785 21.8488C10.4785 27.8231 13.4248 32.3895 17.3365 33.8276C15.9982 33.9731 14.59 33.9291 13.1451 33.6308L13.116 33.7219C13.5345 33.8759 14.9541 34.4718 17.1198 34.4718C22.0182 34.4718 25.3296 31.4284 26.6626 29.1149L26.5671 29.0504Z" fill="white"/>
<path d="M16.63 12.2134C12.9166 12.2134 8.5625 14.8934 8.5625 17.3431C8.5625 18.2907 9.42935 19.0912 11.2234 19.0912C15.3883 19.0912 19.2577 16.2298 19.2577 14.0048C19.2577 12.834 18.1333 12.2134 16.63 12.2134ZM18.1125 13.9357C18.1125 15.8112 14.5109 18.1038 11.5003 18.1038C10.1701 18.1038 9.45145 17.5803 9.45145 16.7166C9.45145 14.8141 13.0939 12.5605 15.9179 12.5605C17.759 12.5605 18.1125 13.4973 18.1125 13.9357Z" fill="white"/>
<path d="M7.08342 18.4776C6.97903 18.6581 6.56104 19.4766 6.56104 20.3152C6.56104 21.8706 8.13256 23.3145 11.0231 23.3145C16.5837 23.3145 23.0081 19.2214 23.0081 15.4221C23.0081 13.7166 21.3937 12.7894 20.2728 12.5977L20.2518 12.6642C20.6004 12.7745 21.8776 13.3682 21.8776 14.8874C21.8776 17.9147 16.2053 22.0395 10.5552 22.0395C8.39211 22.0395 7.02936 20.9718 7.02936 19.4164C7.02936 18.9245 7.13178 18.6004 7.15892 18.5065L7.08342 18.4776Z" fill="white"/>
<path d="M25.3006 15.7058C25.4531 15.8216 26.369 16.5849 26.369 18.0284C26.369 22.9502 18.6573 27.79 11.8396 27.79C7.77394 27.79 5.92054 25.7825 6.00261 24H6.07548C6.2348 24.9258 7.55488 26.5822 11.1133 26.5822C17.9395 26.5822 25.5612 21.5744 25.5612 17.1867C25.5612 16.4341 25.3568 15.9651 25.2413 15.7566L25.3006 15.7058Z" fill="white"/>
<path d="M27.8783 20.3008C27.9103 20.4056 28.0764 20.8768 28.0764 21.6147C28.0764 27.0898 20.2721 31.777 13.4846 31.777C9.9912 31.777 8.16691 30.0801 7.78174 29.391L7.84389 29.345C8.81053 30.1904 10.7145 30.8327 12.9364 30.8327C18.931 30.8327 27.8759 26.272 27.796 20.3207L27.8783 20.3008Z" fill="white"/>
</svg>
