<svg width="123" height="85" viewBox="0 0 123 85" fill="none" xmlns="http://www.w3.org/2000/svg">
<path d="M17.9967 42.6543C17.9194 42.4386 17.7778 42.2519 17.591 42.1193C17.4042 41.9868 17.1812 41.9148 16.9522 41.9131H12.4407C12.3646 41.913 12.2904 41.8895 12.2281 41.8458C12.1658 41.802 12.1184 41.7401 12.0926 41.6685L10.4776 37.073C10.3935 36.8649 10.2491 36.6866 10.063 36.5612C9.87684 36.4357 9.65751 36.3688 9.43309 36.3689C9.20484 36.37 8.98255 36.4419 8.79681 36.5746C8.61107 36.7073 8.47103 36.8944 8.39597 37.1101V37.1101L6.77362 41.6833C6.74774 41.7549 6.70043 41.8168 6.63813 41.8606C6.57583 41.9044 6.50157 41.9279 6.42544 41.9279H1.91397C1.68472 41.9285 1.46127 42.0001 1.27427 42.1328C1.08727 42.2655 0.945863 42.4528 0.869445 42.6691C0.795958 42.8829 0.788452 43.1138 0.847904 43.3319C0.907356 43.55 1.03102 43.7452 1.20281 43.8921L5.04015 47.0792C5.09781 47.1263 5.13995 47.1897 5.16109 47.2611C5.18224 47.3324 5.18139 47.4086 5.15868 47.4795L3.54373 52.3195C3.46768 52.5436 3.46508 52.7861 3.53631 53.0118C3.60755 53.2375 3.7489 53.4345 3.93981 53.5743C4.13072 53.714 4.36121 53.7892 4.59775 53.7888C4.83429 53.7884 5.06454 53.7125 5.25498 53.5721L9.21085 50.6666C9.27382 50.6191 9.35053 50.5934 9.42939 50.5934C9.50825 50.5934 9.58496 50.6191 9.64792 50.6666L13.6112 53.5721C13.8002 53.7294 14.036 53.8196 14.2816 53.8285C14.5273 53.8374 14.769 53.7646 14.9689 53.6214C15.1688 53.4782 15.3155 53.2727 15.3862 53.0371C15.4569 52.8015 15.4475 52.5492 15.3595 52.3195L13.7445 47.4795C13.7218 47.4086 13.721 47.3324 13.7421 47.2611C13.7633 47.1897 13.8054 47.1263 13.8631 47.0792L17.7078 43.8847C17.8743 43.7326 17.9909 43.5337 18.0425 43.3142C18.094 43.0946 18.0781 42.8646 17.9967 42.6543Z" fill="#FEC34F"/>
<path d="M44.1901 42.6543C44.1128 42.4386 43.9711 42.2519 43.7843 42.1193C43.5975 41.9868 43.3746 41.9148 43.1456 41.9131H38.6341C38.558 41.913 38.4837 41.8895 38.4214 41.8458C38.3591 41.802 38.3118 41.7401 38.2859 41.6685L36.671 37.073C36.5868 36.8649 36.4424 36.6866 36.2563 36.5612C36.0702 36.4357 35.8509 36.3688 35.6265 36.3689C35.3982 36.37 35.1759 36.4419 34.9902 36.5746C34.8044 36.7073 34.6644 36.8944 34.5893 37.1101V37.1101L32.967 41.6833C32.9411 41.7549 32.8938 41.8168 32.8315 41.8606C32.7692 41.9044 32.6949 41.9279 32.6188 41.9279H28.1073C27.8781 41.9285 27.6546 42.0001 27.4676 42.1328C27.2806 42.2655 27.1392 42.4528 27.0628 42.6691C26.9893 42.8829 26.9818 43.1138 27.0413 43.3319C27.1007 43.55 27.2244 43.7452 27.3962 43.8921L31.2335 47.0792C31.2912 47.1263 31.3333 47.1897 31.3545 47.2611C31.3756 47.3324 31.3748 47.4086 31.352 47.4795L29.7371 52.3195C29.661 52.5436 29.6584 52.7861 29.7297 53.0118C29.8009 53.2375 29.9423 53.4345 30.1332 53.5743C30.3241 53.714 30.5546 53.7892 30.7911 53.7888C31.0276 53.7884 31.2579 53.7125 31.4483 53.5721L35.4042 50.6666C35.4672 50.6191 35.5439 50.5934 35.6227 50.5934C35.7016 50.5934 35.7783 50.6191 35.8413 50.6666L39.8046 53.5721C39.9935 53.7294 40.2293 53.8196 40.475 53.8285C40.7207 53.8374 40.9624 53.7646 41.1622 53.6214C41.3621 53.4782 41.5089 53.2727 41.5796 53.0371C41.6502 52.8015 41.6408 52.5492 41.5529 52.3195L39.9379 47.4795C39.9152 47.4086 39.9143 47.3324 39.9355 47.2611C39.9566 47.1897 39.9988 47.1263 40.0564 47.0792L43.9012 43.8847C44.0676 43.7326 44.1843 43.5337 44.2358 43.3142C44.2874 43.0946 44.2715 42.8646 44.1901 42.6543Z" fill="#FEC34F"/>
<path d="M70.3838 42.6543C70.3065 42.4386 70.1648 42.2519 69.9781 42.1193C69.7913 41.9868 69.5683 41.9148 69.3393 41.9131H64.8278C64.7517 41.913 64.6774 41.8895 64.6151 41.8458C64.5528 41.802 64.5055 41.7401 64.4796 41.6685L62.8647 37.073C62.7806 36.8649 62.6362 36.6866 62.45 36.5612C62.2639 36.4357 62.0446 36.3688 61.8202 36.3689C61.5919 36.37 61.3696 36.4419 61.1839 36.5746C60.9982 36.7073 60.8581 36.8944 60.7831 37.1101V37.1101L59.1607 41.6833C59.1348 41.7549 59.0875 41.8168 59.0252 41.8606C58.9629 41.9044 58.8887 41.9279 58.8125 41.9279H54.3011C54.0718 41.9285 53.8484 42.0001 53.6614 42.1328C53.4744 42.2655 53.3329 42.4528 53.2565 42.6691C53.183 42.8829 53.1755 43.1138 53.235 43.3319C53.2944 43.55 53.4181 43.7452 53.5899 43.8921L57.4272 47.0792C57.4849 47.1263 57.527 47.1897 57.5482 47.2611C57.5693 47.3324 57.5685 47.4086 57.5458 47.4795L55.9308 52.3195C55.8548 52.5436 55.8522 52.7861 55.9234 53.0118C55.9946 53.2375 56.136 53.4345 56.3269 53.5743C56.5178 53.714 56.7483 53.7892 56.9848 53.7888C57.2214 53.7884 57.4516 53.7125 57.6421 53.5721L61.5979 50.6666C61.6609 50.6191 61.7376 50.5934 61.8165 50.5934C61.8953 50.5934 61.972 50.6191 62.035 50.6666L65.9983 53.5721C66.1873 53.7294 66.423 53.8196 66.6687 53.8285C66.9144 53.8374 67.1561 53.7646 67.356 53.6214C67.5558 53.4782 67.7026 53.2727 67.7733 53.0371C67.844 52.8015 67.8346 52.5492 67.7466 52.3195L66.1316 47.4795C66.1089 47.4086 66.1081 47.3324 66.1292 47.2611C66.1504 47.1897 66.1925 47.1263 66.2502 47.0792L70.0949 43.8847C70.2614 43.7326 70.378 43.5337 70.4296 43.3142C70.4811 43.0946 70.4652 42.8646 70.3838 42.6543Z" fill="#FEC34F"/>
<path d="M96.5772 42.6543C96.4998 42.4386 96.3582 42.2519 96.1714 42.1193C95.9846 41.9868 95.7617 41.9148 95.5327 41.9131H91.0212C90.9451 41.913 90.8708 41.8895 90.8085 41.8458C90.7462 41.802 90.6989 41.7401 90.673 41.6685L89.0581 37.073C88.9739 36.8649 88.8295 36.6866 88.6434 36.5612C88.4573 36.4357 88.238 36.3688 88.0135 36.3689C87.7853 36.37 87.563 36.4419 87.3773 36.5746C87.1915 36.7073 87.0515 36.8944 86.9764 37.1101V37.1101L85.3541 41.6833C85.3282 41.7549 85.2809 41.8168 85.2186 41.8606C85.1563 41.9044 85.082 41.9279 85.0059 41.9279H80.4944C80.2652 41.9285 80.0417 42.0001 79.8547 42.1328C79.6677 42.2655 79.5263 42.4528 79.4499 42.6691C79.3764 42.8829 79.3689 43.1138 79.4283 43.3319C79.4878 43.55 79.6115 43.7452 79.7832 43.8921L83.6206 47.0792C83.6783 47.1263 83.7204 47.1897 83.7415 47.2611C83.7627 47.3324 83.7618 47.4086 83.7391 47.4795L82.1242 52.3195C82.0481 52.5436 82.0455 52.7861 82.1168 53.0118C82.188 53.2375 82.3293 53.4345 82.5203 53.5743C82.7112 53.714 82.9417 53.7892 83.1782 53.7888C83.4147 53.7884 83.645 53.7125 83.8354 53.5721L87.7913 50.6666C87.8543 50.6191 87.931 50.5934 88.0098 50.5934C88.0887 50.5934 88.1654 50.6191 88.2284 50.6666L92.1916 53.5721C92.3806 53.7294 92.6164 53.8196 92.8621 53.8285C93.1078 53.8374 93.3495 53.7646 93.5493 53.6214C93.7492 53.4782 93.896 53.2727 93.9666 53.0371C94.0373 52.8015 94.0279 52.5492 93.9399 52.3195L92.325 47.4795C92.3023 47.4086 92.3014 47.3324 92.3226 47.2611C92.3437 47.1897 92.3859 47.1263 92.4435 47.0792L96.2883 43.8847C96.4547 43.7326 96.5714 43.5337 96.6229 43.3142C96.6745 43.0946 96.6585 42.8646 96.5772 42.6543Z" fill="#FEC34F"/>
<path d="M23.9051 8.11648H19.7994C19.9154 7.47083 20.3083 7.1115 21.1151 6.70232L21.8708 6.32212C23.2236 5.62663 23.9422 4.84652 23.9422 3.56914C23.9422 2.76238 23.6331 2.12948 23.0149 1.67046C22.404 1.2068 21.6599 0.990042 20.7998 0.990042C20.137 0.983378 19.4865 1.16856 18.9266 1.52325C18.3893 1.84208 17.9579 2.31219 17.6863 2.87481L18.8768 4.06642C19.3404 3.1391 20.0058 2.67544 20.8867 2.67544C21.6309 2.67544 22.0899 3.06028 22.0899 3.59349C22.0899 4.03976 21.8662 4.41184 21.0108 4.84652L20.5274 5.07835C19.4726 5.61156 18.7411 6.21895 18.3192 6.91444C17.8973 7.60993 17.6863 8.47697 17.6863 9.5318V9.81695H23.9005V8.11648H23.9051ZM23.3569 11.7782H16.5585L13.1587 17.6655H19.9571L23.3569 23.554L26.7555 17.6655L23.3569 11.7782Z" fill="#FF492C"/>
<path d="M13.7441 21.5901C11.6622 21.5901 9.66558 20.7631 8.19347 19.291C6.72135 17.8189 5.89433 15.8223 5.89433 13.7404C5.89433 11.6585 6.72135 9.66189 8.19347 8.18978C9.66558 6.71767 11.6622 5.89064 13.7441 5.89064L16.4321 0.266461C14.1926 -0.181148 11.8768 -0.0634177 9.69416 0.609003C7.51155 1.28142 5.53098 2.48732 3.93159 4.11763C2.33221 5.74794 1.16445 7.75124 0.533951 9.94632C-0.0965531 12.1414 -0.169918 14.4591 0.320492 16.6896C0.810902 18.9202 1.84962 20.9933 3.34269 22.7215C4.83576 24.4497 6.73609 25.7785 8.87181 26.5876C11.0075 27.3967 13.3113 27.6607 15.5746 27.3556C17.838 27.0505 19.9896 26.1861 21.8349 24.8404L18.8594 19.6856C17.4388 20.9149 15.6227 21.5911 13.7441 21.5901Z" fill="#FF492C"/>
<path d="M2.14949 72.7107V70.3831L6.56225 64.4671H9.31012V70.8034H11.0397V72.7107H9.31012V74.9575H7.11182V72.7107H2.14949ZM7.11182 70.8034V66.7947L4.12149 70.8034H7.11182ZM12.7479 74.6504C12.4569 74.3595 12.3114 74.0092 12.3114 73.5997C12.3114 73.1903 12.4569 72.8454 12.7479 72.5653C13.0388 72.2743 13.3837 72.1288 13.7824 72.1288C14.1919 72.1288 14.5421 72.2743 14.833 72.5653C15.124 72.8454 15.2694 73.1903 15.2694 73.5997C15.2694 74.0092 15.124 74.3595 14.833 74.6504C14.5421 74.9306 14.1919 75.0707 13.7824 75.0707C13.3837 75.0707 13.0388 74.9306 12.7479 74.6504ZM20.824 68.7667C21.2982 68.7559 21.6753 68.6212 21.9555 68.3626C22.2357 68.104 22.3758 67.7807 22.3758 67.3928C22.3758 67.0264 22.2357 66.7139 21.9555 66.4553C21.6753 66.1967 21.2982 66.0673 20.824 66.0673C20.3607 66.0673 19.9889 66.1967 19.7087 66.4553C19.4286 66.7139 19.2885 67.0264 19.2885 67.3928C19.2885 67.7807 19.4232 68.104 19.6926 68.3626C19.9727 68.6212 20.3499 68.7559 20.824 68.7667ZM19.5309 72.937C19.8434 73.2172 20.2745 73.3573 20.824 73.3573C21.3736 73.3573 21.8047 73.2172 22.1172 72.937C22.4404 72.6461 22.6021 72.3012 22.6021 71.9025C22.6021 71.493 22.4458 71.1428 22.1333 70.8519C21.8208 70.5609 21.3844 70.4154 20.824 70.4154C20.2637 70.4154 19.8273 70.5609 19.5148 70.8519C19.213 71.1428 19.0622 71.493 19.0622 71.9025C19.0622 72.3012 19.2184 72.6461 19.5309 72.937ZM23.6851 74.3433C22.9631 74.9144 22.0094 75.2 20.824 75.2C19.6387 75.2 18.6796 74.9144 17.9469 74.3433C17.2249 73.7722 16.8639 73.034 16.8639 72.1288C16.8639 71.5685 17.0309 71.0566 17.365 70.5932C17.7098 70.1299 18.1624 69.7904 18.7227 69.5749C18.2163 69.3917 17.8122 69.0792 17.5104 68.6374C17.2195 68.1848 17.074 67.7161 17.074 67.2311C17.074 66.3475 17.4242 65.6255 18.1247 65.0652C18.8359 64.5048 19.7357 64.2246 20.824 64.2246C21.9124 64.2246 22.8068 64.5048 23.5073 65.0652C24.2185 65.6255 24.5741 66.3475 24.5741 67.2311C24.5741 67.7161 24.4286 68.1848 24.1377 68.6374C23.8467 69.0792 23.448 69.3917 22.9415 69.5749C23.4911 69.7797 23.9329 70.1191 24.267 70.5932C24.6118 71.0566 24.7842 71.5685 24.7842 72.1288C24.7842 73.034 24.4178 73.7722 23.6851 74.3433ZM32.6953 72.6461C33.0941 73.0448 33.5736 73.2441 34.1339 73.2441C34.6943 73.2441 35.1684 73.0448 35.5564 72.6461C35.9551 72.2474 36.1544 71.6924 36.1544 70.9812C36.1544 70.27 35.9551 69.715 35.5564 69.3163C35.1684 68.9176 34.6943 68.7182 34.1339 68.7182C33.5736 68.7182 33.0941 68.9176 32.6953 69.3163C32.3074 69.715 32.1134 70.27 32.1134 70.9812C32.1134 71.6924 32.3074 72.2474 32.6953 72.6461ZM31.1436 67.9585C31.941 67.1611 32.9378 66.7624 34.1339 66.7624C35.3301 66.7624 36.3215 67.1611 37.1081 67.9585C37.9055 68.7559 38.3042 69.7635 38.3042 70.9812C38.3042 72.1989 37.9055 73.2064 37.1081 74.0038C36.3215 74.8013 35.3301 75.2 34.1339 75.2C32.9378 75.2 31.941 74.8013 31.1436 74.0038C30.357 73.2064 29.9636 72.1989 29.9636 70.9812C29.9636 69.7635 30.357 68.7559 31.1436 67.9585ZM45.1744 74.9575C45.1313 74.742 45.1098 74.4564 45.1098 74.1008C44.905 74.4564 44.5979 74.7258 44.1884 74.909C43.7897 75.0814 43.3641 75.1677 42.9115 75.1677C41.974 75.1677 41.2358 74.8713 40.697 74.2786C40.1582 73.6752 39.8888 72.9262 39.8888 72.0318V67.0048H42.0386V71.5954C42.0386 72.0696 42.1625 72.4575 42.4104 72.7592C42.6582 73.0502 43.0192 73.1956 43.4934 73.1956C43.9567 73.1956 44.3231 73.0556 44.5925 72.7754C44.8619 72.4844 44.9966 72.1019 44.9966 71.6277V67.0048H47.1464V73.5189C47.1464 74.0254 47.1734 74.5049 47.2272 74.9575H45.1744ZM52.0916 64.6287V67.0048H53.6918V68.9122H52.0916V72.242C52.0916 72.576 52.167 72.8131 52.3179 72.9532C52.4688 73.0933 52.7058 73.1633 53.0291 73.1633C53.3201 73.1633 53.541 73.1418 53.6918 73.0987V74.8767C53.3793 75.006 52.9752 75.0707 52.4795 75.0707C51.7037 75.0707 51.0894 74.8551 50.6368 74.4241C50.1842 73.9823 49.9579 73.3788 49.9579 72.6137V68.9122H48.5194V67.0048H48.9235C49.3222 67.0048 49.6239 66.8917 49.8286 66.6654C50.0442 66.4283 50.1519 66.1212 50.1519 65.7441V64.6287H52.0916ZM61.5979 72.6461C61.9966 73.0448 62.4761 73.2441 63.0365 73.2441C63.5968 73.2441 64.071 73.0448 64.4589 72.6461C64.8576 72.2474 65.057 71.6924 65.057 70.9812C65.057 70.27 64.8576 69.715 64.4589 69.3163C64.071 68.9176 63.5968 68.7182 63.0365 68.7182C62.4761 68.7182 61.9966 68.9176 61.5979 69.3163C61.21 69.715 61.016 70.27 61.016 70.9812C61.016 71.6924 61.21 72.2474 61.5979 72.6461ZM60.0462 67.9585C60.8436 67.1611 61.8404 66.7624 63.0365 66.7624C64.2326 66.7624 65.224 67.1611 66.0107 67.9585C66.8081 68.7559 67.2068 69.7635 67.2068 70.9812C67.2068 72.1989 66.8081 73.2064 66.0107 74.0038C65.224 74.8013 64.2326 75.2 63.0365 75.2C61.8404 75.2 60.8436 74.8013 60.0462 74.0038C59.2595 73.2064 58.8662 72.1989 58.8662 70.9812C58.8662 69.7635 59.2595 68.7559 60.0462 67.9585ZM72.5891 65.0328C72.2874 65.0328 72.0234 65.1191 71.7971 65.2915C71.5816 65.4531 71.4738 65.7333 71.4738 66.132V67.0048H73.268V68.8475H71.4738V74.9575H69.3079V68.8475H67.9824V67.0048H69.3079V66.0997C69.3079 65.2053 69.5665 64.4887 70.0837 63.9499C70.6118 63.4111 71.3176 63.1417 72.2012 63.1417C72.6754 63.1417 73.031 63.1955 73.268 63.3033V65.1137C73.0848 65.0598 72.8585 65.0328 72.5891 65.0328ZM77.9801 72.0157L80.0652 71.5469C80.0868 72.0426 80.27 72.4629 80.6148 72.8077C80.9704 73.1418 81.423 73.3088 81.9726 73.3088C82.4898 73.3088 82.9209 73.1525 83.2657 72.84C83.6105 72.5275 83.7829 72.1127 83.7829 71.5954C83.7829 71.0243 83.5997 70.5879 83.2334 70.2861C82.8778 69.9844 82.4413 69.8335 81.9241 69.8335C81.2668 69.8335 80.728 70.0706 80.3077 70.5448C79.5426 70.2538 78.8637 70.0221 78.271 69.8497L79.5157 64.4671H85.4317V66.3906H81.0351L80.5178 68.7021C80.9812 68.271 81.6116 68.0555 82.409 68.0555C83.4866 68.0555 84.3541 68.368 85.0114 68.993C85.6687 69.6072 85.9974 70.4639 85.9974 71.5631C85.9974 72.576 85.631 73.4381 84.8983 74.1493C84.1655 74.8605 83.1903 75.2161 81.9726 75.2161C80.8734 75.2161 79.9467 74.8983 79.1924 74.2625C78.4488 73.6267 78.0447 72.8778 77.9801 72.0157Z" fill="white"/>
<path fill-rule="evenodd" clip-rule="evenodd" d="M117.418 41.9131H116.633C116.556 41.913 116.482 41.8895 116.42 41.8458C116.358 41.802 116.31 41.7401 116.284 41.6685L114.669 37.073C114.585 36.8649 114.441 36.6866 114.255 36.5612C114.069 36.4357 113.849 36.3688 113.625 36.3689C113.397 36.37 113.174 36.4419 112.989 36.5746C112.803 36.7073 112.663 36.8944 112.588 37.1101L110.965 41.6833C110.94 41.7549 110.892 41.8168 110.83 41.8606C110.768 41.9044 110.693 41.9279 110.617 41.9279H106.106C105.876 41.9285 105.653 42.0001 105.466 42.1328C105.279 42.2655 105.138 42.4528 105.061 42.6691C104.988 42.8829 104.98 43.1138 105.04 43.3319C105.099 43.55 105.223 43.7452 105.395 43.8921L109.232 47.0792C109.29 47.1263 109.332 47.1897 109.353 47.2611C109.374 47.3324 109.373 47.4086 109.35 47.4795L107.736 52.3195C107.659 52.5436 107.657 52.7861 107.728 53.0118C107.799 53.2375 107.941 53.4345 108.132 53.5743C108.322 53.714 108.553 53.7892 108.79 53.7888C109.026 53.7884 109.256 53.7125 109.447 53.5721L113.403 50.6666C113.466 50.6191 113.542 50.5934 113.621 50.5934C113.7 50.5934 113.777 50.6191 113.84 50.6666L117.418 53.2897V41.9131Z" fill="#FEC34F"/>
<path d="M121.812 42.7893L121.812 42.7893L121.815 42.7986C121.868 42.9337 121.878 43.0816 121.845 43.2227C121.812 43.3611 121.74 43.4867 121.636 43.5837L117.802 46.7694C117.801 46.7698 117.801 46.7703 117.8 46.7707C117.681 46.8685 117.594 46.9997 117.55 47.1475C117.506 47.2959 117.508 47.4541 117.555 47.6015L117.555 47.6015L117.557 47.6061L119.172 52.4461L119.175 52.4544L119.178 52.4626C119.234 52.6097 119.24 52.7713 119.195 52.9222C119.15 53.073 119.056 53.2046 118.928 53.2962C118.8 53.3879 118.645 53.4345 118.488 53.4288C118.331 53.4231 118.18 53.3654 118.059 53.2647L118.049 53.2568L118.039 53.2495L114.078 50.3454C113.946 50.2468 113.786 50.1934 113.621 50.1934C113.456 50.1934 113.296 50.2468 113.164 50.3455L109.21 53.2497L109.209 53.2501C109.088 53.34 108.94 53.3885 108.789 53.3888C108.638 53.389 108.49 53.3409 108.368 53.2515C108.246 53.1621 108.155 53.0359 108.11 52.8914C108.064 52.7469 108.066 52.5916 108.114 52.448L108.115 52.4461L109.73 47.6061L109.73 47.6061L109.731 47.6015C109.779 47.4541 109.78 47.2959 109.736 47.1475C109.693 46.9997 109.606 46.8685 109.487 46.7707C109.486 46.7703 109.485 46.7698 109.485 46.7694L105.653 43.5864C105.543 43.4919 105.464 43.3666 105.426 43.2267C105.387 43.0866 105.392 42.9382 105.439 42.8007C105.488 42.6629 105.578 42.5436 105.698 42.459C105.817 42.3742 105.96 42.3284 106.106 42.3279L110.617 42.3279L110.617 42.3279C110.776 42.3278 110.93 42.2789 111.06 42.1879C111.189 42.0969 111.288 41.9681 111.342 41.8192L111.342 41.817L112.965 37.2438L112.588 37.1101L112.966 37.2416C113.013 37.104 113.103 36.9847 113.221 36.9C113.339 36.8156 113.481 36.7698 113.626 36.7689C113.77 36.769 113.911 36.8121 114.031 36.8929C114.149 36.9722 114.241 37.0843 114.295 37.2153L115.907 41.8011L115.907 41.8011L115.908 41.8044C115.962 41.9533 116.06 42.082 116.19 42.1731C116.319 42.2641 116.474 42.313 116.632 42.3131H116.633H121.142C121.289 42.3144 121.432 42.3606 121.551 42.4455C121.671 42.5307 121.762 42.6507 121.812 42.7893Z" stroke="#FEC24F" stroke-width="0.8"/>
</svg>
