<svg width="87" height="15" viewBox="0 0 87 15" fill="none" xmlns="http://www.w3.org/2000/svg">
<path d="M7.16014 0.847339C7.41669 0.237979 8.29048 0.23798 8.54703 0.847341L10.0612 4.44389C10.1694 4.70079 10.414 4.87631 10.6947 4.89854L14.6249 5.20983C15.2908 5.26257 15.5608 6.08354 15.0535 6.51289L12.0591 9.04693C11.8452 9.22796 11.7517 9.51198 11.8171 9.78257L12.7319 13.5715C12.8869 14.2135 12.1801 14.7209 11.6099 14.3769L8.24507 12.3464C8.00472 12.2014 7.70245 12.2014 7.46211 12.3464L4.09722 14.3769C3.52711 14.7209 2.8202 14.2135 2.9752 13.5715L3.89006 9.78257C3.95541 9.51198 3.862 9.22796 3.64812 9.04693L0.653643 6.51289C0.146293 6.08354 0.416309 5.26257 1.08222 5.20983L5.01252 4.89854C5.29325 4.87631 5.53779 4.70079 5.64595 4.44389L7.16014 0.847339Z" fill="#F5BF1B"/>
<path d="M25.0723 0.847339C25.3288 0.237979 26.2026 0.23798 26.4591 0.847341L27.9733 4.44389C28.0815 4.70079 28.3261 4.87631 28.6068 4.89854L32.537 5.20983C33.2029 5.26257 33.473 6.08354 32.9656 6.51289L29.9712 9.04693C29.7573 9.22796 29.6639 9.51198 29.7292 9.78257L30.6441 13.5715C30.799 14.2135 30.0922 14.7209 29.5221 14.3769L26.1572 12.3464C25.9168 12.2014 25.6146 12.2014 25.3742 12.3464L22.0093 14.3769C21.4392 14.7209 20.7323 14.2135 20.8873 13.5715L21.8022 9.78257C21.8675 9.51198 21.7741 9.22796 21.5602 9.04693L18.5658 6.51289C18.0584 6.08354 18.3284 5.26257 18.9943 5.20983L22.9246 4.89854C23.2054 4.87631 23.4499 4.70079 23.5581 4.44389L25.0723 0.847339Z" fill="#F5BF1B"/>
<path d="M42.9844 0.847339C43.2409 0.237979 44.1147 0.23798 44.3713 0.847341L45.8854 4.44389C45.9936 4.70079 46.2382 4.87631 46.5189 4.89854L50.4491 5.20983C51.115 5.26257 51.3851 6.08354 50.8777 6.51289L47.8833 9.04693C47.6694 9.22796 47.576 9.51198 47.6413 9.78257L48.5562 13.5715C48.7112 14.2135 48.0043 14.7209 47.4342 14.3769L44.0693 12.3464C43.8289 12.2014 43.5267 12.2014 43.2863 12.3464L39.9214 14.3769C39.3513 14.7209 38.6444 14.2135 38.7994 13.5715L39.7143 9.78257C39.7796 9.51198 39.6862 9.22796 39.4723 9.04693L36.4779 6.51289C35.9705 6.08354 36.2405 5.26257 36.9064 5.20983L40.8367 4.89854C41.1175 4.87631 41.362 4.70079 41.4702 4.44389L42.9844 0.847339Z" fill="#F5BF1B"/>
<path d="M60.897 0.847339C61.1535 0.237979 62.0273 0.23798 62.2838 0.847341L63.798 4.44389C63.9062 4.70079 64.1508 4.87631 64.4315 4.89854L68.3617 5.20983C69.0276 5.26257 69.2977 6.08354 68.7903 6.51289L65.7959 9.04693C65.582 9.22796 65.4886 9.51198 65.5539 9.78257L66.4688 13.5715C66.6238 14.2135 65.9169 14.7209 65.3468 14.3769L61.9819 12.3464C61.7415 12.2014 61.4393 12.2014 61.1989 12.3464L57.834 14.3769C57.2639 14.7209 56.557 14.2135 56.712 13.5715L57.6269 9.78257C57.6922 9.51198 57.5988 9.22796 57.3849 9.04693L54.3905 6.51289C53.8831 6.08354 54.1531 5.26257 54.819 5.20983L58.7493 4.89854C59.0301 4.87631 59.2746 4.70079 59.3828 4.44389L60.897 0.847339Z" fill="#F5BF1B"/>
<path d="M78.8091 0.847339C79.0656 0.237979 79.9394 0.23798 80.196 0.847341L81.7101 4.44389C81.8183 4.70079 82.0629 4.87631 82.3436 4.89854L86.2739 5.20983C86.9398 5.26257 87.2098 6.08354 86.7024 6.51289L83.708 9.04693C83.4941 9.22796 83.4007 9.51198 83.466 9.78257L84.3809 13.5715C84.5359 14.2135 83.829 14.7209 83.2589 14.3769L79.894 12.3464C79.6536 12.2014 79.3514 12.2014 79.111 12.3464L75.7461 14.3769C75.176 14.7209 74.4691 14.2135 74.6241 13.5715L75.539 9.78257C75.6043 9.51198 75.5109 9.22796 75.297 9.04693L72.3026 6.51289C71.7952 6.08354 72.0652 5.26257 72.7311 5.20983L76.6614 4.89854C76.9422 4.87631 77.1867 4.70079 77.2949 4.44389L78.8091 0.847339Z" fill="#F5BF1B"/>
</svg>
