<svg width="92" height="92" viewBox="0 0 92 92" fill="none" xmlns="http://www.w3.org/2000/svg">
<circle cx="46.0001" cy="46.0001" r="34.5001" fill="white"/>
<path d="M45.9975 70.7155C40.2947 70.7134 34.7863 68.6429 30.4942 64.8878C26.2023 61.1329 23.418 55.9485 22.6583 50.2964C21.8985 44.6445 23.2147 38.9089 26.3626 34.1537C29.5106 29.3986 34.2767 25.9467 39.7763 24.4386V31.2952C36.0775 32.7453 33.001 35.4415 31.0783 38.9182C29.1553 42.3948 28.507 46.4339 29.2449 50.3377C29.9828 54.2416 32.0607 57.7653 35.1197 60.3003C38.1788 62.8354 42.0272 64.2227 46.0001 64.2227C49.9732 64.2227 53.8213 62.8354 56.8805 60.3003C59.9395 57.7653 62.0175 54.2416 62.7553 50.3377C63.4932 46.4339 62.8448 42.3948 60.9219 38.9182C58.9991 35.4415 55.9227 32.7453 52.2239 31.2952V24.4386C57.724 25.9468 62.4902 29.3991 65.6383 34.1547C68.7861 38.9105 70.102 44.6467 69.3416 50.299C68.5811 55.9514 65.796 61.1358 61.503 64.8904C57.21 68.645 51.7006 70.7148 45.9975 70.7155ZM42.6166 16.5693H49.3835V50.1352H42.6166V16.5693ZM45.9975 3.02428e-07C36.8996 0.000521878 28.0062 2.69883 20.442 7.7537C12.8776 12.8086 6.98205 19.993 3.50082 28.3984C0.0195789 36.8039 -0.891001 46.0529 0.884221 54.9758C2.65945 63.8988 7.04073 72.095 13.4741 78.5279C19.9074 84.9609 28.1038 89.3417 37.0269 91.1164C45.9499 92.8912 55.1989 91.9801 63.6042 88.4984C72.0095 85.0167 79.1935 79.1207 84.2479 71.5561C89.3024 63.9915 92.0002 55.098 92.0002 46.0001C92.0005 39.9589 90.8108 33.977 88.4991 28.3956C86.1872 22.8143 82.7987 17.743 78.5268 13.4714C74.2551 9.19979 69.1836 5.81153 63.6021 3.50008C58.0207 1.18864 52.0386 -0.000692418 45.9975 3.02428e-07Z" fill="#DF1B21"/>
</svg>
