<?xml version="1.0" encoding="UTF-8"?><svg id="Layer_2" xmlns="http://www.w3.org/2000/svg" viewBox="0 0 730.89 559.48"><defs><style>.cls-1{fill:#b61224;}.cls-2{fill:#1c254e;}.cls-3{fill:#0e1108;}.cls-4{fill:#0e1008;}</style></defs><g id="Layer_1-2"><g><g><path class="cls-3" d="M42.48,395.82l1.29,14.7-42.38,3.71-1.3-14.82c-.5-5.7,.96-10.64,4.39-14.84,3.43-4.19,8.47-6.58,15.12-7.17,6.61-.58,11.96,.92,16.02,4.5,4.07,3.58,6.35,8.22,6.85,13.92Zm-4.42,9.3l-.76-8.67c-.36-4.14-2.04-7.46-5.03-9.95-2.99-2.49-7.03-3.51-12.13-3.06-5.14,.45-8.99,2.14-11.54,5.08-2.55,2.93-3.65,6.47-3.29,10.62l.77,8.79,31.98-2.8Z"/><path class="cls-3" d="M31.39,350.46l1.76-4.83c2.67,.89,4.83,2.48,6.49,4.79,1.66,2.31,2.46,5.08,2.41,8.32-.07,4.04-1.52,7.45-4.35,10.22s-6.6,4.12-11.32,4.03c-4.4-.08-8.01-1.5-10.85-4.27-2.83-2.77-4.22-6.03-4.15-9.79,.08-4.36,1.5-7.73,4.29-10.13,2.78-2.39,6.47-3.55,11.07-3.47,.72,.01,1.32,.06,1.8,.15l-.38,21.72c2.56,0,4.67-.81,6.34-2.44,1.67-1.63,2.52-3.67,2.57-6.11,.07-4.12-1.82-6.85-5.68-8.2Zm-7.79,16.49l.27-15.78c-2.16,.04-3.94,.73-5.35,2.07-1.4,1.34-2.13,3.24-2.17,5.72-.04,2.24,.66,4.09,2.09,5.56,1.44,1.47,3.15,2.28,5.15,2.43Z"/><path class="cls-3" d="M34.12,342.94l-1.29-5.25c1.57-.04,2.92-.59,4.05-1.65,1.13-1.05,1.79-2.56,1.99-4.51,.15-1.51-.1-2.74-.75-3.69-.65-.95-1.51-1.48-2.59-1.58-1.91-.19-3.27,.92-4.07,3.33l-1.56,4.79c-.7,2.18-1.83,3.84-3.39,4.97-1.56,1.13-3.35,1.6-5.38,1.39-2.47-.25-4.5-1.46-6.09-3.65-1.59-2.19-2.25-4.68-1.97-7.46,.18-1.83,.61-3.44,1.29-4.82,.68-1.38,1.5-2.42,2.45-3.13,.96-.71,1.83-1.22,2.63-1.55,.8-.32,1.6-.54,2.42-.66l1.36,5.14c-.49,.03-.97,.13-1.44,.28-.48,.15-1.01,.41-1.61,.77-.6,.36-1.11,.93-1.52,1.69-.42,.76-.68,1.68-.79,2.76-.14,1.39,.13,2.58,.79,3.55,.67,.97,1.52,1.51,2.55,1.61,1.83,.18,3.09-.8,3.79-2.94l1.48-4.56c.81-2.49,2.03-4.35,3.66-5.58,1.63-1.23,3.52-1.73,5.67-1.52,2.27,.23,4.23,1.35,5.87,3.39,1.65,2.03,2.31,4.7,1.98,8-.35,3.54-1.51,6.22-3.48,8.04s-3.98,2.76-6.04,2.84Z"/><path class="cls-3" d="M8.18,310.77c-.89,.65-1.89,.89-3,.71-1.11-.17-1.99-.71-2.66-1.6-.67-.9-.92-1.9-.74-3,.17-1.11,.71-1.99,1.6-2.66,.89-.67,1.92-.91,3.06-.73,1.11,.17,1.98,.72,2.63,1.63,.65,.91,.88,1.92,.71,3.03-.17,1.11-.71,1.98-1.6,2.63Zm37.36,.14l-.87,5.51-28.51-4.49,.87-5.51,28.51,4.49Z"/><path class="cls-3" d="M47.61,306.27v-5.6c2.02,.26,3.85-.16,5.48-1.27,1.63-1.11,2.68-2.71,3.16-4.82,1.31-5.73-1.08-9.29-7.16-10.68l-4.04-.92c1.21,1.01,2.06,2.37,2.58,4.07,.51,1.7,.54,3.56,.08,5.59-.86,3.74-2.84,6.54-5.95,8.4-3.11,1.85-6.66,2.33-10.63,1.42-3.86-.88-6.83-2.83-8.91-5.85-2.08-3.02-2.69-6.42-1.82-10.2,.98-4.29,3.12-6.84,6.42-7.64l-3.92-.9,1.24-5.44,26.03,5.94c1.87,.43,3.56,1.07,5.07,1.93,1.51,.86,2.82,1.97,3.95,3.33,1.12,1.36,1.86,3.08,2.21,5.15,.35,2.07,.23,4.37-.35,6.91-.79,3.47-2.45,6.19-4.97,8.16-2.52,1.97-5.34,2.78-8.46,2.44Zm-4.33-15.51c.54-2.38,.16-4.5-1.16-6.36-1.32-1.86-3.32-3.1-6.01-3.71-2.69-.61-5.03-.37-7.03,.73-2,1.1-3.27,2.84-3.81,5.22-.55,2.42-.18,4.56,1.11,6.44,1.29,1.88,3.31,3.12,6.04,3.75,2.77,.63,5.13,.4,7.08-.69,1.95-1.09,3.21-2.89,3.78-5.38Z"/><path class="cls-3" d="M39.95,262.23l15.83,5.26-1.78,5.35-27.39-9.1,1.74-5.24,3.93,1.3c-2.55-2.87-3.19-6.2-1.93-10,1.05-3.15,2.86-5.24,5.43-6.26,2.57-1.02,5.45-1,8.64,.06l17.37,5.77-1.78,5.35-16.46-5.47c-4.59-1.53-7.6-.16-9.01,4.09-.67,2.01-.48,3.81,.58,5.41,1.05,1.59,2.66,2.75,4.82,3.47Z"/><path class="cls-3" d="M63.18,221.02l3.49-3.77c2.12,1.85,3.5,4.15,4.14,6.93,.64,2.77,.31,5.64-.99,8.61-1.62,3.7-4.27,6.28-7.95,7.75s-7.68,1.25-12-.65c-4.03-1.77-6.82-4.48-8.36-8.12-1.54-3.65-1.56-7.19-.05-10.64,1.75-3.99,4.37-6.56,7.86-7.69,3.49-1.13,7.34-.78,11.55,1.07,.66,.29,1.19,.57,1.6,.83l-8.73,19.89c2.36,.99,4.62,1.06,6.79,.2,2.17-.86,3.74-2.41,4.72-4.64,1.66-3.77,.96-7.02-2.07-9.76Zm-13.55,12.21l6.34-14.45c-2.01-.79-3.92-.85-5.73-.16-1.81,.69-3.21,2.17-4.21,4.44-.9,2.05-.97,4.03-.21,5.93,.76,1.91,2.03,3.31,3.81,4.23Z"/><path class="cls-3" d="M82.74,196.84l-.42-.23c.92,1.38,1.44,2.99,1.54,4.81,.11,1.82-.36,3.66-1.39,5.51-2.01,3.6-4.88,5.78-8.63,6.56-3.75,.77-7.55,.09-11.39-2.06-3.67-2.04-6.16-4.9-7.49-8.57-1.32-3.67-1.01-7.25,.94-10.74,1.15-2.06,2.5-3.51,4.04-4.34,1.54-.83,3.04-1.17,4.5-.99l-16.3-9.08,2.72-4.87,33.28,18.55c1.71,.95,3.32,1.73,4.81,2.34l-2.66,4.77c-1.08-.37-2.26-.92-3.55-1.64Zm-17.49,9.56c2.66,1.48,5.19,2.03,7.59,1.66,2.41-.38,4.25-1.72,5.54-4.02,1.23-2.2,1.35-4.44,.38-6.72-.97-2.28-2.79-4.16-5.44-5.64-2.62-1.46-5.09-1.99-7.42-1.6-2.33,.4-4.12,1.71-5.36,3.95-1.25,2.24-1.43,4.49-.54,6.77s2.63,4.15,5.25,5.61Z"/><path class="cls-3" d="M110.55,162.83l-3.53,4.32-33.64-27.48,3.53-4.32,14.45,11.81c-.6-1.47-.74-3.15-.42-5.03,.32-1.88,1.2-3.7,2.65-5.47,2.66-3.25,5.82-4.88,9.49-4.88,3.67,0,7.2,1.39,10.61,4.18,3.44,2.81,5.52,6.06,6.25,9.75s-.23,7.15-2.86,10.37c-2.73,3.35-5.99,4.71-9.78,4.1l3.25,2.66Zm3.82-15.86c-.47-2.4-1.91-4.58-4.33-6.56-2.42-1.97-4.82-2.94-7.2-2.9-2.38,.04-4.4,1.07-6.04,3.08-1.59,1.95-2.19,4.13-1.77,6.53,.41,2.4,1.81,4.58,4.2,6.53,2.39,1.95,4.82,2.9,7.3,2.87,2.48-.04,4.52-1.03,6.12-2.98,1.62-1.98,2.2-4.17,1.73-6.57Z"/><path class="cls-3" d="M140.99,146.12l-4.32,4.42-5.86-15.8-27.04-9.08,4.53-4.63,20.53,7.49-8.2-20.11,4.24-4.33,16.12,42.04Z"/><path class="cls-3" d="M162.36,93.93l-10.21-29.92,7.99-6.14,13.61,43.2-7.75,5.96-38.29-24.22,8.28-6.36,26.38,17.48Z"/><path class="cls-3" d="M169.63,61.04c-1.44-.31-2.56-1.08-3.36-2.33-.8-1.24-1.05-2.58-.74-4.02,.31-1.44,1.07-2.55,2.28-3.33,1.24-.8,2.59-1.06,4.05-.76,1.45,.3,2.58,1.07,3.39,2.31,.8,1.24,1.04,2.59,.72,4.04-.33,1.45-1.11,2.58-2.35,3.38-1.21,.78-2.53,1.02-3.97,.71Zm26.09,25l-7.66,4.95-16.19-25.04,7.66-4.95,16.19,25.04Z"/><path class="cls-3" d="M212.17,42.38l-4.15,16.6,18.74,9.41-9.78,5.38-11.21-5.82-1.04,4.2,3.53,6.41-7.99,4.4-20.94-38.06,7.99-4.4,11.39,20.71,3.11-13.15,10.36-5.7Z"/><path class="cls-3" d="M214.56,35.71c-1.38-.51-2.38-1.44-3-2.78-.62-1.34-.67-2.71-.17-4.09,.51-1.38,1.42-2.37,2.73-2.97,1.34-.62,2.71-.68,4.11-.18,1.4,.5,2.41,1.42,3.03,2.77,.62,1.34,.67,2.71,.14,4.1-.53,1.39-1.46,2.39-2.81,3.01-1.31,.6-2.65,.65-4.03,.14Zm22.29,28.44l-8.28,3.82-12.48-27.08,8.28-3.82,12.48,27.08Z"/><path class="cls-3" d="M244.27,42.53l6.01,16.01-8.54,3.2-10.48-27.92,8.26-3.1,1.2,3.2c.25-1.5,.98-2.88,2.2-4.13,1.22-1.25,2.6-2.16,4.13-2.74,3.33-1.25,6.25-1.16,8.75,.27,2.5,1.43,4.37,3.78,5.59,7.04l6.58,17.53-8.54,3.2-6.03-16.07c-.55-1.46-1.37-2.49-2.47-3.08-1.1-.59-2.4-.61-3.89-.04-1.39,.52-2.33,1.4-2.83,2.63-.5,1.23-.48,2.56,.05,3.98Z"/><path class="cls-3" d="M271.01,52.59l7.2-4.25c.69,1.35,1.7,2.32,3.03,2.92,1.34,.6,2.82,.69,4.44,.26,4.76-1.25,6.49-4.33,5.2-9.25l-.35-1.33c-.86,2.54-3.15,4.3-6.86,5.28-3.83,1.01-7.37,.51-10.63-1.48-3.26-2-5.41-5.01-6.47-9.03-1.02-3.87-.62-7.52,1.18-10.95,1.81-3.43,4.64-5.66,8.51-6.68,2.13-.56,3.96-.65,5.51-.27,1.55,.38,2.69,.97,3.44,1.76l-.81-3.08,8.41-2.21,6.64,25.24c1.18,4.49,.86,8.53-.96,12.13-1.82,3.6-5.29,6.08-10.39,7.42-3.95,1.04-7.49,.89-10.64-.46-3.15-1.34-5.3-3.35-6.46-6.03Zm7.34-15.02c1.47,.85,3.11,1.04,4.93,.56,1.82-.48,3.14-1.45,3.98-2.91,.83-1.46,1-3.16,.49-5.09-.5-1.89-1.5-3.27-3.01-4.14-1.51-.86-3.12-1.07-4.82-.62s-3.01,1.42-3.92,2.92c-.91,1.5-1.11,3.2-.61,5.09,.51,1.94,1.5,3.33,2.96,4.18Z"/><path class="cls-3" d="M301.49,34.34l7.4-2.65c.26,1.09,.85,1.96,1.75,2.6,.9,.64,2.08,.84,3.54,.59,1.1-.19,1.91-.58,2.42-1.17,.51-.59,.7-1.24,.58-1.95-.2-1.18-1.3-1.83-3.31-1.94l-3.5-.2c-3.1-.12-5.5-.87-7.19-2.22-1.69-1.36-2.72-3.14-3.09-5.35-.46-2.72,.22-5.21,2.06-7.47,1.83-2.26,4.36-3.66,7.6-4.2,3.83-.65,6.85-.21,9.07,1.3,2.22,1.51,3.61,3.34,4.18,5.47l-7.22,2.62c-.3-1.04-.85-1.84-1.65-2.4-.8-.55-1.86-.72-3.16-.5-.87,.15-1.58,.51-2.13,1.09-.55,.58-.76,1.25-.64,1.99,.2,1.18,1.09,1.78,2.68,1.8l4.03,.11c3.06,.09,5.5,.84,7.31,2.23,1.82,1.4,2.92,3.22,3.3,5.47,.46,2.72-.17,5.23-1.89,7.53-1.72,2.3-4.44,3.76-8.14,4.39-2.17,.37-4.15,.37-5.93,.03-1.78-.35-3.2-.95-4.26-1.81-1.06-.86-1.9-1.74-2.52-2.65-.62-.91-1.05-1.81-1.28-2.71Z"/><path class="cls-3" d="M348.01,5.9c-.68-.61-1.05-1.39-1.1-2.32-.05-.93,.23-1.75,.84-2.45,.61-.7,1.38-1.08,2.32-1.13,.93-.05,1.75,.23,2.45,.84,.7,.61,1.08,1.4,1.13,2.37,.05,.93-.24,1.74-.87,2.43-.63,.69-1.41,1.05-2.34,1.1-.93,.05-1.74-.23-2.42-.84Zm6.4,30.47l-4.64,.25-1.31-24.01,4.64-.25,1.31,24.01Z"/><path class="cls-3" d="M364.74,22.19l.23,13.9-4.7,.08-.39-24.05,4.6-.07,.06,3.45c1.55-2.79,4-4.22,7.33-4.27,2.77-.04,4.91,.8,6.42,2.55,1.51,1.74,2.29,4.01,2.34,6.81l.25,15.25-4.7,.08-.23-14.45c-.07-4.03-1.96-6.02-5.7-5.96-1.77,.03-3.13,.68-4.09,1.94-.96,1.27-1.43,2.85-1.4,4.75Z"/><path class="cls-3" d="M408.39,19.86c.46-2.83,1.37-5.33,2.75-7.51,1.38-2.17,3.02-3.88,4.93-5.11,1.9-1.23,3.96-2.09,6.16-2.58,2.21-.49,4.43-.55,6.67-.19,2.24,.36,4.33,1.12,6.27,2.28,1.94,1.16,3.62,2.62,5.04,4.38,1.42,1.77,2.44,3.9,3.07,6.4,.63,2.5,.71,5.16,.26,7.99-.61,3.75-2,6.9-4.18,9.46-2.18,2.55-4.7,4.31-7.56,5.26-2.86,.96-5.78,1.2-8.78,.71-2.99-.48-5.7-1.63-8.11-3.43-2.41-1.81-4.25-4.26-5.52-7.37-1.27-3.11-1.61-6.54-1-10.29Zm10.27-8.75c-2.86,2.02-4.64,5.2-5.34,9.55-.7,4.34-.01,7.93,2.06,10.77,2.08,2.83,4.86,4.53,8.35,5.09,3.49,.56,6.66-.17,9.52-2.21,2.86-2.04,4.64-5.23,5.34-9.57s.01-7.92-2.07-10.74-4.86-4.51-8.35-5.07c-3.49-.56-6.66,.17-9.52,2.19Z"/><path class="cls-3" d="M443.77,37.67l4.49-.41c-.16,1.3,.13,2.48,.86,3.54,.73,1.06,1.88,1.79,3.47,2.19,1.23,.31,2.27,.26,3.14-.16,.86-.42,1.4-1.06,1.62-1.94,.39-1.55-.36-2.81-2.24-3.77l-3.75-1.88c-1.71-.85-2.94-1.98-3.67-3.41-.74-1.43-.9-2.96-.48-4.61,.51-2,1.76-3.53,3.76-4.57,2-1.04,4.13-1.27,6.39-.7,1.49,.38,2.76,.93,3.81,1.66,1.05,.73,1.81,1.53,2.28,2.41,.47,.87,.78,1.66,.95,2.36,.17,.7,.25,1.39,.25,2.07l-4.4,.48c.03-.4,.02-.81-.05-1.23-.07-.41-.21-.89-.44-1.43-.22-.54-.63-1.03-1.2-1.47-.58-.44-1.3-.77-2.17-.99-1.13-.29-2.14-.21-3.02,.21-.88,.43-1.43,1.06-1.64,1.9-.38,1.49,.27,2.65,1.95,3.49l3.57,1.78c1.95,.98,3.33,2.21,4.14,3.71s.99,3.11,.55,4.86c-.47,1.84-1.64,3.32-3.52,4.42-1.88,1.11-4.16,1.32-6.84,.64-2.88-.73-4.94-2.02-6.19-3.86-1.25-1.85-1.78-3.62-1.59-5.33Z"/><path class="cls-3" d="M468.82,50.97l-4.5-1.37,10.56-34.62,4.5,1.37-10.56,34.62Z"/><path class="cls-3" d="M483.22,33.29c3.01-1.47,6.19-1.58,9.53-.35,3.35,1.23,5.69,3.38,7.03,6.45,1.34,3.07,1.37,6.32,.11,9.76-1.28,3.47-3.42,5.94-6.41,7.42-2.99,1.47-6.18,1.59-9.56,.34s-5.73-3.4-7.05-6.46c-1.32-3.06-1.34-6.33-.06-9.8,1.27-3.44,3.41-5.89,6.42-7.36Zm-2.06,15.71c.84,1.92,2.24,3.25,4.21,3.98,1.97,.73,3.9,.63,5.78-.29,1.88-.92,3.29-2.65,4.23-5.18,.92-2.5,.96-4.72,.13-6.64-.84-1.92-2.24-3.25-4.21-3.98s-3.9-.63-5.78,.29c-1.88,.92-3.29,2.63-4.21,5.14-.93,2.53-.98,4.76-.15,6.69Z"/><path class="cls-3" d="M499.37,58.74c.36-.83,.99-1.4,1.9-1.74,.91-.33,1.83-.29,2.78,.12,1.04,.45,1.75,1.22,2.14,2.29,.38,1.08,.28,2.3-.32,3.68-1.2,2.75-2.83,4.57-4.88,5.46-2.06,.88-3.99,1.06-5.79,.53l1.04-2.38c1.21,.23,2.37,.02,3.49-.63,1.12-.66,1.94-1.54,2.47-2.66-.28,.06-.65-.01-1.11-.21-.89-.39-1.5-.99-1.83-1.81-.34-.82-.3-1.7,.12-2.65Z"/><path class="cls-3" d="M545.33,85.91l-4.44-2.52-2.39-34.59-14.27,25.13-4.26-2.42,17.5-30.83,5.7,3.23,1.97,32.39,13.43-23.66,4.26,2.42-17.5,30.83Z"/><path class="cls-3" d="M563.68,72.81c3.28-.65,6.39,.04,9.31,2.08,2.92,2.04,4.64,4.72,5.16,8.03,.51,3.31-.28,6.46-2.38,9.47-2.12,3.03-4.81,4.88-8.08,5.54-3.27,.66-6.38-.04-9.33-2.1-2.95-2.06-4.68-4.74-5.18-8.04-.5-3.3,.31-6.46,2.43-9.5,2.1-3.01,4.79-4.83,8.08-5.49Zm-5.98,14.67c.32,2.07,1.34,3.71,3.06,4.92,1.72,1.2,3.61,1.6,5.67,1.19,2.06-.41,3.86-1.72,5.41-3.94,1.53-2.19,2.13-4.31,1.81-6.39-.32-2.07-1.34-3.71-3.06-4.92-1.72-1.2-3.61-1.6-5.67-1.19-2.06,.41-3.85,1.71-5.38,3.9-1.55,2.21-2.16,4.36-1.84,6.43Z"/><path class="cls-3" d="M597.4,94.1l-3.12,3.91c-.48-.52-.99-.98-1.51-1.4-3.44-2.75-6.7-2.19-9.78,1.66l-7.53,9.41-3.67-2.94,15.02-18.78,3.59,2.87-2.62,3.28c3.06-1.48,5.89-1.18,8.5,.9,.42,.33,.79,.69,1.12,1.08Z"/><path class="cls-3" d="M611.19,106.75l3.53,3.33-7.88,17.45,16.28-9.52,3.6,3.4-22.18,12.13-3.53-3.33,7.91-17.7-17.11,9.02-3.6-3.4,10.76-22.91,3.75,3.54-8.5,16.87,16.97-8.87Z"/><path class="cls-3" d="M615.17,135.31c1.55-1.37,3.23-1.96,5.05-1.79,1.82,.17,3.57,.98,5.25,2.44l5.01,4.25c.94,.81,1.8,.88,2.57,.2,.95-.84,1.44-1.85,1.46-3.03,.03-1.18-.53-2.42-1.68-3.72-1.06-1.2-2.23-1.86-3.51-1.97-1.28-.12-2.53,.25-3.74,1.09l-2.19-4.07c1.88-1.35,3.98-1.8,6.3-1.36,2.32,.44,4.34,1.64,6.06,3.58,2.25,2.55,3.3,4.98,3.14,7.3-.16,2.32-1.2,4.32-3.12,6.02l-9.04,7.97c-1.08,.95-2,1.89-2.76,2.84l-3.04-3.45c.64-.79,1.4-1.57,2.27-2.34-1.24,.21-2.59,.09-4.04-.34-1.45-.43-2.81-1.37-4.09-2.82-1.57-1.78-2.31-3.69-2.24-5.76,.07-2.06,.84-3.74,2.32-5.04Zm3.32,8.67c1.39,1.57,2.93,2.46,4.62,2.66,1.69,.2,3.46-.52,5.31-2.15l.83-.73-5.69-4.78c-.83-.69-1.68-1.07-2.55-1.15-.87-.08-1.69,.23-2.47,.91-.7,.62-1.08,1.43-1.13,2.43s.31,1.94,1.08,2.81Z"/><path class="cls-3" d="M622.35,169.28l-3.12-4.09,13.73-2.94,10.73-21.21,3.28,4.29-8.64,16.04,17.56-4.35,3.07,4.01-36.6,8.26Z"/></g><g><path class="cls-2" d="M464.49,282.75c.79,6.71,.79,14.03,0,20.74-25.49,.49-53.5,1.02-84.41,1.61-5.04,27.92-17.53,51.58-50.19,67.29-7.06,.83-10.65,1.25-17.94,2.1,34.37-16.21,47.49-40.49,52.78-69.1-18.87,.36-38.88,.74-60.14,1.15,1.32-8.69,1.32-18.16,0-26.85,21.26,.41,41.27,.79,60.14,1.15-5.32-28.72-18.46-52.9-52.78-69.09l17.93,2.1c32.61,15.69,45.12,39.26,50.19,67.29,30.91,.59,58.92,1.13,84.41,1.61Z"/><path class="cls-1" d="M385.28,269.94c28.22,1.05,53.98,2.01,77.61,2.89-5.59-20.7-14.81-36.4-35.59-47.59-26.89-3.15-56.39-6.6-88.92-10.41,27.49,13.26,39.59,31.38,46.9,55.1Z"/><path class="cls-1" d="M301.91,266.84c18.51,.69,36.07,1.34,52.75,1.97-8.05-24.92-21.4-44.01-51.82-58.12-19.48-2.28-40.07-4.69-61.86-7.24,35.86,15.63,51.51,36.41,60.93,63.4Z"/><path class="cls-1" d="M338.39,371.39c32.52-3.81,62.02-7.26,88.91-10.41,20.78-11.18,29.99-26.89,35.59-47.59-23.62,.88-49.39,1.84-77.61,2.89-7.31,23.72-19.41,41.85-46.89,55.11Z"/><path class="cls-1" d="M240.99,382.79c21.79-2.55,42.38-4.96,61.86-7.24,30.42-14.11,43.76-33.21,51.82-58.12-16.69,.62-34.25,1.28-52.75,1.97-9.42,26.98-25.07,47.77-60.93,63.4Z"/><path d="M273.18,416.32c-3.73-8.72-12.39-14.83-22.48-14.83s-18.74,6.11-22.47,14.83c-1.26,2.94-1.96,6.19-1.96,9.6,0,13.49,10.94,24.43,24.43,24.43s24.44-10.94,24.44-24.43c0-3.41-.7-6.66-1.96-9.6Zm-21.49-8.89l.04,6.29h-2.1s-.04-6.28-.04-6.28h2.1Zm-11.2,5.61l4.23,4.15-1.49,1.48-4.22-4.15,1.48-1.48Zm16.92,17.28l-4.76-4.75,.11,18.82h-3.77s-.11-18.8-.11-18.8l-4.69,4.8-2.85-2.85,6.57-6.73,2.83-.02h2.83s6.65,6.64,6.65,6.64l-2.81,2.89Zm.82-11.68l-1.5-1.48,4.17-4.2,1.51,1.48-4.18,4.2Z"/><path d="M345.01,416.31c-3.74-8.72-12.39-14.82-22.48-14.82s-18.74,6.11-22.47,14.83c-1.26,2.94-1.96,6.19-1.96,9.6,0,13.49,10.94,24.43,24.43,24.43s24.44-10.94,24.44-24.43c0-3.41-.7-6.66-1.96-9.61Zm-21.49-8.88l.04,6.29h-2.1s-.04-6.28-.04-6.28h2.1Zm-11.2,5.61l4.23,4.15-1.49,1.48-4.22-4.15,1.48-1.48Zm16.92,17.28l-4.76-4.75,.11,18.82h-3.77s-.11-18.8-.11-18.8l-4.69,4.8-2.85-2.85,6.57-6.73,2.83-.02h2.83s6.65,6.64,6.65,6.64l-2.81,2.89Zm.82-11.68l-1.5-1.48,4.17-4.2,1.51,1.48-4.18,4.2Z"/><path d="M416.84,416.31c-3.74-8.72-12.39-14.82-22.47-14.82s-18.74,6.1-22.48,14.82c-1.26,2.95-1.96,6.2-1.96,9.61,0,13.49,10.94,24.43,24.44,24.43s24.43-10.94,24.43-24.43c0-3.41-.7-6.66-1.96-9.61Zm-21.49-8.88l.04,6.29h-2.1s-.04-6.28-.04-6.28h2.1Zm-11.2,5.61l4.23,4.15-1.49,1.48-4.22-4.15,1.48-1.48Zm16.92,17.28l-4.76-4.75,.11,18.82h-3.77s-.11-18.8-.11-18.8l-4.69,4.8-2.85-2.85,6.57-6.73,2.83-.02h2.83s6.65,6.64,6.65,6.64l-2.81,2.89Zm.82-11.68l-1.5-1.48,4.17-4.2,1.51,1.48-4.18,4.2Z"/><path d="M488.67,416.31c-3.74-8.72-12.39-14.82-22.47-14.82s-18.74,6.1-22.48,14.82c-1.26,2.95-1.96,6.2-1.96,9.61,0,13.49,10.94,24.43,24.44,24.43s24.43-10.94,24.43-24.43c0-3.41-.7-6.66-1.96-9.61Zm-21.49-8.88l.04,6.29h-2.1s-.04-6.28-.04-6.28h2.1Zm-11.2,5.61l4.23,4.15-1.49,1.48-4.22-4.15,1.48-1.48Zm16.92,17.28l-4.76-4.75,.11,18.82h-3.77s-.11-18.8-.11-18.8l-4.69,4.8-2.85-2.85,6.57-6.73,2.83-.02h2.83s6.65,6.64,6.65,6.64l-2.81,2.89Zm.82-11.68l-1.5-1.48,4.17-4.2,1.51,1.48-4.18,4.2Z"/><g><path d="M239.96,204.5l187.83,21.73c2.36,.27,4.27-1.42,4.27-3.78h0c0-2.36-1.9-4.52-4.27-4.83l-65.42-8.53-.51-48.68c-.02-1.86-1.54-3.36-3.4-3.36s-3.38,1.5-3.4,3.36l-.05,4.84c-.53,.52-1.17,.99-1.63,1.3-1.77,1.4-4.59,.8-6.63-.56-11.65-9.17-25.26-6.24-35.64,2.6-2.27,1.9-3.92,3.95-7.13,4.44-3.13,.64-6.63,.44-9.94,.82-1.76,.2-3.6,.6-5.18,1.5-.18,.11-.29,.33-.24,.55,.06,.27,.34,.44,.61,.38,5.14-.91,9.76,1.89,14.94,2.26,2.38,.25,5.32,.01,7.75-1.04,1.2-.52,2.42-1.14,3.64-1.61,3.73-1.53,8.66-2.75,12.23-2.03,3.01,.49,5.17,2.37,6.7,4.86,1.71,2.02,3.56,3.85,5.98,5.51,4.17,2.97,9.2,4.39,14.29,4.46l-.2,19.37-114.6-14.95c-4.17-.54-7.59,1.58-7.59,4.75s3.42,6.14,7.59,6.62Z"/><path d="M427.79,369.67c2.36-.31,4.27-2.47,4.27-4.83s-1.9-4.05-4.27-3.78l-187.83,21.73c-4.17,.48-7.59,3.45-7.59,6.62s3.42,5.3,7.59,4.75l99.86-13.02c6.84-.89,12.88,4.47,12.81,11.36l-.36,33.96c-.12,11.92-7.07,22.93-18.07,27.54-2.99,1.25-6.21,2.04-9.58,2.27-17.71,1.19-32.52-12.89-32.52-30.36,0-1.15,.07-2.28,.19-3.4,.37-3.3-2.19-6.2-5.51-6.2h-.31c-3.35,0-5.87,2.95-5.51,6.28,.24,2.17,.25,4.41,0,6.69-1.62,14.74-13.96,26.31-28.77,27.02-17.44,.84-31.92-13.12-31.92-30.39,0-1.15,.06-2.28,.19-3.4,.37-3.3-2.19-6.2-5.52-6.2h-14.17c-10.38,0-19.04-8.19-19.29-18.56v-.2c-.45-18.95,9.4-30.37,19.87-44.92,5.99-8.9,8.73-20.42,5.41-30.84-2.74-10.65-14.96-17.98-25.22-11.89-7.33,4.2-10.05,14.58-5.01,21.65,3.55,4.91,10.74,6.3,15.82,2.89,5.33-3.43,6.3-11.4,1.79-15.88-2.95-2.94-7.35,1.28-4.58,4.35,1.72,1.75,1.3,4.83-.78,6.06-2.03,1.33-5.35,.62-6.66-1.47-1.52-2.18-1.3-5.88,.11-8.22,3.36-5.6,11.22-4.86,14.73,.38,4.26,6.33,3.32,16.05-.51,22.65-3.54,6.14-8.83,10.63-13.56,16.13-6.03,6.8-11.94,13.66-16.63,21.78-6.54,11.37-10.03,23.92-10.03,36.34,0,14.61,4.83,29.04,15.19,41.13,5.89,6.17,12.37,11.73,19.36,16.6l1.46,1.02c8.66,6.03,18,10.91,27.77,14.57,3.22,1.21,6.86,.37,9.29-2.06l23.04-23.04c.76-.76,1.79-1.18,2.86-1.18h0c3.6,0,5.4,4.35,2.86,6.9l-23.77,23.78s.02,0,.02,0l-28.61,28.61c-6.33,1.51-15.02,6.59-23.96,14.15-4.29,3.64-4.57,10.18-.59,14.16l5.46,5.46c3.98,3.98,10.52,3.7,14.15-.59,7.57-8.94,12.65-17.64,14.16-23.96l35.05-35.06c4.65,.52,9.34,.8,14.06,.8h9.7c2.35,0,4.6-.93,6.26-2.59l30.42-30.42c.71-.71,1.65-1.18,2.66-1.24,3.78-.22,5.73,4.28,3.12,6.89l-27.35,27.36h.05l-25.04,25.04c-6.32,1.51-15.02,6.59-23.95,14.15-4.3,3.64-4.58,10.18-.6,14.16l5.47,5.46c3.98,3.98,10.51,3.7,14.15-.59,7.57-8.94,12.64-17.64,14.15-23.96l34.26-34.26h24.53c2.35,0,4.6-.93,6.26-2.59l30.42-30.42c.71-.71,1.65-1.18,2.66-1.24,3.78-.22,5.73,4.28,3.12,6.89l-27.35,27.36h.08l-25.04,25.04c-6.33,1.51-15.02,6.59-23.96,14.15-4.29,3.64-4.57,10.18-.59,14.16l5.46,5.46c3.98,3.98,10.52,3.7,14.15-.59,7.57-8.94,12.65-17.64,14.16-23.96l34.26-34.26h24.49c2.35,0,4.6-.93,6.26-2.59l30.42-30.42c.71-.71,1.65-1.18,2.66-1.24,3.78-.22,5.73,4.28,3.12,6.89l-27.35,27.36h.11l-25.04,25.04c-6.32,1.51-15.02,6.59-23.95,14.15-4.3,3.64-4.58,10.18-.6,14.16l5.47,5.46c3.98,3.98,10.51,3.7,14.15-.59,7.57-8.94,12.64-17.64,14.15-23.96l34.26-34.26h19.04c7.25,0,14.47-.8,21.53-2.39l.14-.03c29.69-6.99,58.43-22.25,76.95-47.19,28.9-38.92,24.21-89.32-5.51-126.08-2.26-2.71-4.64-5.42-7.06-8-4.93-5.5-9.55-11.63-13.29-17.92-4.75-8.54-10.21-18.25-6.92-28.08,2.05-6.44,6.99-10.76,13.59-10.98,2.74-.15,5.18,.77,7.29,2.29-.92,1.87-1.07,4.06-.33,6.08l2.73,7.42c.87,2.36,2.42,4.42,4.45,5.91h0c8.9,4.49,11.06,6.74,15.22,15.6,.6,1.29,1.36,2.61,2.38,3.56,3.34,3.1,5.04,6.58,3,10.97,4.86,3.01,8.98,2.55,12.53-.64-.87-2.03-1.61-3.73-2.32-5.44-.3-.75-.3-1.96-.83-2.23-3.63-1.93-4.13-5.1-3.59-8.7-5.02-1.54-5.23-6.16-6.78-9.92-.67-1.64-1.15-3.52-2.29-4.81-1.3-1.48-3.22-2.44-4.88-3.62,7.32-.74,11.8,2.54,12.16,8.87,7.08,3.43,7.82,4.83,6.7,13.01,3.38,1.72,7.47,3.14,5.54,8.32,4.16,1.21,7.53,.48,10.55-2.27,1.27-1.18,1.1-3.33-.38-4.24-1.47-.9-2.24-2.55-2.69-4.69-.55-2.66-1.15-5.57-2.69-7.67-2.6-3.55-5.07-11.41-5.07-11.41,.75-5.9,.16-11.47-1.8-16.73,.24-.62,.4-1.28,.43-1.98l.08-1.48c.11-2.48-.18-5-.64-7.42-1.94-11.42-9.82-21.64-20.37-26.08-.98-.47-2.47-1.11-3.4-1.65-2.15-1.16-4.38-2.7-6.17-4.35-3.77-3.38-6.83-7.87-8.34-12.88-.05-.26-.28-.44-.55-.41-.27,.03-.47,.28-.44,.55,.81,6.92,4.37,13.56,9.36,18.54,1.43,1.43,3.3,3.06,4.96,4.18,1.52,1.06,3.28,2.31,4.69,3.46,2.71,2.31,4.84,5.1,6.36,8.16-5.55-5.91-3.15-1.74-1.84,3.63-3.37-8.54-10.06-15.73-18.45-19.26-.98-.47-2.47-1.11-3.4-1.65-2.15-1.16-4.38-2.7-6.17-4.35-3.77-3.38-6.83-7.87-8.34-12.88-.05-.26-.28-.44-.55-.41-.27,.03-.47,.28-.44,.55,.8,6.92,4.37,13.56,9.36,18.54,1.43,1.43,3.3,3.06,4.96,4.18,1.52,1.06,3.28,2.31,4.69,3.46,1.64,1.4,3.06,2.98,4.27,4.69-.15-.05-.3-.1-.45-.15-11.46-3.49,1.31,2.6,3.54,9.3-4.08-3.79-10.18-8.52-17.03-10.6-11.96-3.64,2.46,3.14,3.77,10.17h-.16c-4.07-3.72-9.97-8.17-16.55-10.17-10.32-3.14-.99,1.48,2.6,7.33-4.64-1.46-10.2-2.59-15.59-2.15-11.02,.89,.16,1.78,5.51,6.18l-.15,.37c-3.83-.17-7.95,.08-11.81,1.15-9,2.5-2.45,2.01,3.47,3.78-10.77,8.68-16.67,23.88-14.93,38.06,2.29,19.08,10.56,36.4,20.84,52.27,13.42,20.93,15.13,50.55,.33,70.93-1.58,2.18-3.59,3.95-5.86,5.25-2.05,1.17-3.08,3.56-2.59,5.86,.43,2.03,.65,4.14,.65,6.3,0,17.42-14.72,31.47-32.36,30.37-15.25-.95-27.61-13.39-28.46-28.64-.1-1.77-.05-3.51,.15-5.21,.37-3.28-2.29-6.13-5.59-6.13h-.24c-3.33,0-5.89,2.9-5.52,6.2,.13,1.12,.19,2.26,.19,3.41,0,17.47-14.81,31.55-32.51,30.36-3.37-.23-6.6-1.01-9.59-2.27-11-4.61-17.94-15.62-18.07-27.55l-.4-38.43c-.06-5.74,4.18-10.62,9.87-11.36l53.68-7Z"/></g></g><path class="cls-4" d="M718.81,367.39c-1.17,0-2.13-.95-2.13-2.13h0c0-66.34-18.78-130.72-54.34-186.33-.64-.99-1.97-1.28-2.96-.64l-3.14,2.04c-.98,.64-1.26,1.94-.63,2.92,34.73,54.32,53.07,117.2,53.07,182h0c0,1.17-.95,2.13-2.13,2.13h-9.95c-1.17,0-2.13,.95-2.13,2.13v3.75c0,1.17,.95,2.13,2.13,2.13h32.16c1.17,0,2.13-.95,2.13-2.13v-3.75c0-1.17-.95-2.13-2.13-2.13h-9.95Z"/></g></g></svg>