<svg width="138" height="54" viewBox="0 0 138 54" fill="none" xmlns="http://www.w3.org/2000/svg">
<path fill-rule="evenodd" clip-rule="evenodd" d="M32.3846 42.4398C32.2934 42.7113 32.0803 42.8923 31.6848 42.8923H29.4637C29.0985 42.8923 28.916 42.8018 28.8247 42.4398L26.7253 34.6269C26.5124 33.8427 26.4211 32.9075 26.2994 32.0025C26.2081 32.9377 26.0863 33.8728 25.8734 34.6269L23.7131 42.4398C23.6523 42.7113 23.4089 42.8923 23.0133 42.8923H20.7618C20.3967 42.8923 20.2141 42.8018 20.1228 42.4398L17.0193 31.1881C16.9281 30.7959 17.1715 30.5848 17.5062 30.5848H18.9362C19.3317 30.5848 19.5447 30.7054 19.636 31.0976L21.5833 39.1216C21.7963 40.0266 21.8571 40.9918 21.9484 41.8666C22.1005 41.0221 22.2222 40.0266 22.4656 39.1518L24.6259 31.0674C24.7172 30.7356 24.991 30.5848 25.3561 30.5848H27.1208C27.486 30.5848 27.7903 30.7657 27.8815 31.0976L30.0722 39.1518C30.3156 40.0266 30.4373 40.9918 30.559 41.8666C30.6808 41.0221 30.8025 40.0266 30.985 39.1518L32.7802 31.0674C32.841 30.7356 33.1453 30.5848 33.5104 30.5848H34.8491C35.1839 30.5848 35.4273 30.7959 35.336 31.1881L32.3846 42.4398ZM44.3421 43.0129C40.7822 43.0129 38.4699 40.5997 38.4699 36.648C38.4699 32.7265 40.7822 30.3736 44.3421 30.3736C47.9021 30.3736 50.1536 32.7567 50.1536 36.648C50.1536 40.5997 47.9021 43.0129 44.3421 43.0129ZM44.2813 32.093C42.1819 32.093 40.9953 33.6013 40.9953 36.6782C40.9953 39.8154 42.1515 41.3538 44.2813 41.3538C46.3807 41.3538 47.5673 39.8455 47.5673 36.6782C47.5369 33.6013 46.3807 32.093 44.2813 32.093ZM61.5634 32.3042C61.4721 32.6662 61.1983 32.8773 60.6811 32.7567C60.2551 32.6662 59.5553 32.4852 58.9772 32.4852C58.0948 32.4852 56.9083 33.4806 56.9083 35.7129V42.3794C56.9083 42.651 56.604 42.8923 56.2692 42.8923H55.1131C54.7783 42.8923 54.4741 42.651 54.4741 42.3794V31.0976C54.4741 30.7959 54.7783 30.5848 55.1131 30.5848H55.8129C56.1171 30.5848 56.3606 30.7054 56.4518 30.9769L56.8778 32.3645C57.7297 31.158 58.886 30.4038 60.316 30.4038C61.2896 30.4038 62.0503 30.7959 61.8982 31.3088L61.5634 32.3042ZM89.4948 42.7716H88.8558C88.3994 42.7716 88.156 42.6208 88.0648 42.2588L87.8214 41.2332C86.939 42.47 85.8437 42.9828 84.231 42.9828C81.0667 42.9828 79.4236 40.841 79.4236 36.7084C79.4236 34.1744 79.8497 32.9377 80.8841 31.7612C81.6752 30.8563 82.9836 30.3736 84.3224 30.3736C85.8133 30.3736 86.939 30.9769 87.7605 32.1836V25.2455C87.7605 24.9438 88.0648 24.7327 88.3994 24.7327H89.4948C89.8295 24.7327 90.1337 24.9438 90.1337 25.2455V42.2588C90.1337 42.5605 89.8295 42.7716 89.4948 42.7716ZM84.8396 32.0629C83.9268 32.0629 83.227 32.3947 82.801 33.0584C82.375 33.722 82.0404 34.8079 82.0404 36.6782C82.0404 39.9361 82.8922 41.2935 84.8092 41.2935C86.7869 41.2935 87.791 39.8154 87.791 36.7386C87.8214 33.6919 86.726 32.0629 84.8396 32.0629ZM75.59 42.8923H73.7339C73.4297 42.8923 73.1863 42.7113 73.0037 42.47L68.2876 36.5274V42.3794C68.2876 42.651 67.9834 42.8923 67.6487 42.8923H66.5533C66.2186 42.8923 65.9144 42.651 65.9144 42.3794V25.3058C65.9144 25.0042 66.2186 24.793 66.5533 24.793H67.6487C67.9834 24.793 68.2876 25.0042 68.2876 25.3058V36.286L73.1255 30.9468C73.2776 30.7356 73.521 30.5546 73.9165 30.5546H75.5596C75.9855 30.5546 76.1376 30.9166 75.8942 31.158L70.7217 36.286L75.8942 42.2286C76.1376 42.5303 76.016 42.8923 75.59 42.8923ZM108.146 31.0976C108.025 30.8261 108.329 30.5848 108.694 30.5848H110.124C110.519 30.5848 110.793 30.7657 110.915 31.0976L113.775 38.5484C113.897 38.9104 114.018 39.4233 114.109 39.8455C114.201 39.4534 114.414 38.7295 114.627 38.096L116.909 31.0976C117 30.7657 117.304 30.6149 117.7 30.6149H119.1C119.465 30.6149 119.738 30.8562 119.647 31.1277L114.901 44.6419C114.414 46.0295 113.471 47.1155 111.858 47.7188L111.189 47.9601C110.915 48.0506 110.519 47.9903 110.337 47.7489L109.881 47.0551C109.759 46.844 109.911 46.4518 110.216 46.3613L110.702 46.1803C111.919 45.758 112.802 44.4308 113.166 42.7716L108.146 31.0976ZM99.9615 30.3736C103.521 30.3736 105.347 32.7265 105.317 36.648V42.289C105.317 42.5605 105.012 42.8018 104.677 42.8018H104.039C103.582 42.8018 103.339 42.651 103.247 42.289L103.004 41.2331C102.122 42.5001 101.209 42.9828 99.7789 42.9828C96.4624 42.9828 94.3326 40.6299 94.3326 36.6782C94.3326 32.7567 96.4015 30.3736 99.9615 30.3736ZM99.9006 41.2634C102 41.2634 103.004 39.8154 103.004 36.648C103.004 33.5712 102 32.0629 99.9006 32.0629C97.8012 32.0629 96.8884 33.5712 96.8884 36.648C96.8884 39.8154 97.8012 41.2634 99.9006 41.2634ZM121.173 39.7207C121.376 39.8054 121.558 39.93 121.718 40.0882C121.87 40.2418 121.99 40.4204 122.068 40.6149C122.149 40.8161 122.191 41.0244 122.191 41.247C122.191 41.4741 122.149 41.6822 122.062 41.8837C121.98 42.0873 121.86 42.2589 121.701 42.4149C121.54 42.5688 121.357 42.6878 121.155 42.7737C120.954 42.8562 120.742 42.8968 120.523 42.8968C120.302 42.8968 120.088 42.8513 119.886 42.77C119.684 42.6833 119.499 42.5553 119.34 42.3972C119.184 42.2421 119.07 42.0644 118.988 41.8698C118.905 41.6687 118.862 41.4654 118.862 41.247C118.862 41.0965 118.885 40.9519 118.923 40.8049C118.964 40.6646 119.023 40.5245 119.107 40.3878C119.258 40.1379 119.455 39.9433 119.701 39.8021C119.951 39.6608 120.224 39.5927 120.523 39.5927C120.751 39.5927 120.968 39.6337 121.173 39.7207ZM120 39.9661C119.834 40.0291 119.689 40.1297 119.561 40.2565C119.422 40.3878 119.322 40.5426 119.247 40.7143C119.175 40.8842 119.138 41.0603 119.138 41.2425C119.138 41.4247 119.171 41.6009 119.238 41.7647C119.308 41.9288 119.409 42.078 119.537 42.205C119.67 42.3382 119.822 42.4423 119.991 42.5146C120.161 42.5866 120.338 42.623 120.523 42.623C120.701 42.623 120.875 42.5866 121.045 42.5191C121.214 42.4511 121.37 42.3517 121.508 42.2195C121.636 42.0975 121.737 41.9515 121.809 41.784C121.88 41.6199 121.916 41.447 121.916 41.2696C121.916 41.0742 121.883 40.8928 121.816 40.7257C121.751 40.5606 121.65 40.4101 121.522 40.2791C121.384 40.1423 121.238 40.0382 121.068 39.9695C120.899 39.9014 120.719 39.8644 120.528 39.8644C120.338 39.8644 120.161 39.8982 120 39.9661ZM120.559 40.2962C120.819 40.2962 121.018 40.3426 121.15 40.4294C121.282 40.5201 121.347 40.6468 121.347 40.8254C121.347 40.9477 121.311 41.0467 121.241 41.1326C121.168 41.22 121.068 41.279 120.944 41.3103L121.357 42.1288H120.857L120.505 41.3796H120.285V42.1288H119.834V40.2962H120.559ZM120.285 41.1103H120.505C120.637 41.1103 120.733 41.0874 120.793 41.0467C120.853 41.0061 120.884 40.9432 120.884 40.8522C120.884 40.7607 120.853 40.692 120.789 40.6468C120.719 40.6017 120.618 40.5787 120.481 40.5787H120.285V41.1103Z" fill="white"/>
<path fill-rule="evenodd" clip-rule="evenodd" d="M47.4454 25.2757C51.4921 15.834 60.9242 9.22769 71.9081 9.22769C82.892 9.22769 92.3242 15.834 96.3708 25.2757C96.6142 25.9092 97.2228 26.3617 97.953 26.3617C98.8657 26.3617 99.6264 25.6076 99.6264 24.7026C99.6264 24.4915 99.596 24.2803 99.5048 24.0692C94.9408 13.4509 84.2916 6 71.9081 6C59.5246 6 48.8754 13.4509 44.3114 24.0692C44.2202 24.2501 44.1897 24.4915 44.1897 24.7026C44.1897 25.6076 44.9504 26.3617 45.8632 26.3617C46.5934 26.3617 47.2019 25.9092 47.4454 25.2757Z" fill="white"/>
</svg>
