<svg width="138" height="54" viewBox="0 0 138 54" fill="none" xmlns="http://www.w3.org/2000/svg">
<path d="M17.2875 20.0625L13.7875 25.925V29.8625C14.225 30.825 15.1875 30.9125 16.15 31V31.525H9.4125V31C10.375 31 11.5125 30.825 11.8625 30.2125V26.1875L8.3625 20.2375C7.75 19.1875 7.1375 18.925 6 18.8375V18.3125H11.8625V18.8375C10.725 18.925 10.375 19.1 10.1125 19.3625L13.35 25.05L16.5875 19.3625C16.2375 19.1 15.8 18.8375 14.6625 18.8375V18.3125H19.7375V18.8375C18.6 18.75 17.9 19.1 17.2875 20.0625ZM24.2 31.7C23.0625 31.7 22.5375 30.9125 22.45 30.3875C21.75 31.175 20.7875 31.7 19.9125 31.7C18.775 31.7 17.8125 31 17.8125 29.775C17.8125 29.1625 17.9875 28.55 18.25 28.1125L22.45 26.625V25.05C22.45 24.0875 22.0125 23.2125 21.05 23.2125C20.525 23.2125 19.9125 23.9125 19.9125 24.9625L17.9875 25.3125V25.1375C18.6 23.2125 20.7 22.5125 21.6625 22.5125C23.5875 22.5125 24.2875 23.5625 24.2875 25.05L24.2 29.425C24.2 30.3 24.6375 30.475 25.075 30.475C25.425 30.475 25.775 30.3 26.125 29.8625V30.475C25.775 31.0875 24.9 31.7 24.2 31.7ZM20 28.2875C19.9125 28.6375 19.825 28.9 19.825 29.3375C19.825 29.95 20.175 30.5625 20.875 30.5625C21.4875 30.5625 21.8375 30.3875 22.45 29.95V27.15C21.925 27.4125 20.6125 28.025 20 28.2875ZM26.3875 31.525V31C27.35 30.9125 27.6125 30.7375 27.7875 30.3875V19.5375C27.7875 18.8375 27.7 18.4875 26.2125 18.4V17.9625L30.0625 17L30.15 17.35L29.5375 18.1375V30.3875C29.7125 30.825 30.15 30.9125 31.025 31V31.525H26.3875ZM36.1 31.7C33.9125 31.7 32.1625 29.95 32.1625 27.5C32.1625 24.525 34 22.5125 36.5375 22.5125C38.6375 22.5125 39.775 23.65 39.775 25.575V25.925H34.0875C34.0875 26.1875 34 26.5375 34 26.975C34 29.075 35.3125 30.5625 37.15 30.5625C38.2 30.5625 38.725 30.2125 39.6 29.5125L39.95 30.0375C38.8125 31 37.85 31.7 36.1 31.7ZM36.275 23.125C35.225 23.125 34.525 24 34.2625 25.3125H37.9375C37.9375 24.175 37.2375 23.125 36.275 23.125Z" fill="white"/>
<path d="M57.9751 19.625V26.275C57.9751 30.125 55.6126 31.875 52.4626 31.875C49.2251 31.875 47.2126 29.95 47.2126 26.7125V19.5375C47.0376 19.1 46.1626 18.8375 45.2876 18.75V18.225H51.1501V18.75C50.1876 18.75 49.3126 19.1 49.1376 19.5375V26.275C49.1376 28.9 50.4501 30.475 52.9876 30.475C55.6126 30.475 56.9251 28.9 56.9251 25.8375V23.125C56.9251 21.9 56.8376 20.2375 56.8376 19.5375C56.6626 19.1 55.5251 18.6625 54.4751 18.575V18.05H59.9001V18.575C58.9376 18.75 58.1501 19.1875 57.9751 19.625Z" fill="white"/>
<path d="M65.9375 31.5248V30.9998C66.9875 30.9123 67.075 30.7373 67.25 30.3873V25.8373C67.25 24.6998 66.4625 23.7373 65.4125 23.7373C64.8875 23.7373 64.0125 24.0873 63.4 24.4373V30.3873C63.6625 30.8248 63.75 30.9123 64.8 30.9998V31.5248H60.25V30.9998C61.3 30.9123 61.3875 30.7373 61.65 30.3873V24.9623C61.65 24.5248 61.3 24.0873 60.3375 23.8248V23.3873L63.1375 22.4248H63.4V23.9123C64.3625 23.2123 65.85 22.4248 66.6375 22.4248C68.475 22.4248 69.0875 23.5623 69.0875 25.3123V30.4748C69.525 30.8248 69.9625 30.8248 70.8375 30.9123V31.5248H65.9375Z" fill="white"/>
<path d="M71.4502 31.525V31C72.5002 30.9125 72.6752 30.7375 72.8502 30.3875V24.9625C72.8502 24.4375 72.5877 24.0875 71.5377 23.825V23.475L74.4252 22.5125H74.6877V30.475C74.9502 30.9125 75.0377 31 76.0877 31.0875V31.525H71.4502ZM73.6377 19.9749C72.9377 19.9749 72.4127 19.3625 72.4127 18.8375C72.4127 18.3125 72.9377 17.7 73.6377 17.7C74.3377 17.7 74.7752 18.3125 74.7752 18.8375C74.7752 19.45 74.3377 19.9749 73.6377 19.9749Z" fill="white"/>
<path d="M83.7875 23.9999C83.6125 23.6499 83.0875 23.2999 82.2125 23.2999V22.7749H85.975V23.2999C85.1 23.2999 84.575 23.9124 84.4 24.4374L81.3375 31.5249L80.55 31.6999L77.575 24.2624C77.3125 23.7374 76.875 23.3874 76 23.2999V22.7749H80.725V23.2999C80.025 23.2999 79.675 23.4749 79.4125 23.6499L81.6875 29.4249L83.7875 23.9999Z" fill="white"/>
<path d="M90.2627 31.7C88.0752 31.7 86.3252 29.95 86.3252 27.5C86.3252 24.525 88.1627 22.5125 90.7002 22.5125C92.8002 22.5125 93.9377 23.65 93.9377 25.575V25.925H88.2502C88.2502 26.1875 88.1627 26.5374 88.1627 26.9749C88.1627 29.0749 89.4752 30.5625 91.3127 30.5625C92.3627 30.5625 92.8877 30.2125 93.7627 29.5125L94.1127 30.0374C92.9752 30.9999 92.0127 31.7 90.2627 31.7ZM90.4377 23.125C89.3877 23.125 88.6877 24 88.4252 25.3125H92.1002C92.1002 24.175 91.4002 23.125 90.4377 23.125Z" fill="white"/>
<path d="M101.375 24.7873H101.2C100.588 24.4373 100.15 24.1748 99.6251 24.1748C99.1001 24.1748 98.8376 24.5248 98.4001 24.9623V30.3873C98.6626 30.8248 99.4501 30.9123 100.325 30.9998V31.5248H95.3376V30.9998C96.3876 30.9123 96.4751 30.7373 96.6501 30.3873V24.8748C96.6501 24.4373 96.3876 24.0873 95.3376 23.8248V23.3873L98.1376 22.4248H98.3126V24.4373C99.2751 23.3873 100.063 22.5123 100.85 22.5123C101.375 22.5123 101.9 22.6873 102.338 22.9498L101.375 24.7873Z" fill="white"/>
<path d="M106.1 31.6998C104.525 31.6998 103.563 31.3498 103.038 31.1748L102.775 28.8998H103.3C103.913 30.0373 104.963 31.0873 105.4 31.0873C107.15 31.0873 107.588 30.2998 107.588 29.5123C107.588 28.6373 106.8 28.2873 105.663 27.7623C103.913 27.0623 103.038 26.3623 103.038 24.9623C103.038 23.5623 104.525 22.4248 106.363 22.4248C107.5 22.4248 108.463 22.7748 108.988 22.9498L109.075 25.1373H108.638C108.025 23.9998 107.15 23.0373 106.625 23.0373C104.963 23.0373 104.613 23.9123 104.613 24.4373C104.613 25.3123 104.963 25.6623 106.625 26.3623C108.288 26.9748 109.25 27.6748 109.25 28.9873C109.25 30.4748 107.938 31.6998 106.1 31.6998Z" fill="white"/>
<path d="M110.737 31.525V31C111.787 30.9125 111.962 30.7375 112.137 30.3875V24.9625C112.137 24.4375 111.875 24.0875 110.825 23.825V23.475L113.712 22.5125H113.975V30.475C114.237 30.9125 114.325 31 115.375 31.0875V31.525H110.737ZM112.925 19.9749C112.225 19.9749 111.7 19.3625 111.7 18.8375C111.7 18.3125 112.225 17.7 112.925 17.7C113.625 17.7 114.062 18.3125 114.062 18.8375C114.062 19.45 113.625 19.9749 112.925 19.9749Z" fill="white"/>
<path d="M119.75 31.6999C117.825 31.6999 117.213 30.6499 117.213 28.9874C117.213 26.9749 117.3 25.7499 117.3 23.7374H116.163V23.2999L118.7 20.8499H119.138V22.7749H122.025V23.7374H119.138C119.138 25.8374 119.138 26.7999 119.138 28.7249C119.138 29.8624 119.925 30.6499 121.15 30.6499C121.675 30.6499 122.375 30.2999 122.55 30.2124V30.6499C121.938 31.0874 120.45 31.6999 119.75 31.6999Z" fill="white"/>
<path d="M129.725 23.9999C129.637 23.6499 129.112 23.2999 128.237 23.2999V22.7749H132V23.2999C131.125 23.2999 130.6 23.9124 130.425 24.4374L127.8 30.6499C127.362 31.6999 126.487 34.0624 125.7 35.8999C125.437 36.5124 125.087 36.7749 124.475 36.7749C123.775 36.7749 123.425 36.2499 123.425 35.7249C123.425 35.1999 123.775 34.6749 124.475 34.6749C124.65 34.6749 125 34.7624 125.262 34.8499L126.575 31.7874L123.6 24.0874C123.425 23.5624 123.075 23.2124 122.2 23.1249V22.7749H126.75V23.2999C126.05 23.2999 125.7 23.4749 125.35 23.6499L127.625 29.5124L129.725 23.9999Z" fill="white"/>
</svg>
